<?xml version="1.0" encoding="UTF-8"?>
<svg version="1.1" xmlns="http://www.w3.org/2000/svg" width="512" height="512">
<path d="M0 0 C0.68636536 0.00215515 1.37273071 0.0043103 2.07989502 0.00653076 C12.29059605 0.05800829 21.94522072 0.43408925 31.8125 3.3125 C32.47781738 3.50585938 33.14313477 3.69921875 33.82861328 3.8984375 C49.99575653 8.74073416 64.84727455 16.47829917 77.8125 27.3125 C78.80765625 28.14394531 79.8028125 28.97539062 80.828125 29.83203125 C92.74521269 40.11617079 101.58991137 52.39620794 108.8125 66.3125 C109.28300781 67.21226563 109.75351563 68.11203125 110.23828125 69.0390625 C112.886056 74.46577112 114.77228721 80.04136655 116.5 85.8125 C116.70262451 86.48837158 116.90524902 87.16424316 117.11401367 87.8605957 C120.22829499 98.74693827 121.18882513 109.18588611 121.125 120.5 C121.12176727 121.52954803 121.12176727 121.52954803 121.11846924 122.57989502 C121.06699171 132.79059605 120.69091075 142.44522072 117.8125 152.3125 C117.61914062 152.97781738 117.42578125 153.64313477 117.2265625 154.32861328 C112.38426584 170.49575653 104.64670083 185.34727455 93.8125 198.3125 C92.98105469 199.30765625 92.14960938 200.3028125 91.29296875 201.328125 C81.00882921 213.24521269 68.72879206 222.08991137 54.8125 229.3125 C53.91273438 229.78300781 53.01296875 230.25351563 52.0859375 230.73828125 C46.65922888 233.386056 41.08363345 235.27228721 35.3125 237 C34.63662842 237.20262451 33.96075684 237.40524902 33.2644043 237.61401367 C22.44453555 240.70927867 12.06213431 241.70270127 0.8125 241.6875 C0.13130096 241.68695618 -0.54989807 241.68641235 -1.2517395 241.68585205 C-12.60746988 241.64428825 -23.30150692 240.70775158 -34.1875 237.3125 C-34.8779541 237.09819336 -35.5684082 236.88388672 -36.27978516 236.66308594 C-69.4110363 225.99462119 -93.85592721 203.07256017 -109.61328125 172.55078125 C-117.54814709 156.11602816 -120.57789966 139.22647458 -120.5 121.0625 C-120.49784485 120.3786322 -120.4956897 119.6947644 -120.49346924 118.99017334 C-120.44193595 108.79820058 -120.06063279 99.16168628 -117.1875 89.3125 C-116.99414062 88.64718262 -116.80078125 87.98186523 -116.6015625 87.29638672 C-111.75926584 71.12924347 -104.02170083 56.27772545 -93.1875 43.3125 C-91.94033203 41.81976563 -91.94033203 41.81976563 -90.66796875 40.296875 C-68.02814766 14.06223165 -34.42280517 -0.19418578 0 0 Z " fill="#2EE5A8" transform="translate(120.1875,-0.3125)"/>
<path d="M0 0 C0.68636536 0.00215515 1.37273071 0.0043103 2.07989502 0.00653076 C12.29059605 0.05800829 21.94522072 0.43408925 31.8125 3.3125 C32.47781738 3.50585938 33.14313477 3.69921875 33.82861328 3.8984375 C49.99575653 8.74073416 64.84727455 16.47829917 77.8125 27.3125 C78.80765625 28.14394531 79.8028125 28.97539062 80.828125 29.83203125 C92.74521269 40.11617079 101.58991137 52.39620794 108.8125 66.3125 C109.28300781 67.21226563 109.75351562 68.11203125 110.23828125 69.0390625 C112.886056 74.46577112 114.77228721 80.04136655 116.5 85.8125 C116.70262451 86.48837158 116.90524902 87.16424316 117.11401367 87.8605957 C120.22829499 98.74693827 121.18882513 109.18588611 121.125 120.5 C121.12176727 121.52954803 121.12176727 121.52954803 121.11846924 122.57989502 C121.06699171 132.79059605 120.69091075 142.44522072 117.8125 152.3125 C117.61914062 152.97781738 117.42578125 153.64313477 117.2265625 154.32861328 C112.38426584 170.49575653 104.64670083 185.34727455 93.8125 198.3125 C92.98105469 199.30765625 92.14960938 200.3028125 91.29296875 201.328125 C81.00882921 213.24521269 68.72879206 222.08991137 54.8125 229.3125 C53.91273438 229.78300781 53.01296875 230.25351563 52.0859375 230.73828125 C46.65922888 233.386056 41.08363345 235.27228721 35.3125 237 C34.63662842 237.20262451 33.96075684 237.40524902 33.2644043 237.61401367 C22.44453555 240.70927867 12.06213431 241.70270127 0.8125 241.6875 C0.13130096 241.68695618 -0.54989807 241.68641235 -1.2517395 241.68585205 C-12.60746988 241.64428825 -23.30150692 240.70775158 -34.1875 237.3125 C-34.8779541 237.09819336 -35.5684082 236.88388672 -36.27978516 236.66308594 C-69.4110363 225.99462119 -93.85592721 203.07256017 -109.61328125 172.55078125 C-117.54814709 156.11602816 -120.57789966 139.22647458 -120.5 121.0625 C-120.49784485 120.3786322 -120.4956897 119.6947644 -120.49346924 118.99017334 C-120.44193595 108.79820058 -120.06063279 99.16168628 -117.1875 89.3125 C-116.99414062 88.64718262 -116.80078125 87.98186523 -116.6015625 87.29638672 C-111.75926584 71.12924347 -104.02170083 56.27772545 -93.1875 43.3125 C-91.94033203 41.81976563 -91.94033203 41.81976563 -90.66796875 40.296875 C-68.02814766 14.06223165 -34.42280517 -0.19418578 0 0 Z " fill="#FE3376" transform="translate(391.1875,-0.3125)"/>
<path d="M0 0 C1.37744385 0.01244751 1.37744385 0.01244751 2.78271484 0.02514648 C16.58997071 0.36782789 27.75459629 5.76362657 37.875 15.125 C48.51446692 26.44172252 52.15147687 39.17654884 52.04492188 54.30883789 C51.62600368 67.8632583 46.56551266 79.37253065 37.25 89.25 C30.20856076 95.79071467 22.74516888 99.53950241 13.625 102.4375 C16.9650307 103.57025209 20.31362187 104.65080598 23.69140625 105.6640625 C45.70440998 112.41230718 64.84736946 125.92856814 75.87890625 146.515625 C91.29299604 176.93285505 86.625 206.02039771 86.625 241.4375 C29.535 241.4375 -27.555 241.4375 -86.375 241.4375 C-86.375 153.28756883 -86.375 153.28756883 -60.97802734 127.01269531 C-49.19426949 115.43352905 -35.19707285 108.87693799 -19.375 104.4375 C-17.37154901 103.78127705 -15.37050112 103.11751452 -13.375 102.4375 C-14.13683594 102.14617187 -14.89867187 101.85484375 -15.68359375 101.5546875 C-30.81675466 95.54676594 -40.95342062 87.36450944 -48.18359375 72.4921875 C-53.07420333 59.95298524 -53.2857619 45.02857759 -48.69921875 32.36328125 C-42.44224149 18.53886836 -32.49321005 8.02102389 -18.12939453 2.58813477 C-12.02539468 0.57083287 -6.40829633 -0.07531498 0 0 Z " fill="#FFDC32" transform="translate(391.375,270.5625)"/>
<path d="M0 0 C1.37744385 0.01244751 1.37744385 0.01244751 2.78271484 0.02514648 C16.58997071 0.36782789 27.75459629 5.76362657 37.875 15.125 C48.51446692 26.44172252 52.15147687 39.17654884 52.04492188 54.30883789 C51.62600368 67.8632583 46.56551266 79.37253065 37.25 89.25 C30.20856076 95.79071467 22.74516888 99.53950241 13.625 102.4375 C16.9650307 103.57025209 20.31362187 104.65080598 23.69140625 105.6640625 C45.70440998 112.41230718 64.84736946 125.92856814 75.87890625 146.515625 C91.29299604 176.93285505 86.625 206.02039771 86.625 241.4375 C29.535 241.4375 -27.555 241.4375 -86.375 241.4375 C-86.375 153.28756883 -86.375 153.28756883 -60.97802734 127.01269531 C-49.19426949 115.43352905 -35.19707285 108.87693799 -19.375 104.4375 C-17.37154901 103.78127705 -15.37050112 103.11751452 -13.375 102.4375 C-14.13683594 102.14617187 -14.89867188 101.85484375 -15.68359375 101.5546875 C-30.81675466 95.54676594 -40.95342062 87.36450944 -48.18359375 72.4921875 C-53.07420333 59.95298524 -53.2857619 45.02857759 -48.69921875 32.36328125 C-42.44224149 18.53886836 -32.49321005 8.02102389 -18.12939453 2.58813477 C-12.02539468 0.57083287 -6.40829633 -0.07531498 0 0 Z " fill="#6565FF" transform="translate(120.375,270.5625)"/>
<path d="M0 0 C0.33 22.44 0.66 44.88 1 68 C15.85 53.15 15.85 53.15 31 38 C34.68753843 39.84376922 36.50068924 41.2649848 39.328125 44.1328125 C40.52695312 45.34130859 40.52695312 45.34130859 41.75 46.57421875 C42.575 47.41597656 43.4 48.25773437 44.25 49.125 C45.09046875 49.97449219 45.9309375 50.82398438 46.796875 51.69921875 C48.86915683 53.79504923 50.93662393 55.89540713 53 58 C51.71977125 60.80969467 50.39285871 62.8539238 48.20263672 65.02441406 C47.64220673 65.58469299 47.08177673 66.14497192 46.50436401 66.722229 C45.90222076 67.31404968 45.30007751 67.90587036 44.6796875 68.515625 C44.06102814 69.13145447 43.44236877 69.74728394 42.80496216 70.3817749 C40.83296186 72.34260336 38.85411263 74.29635301 36.875 76.25 C35.53469836 77.58026799 34.19484917 78.910992 32.85546875 80.2421875 C29.57553411 83.5001015 26.28944058 86.75168533 23 90 C26.77124245 94.50454825 30.6606597 98.80193876 34.8359375 102.93359375 C35.36015289 103.4563942 35.88436829 103.97919464 36.42446899 104.51783752 C38.0722787 106.16012345 39.72355901 107.7988665 41.375 109.4375 C42.50413955 110.56161467 43.63304778 111.68596174 44.76171875 112.81054688 C47.50515188 115.54305235 50.25169985 118.27239009 53 121 C51.51346494 124.46629835 49.54277649 126.69022036 46.8671875 129.328125 C45.65869141 130.52695312 45.65869141 130.52695312 44.42578125 131.75 C43.16314453 132.9875 43.16314453 132.9875 41.875 134.25 C41.02550781 135.09046875 40.17601562 135.9309375 39.30078125 136.796875 C37.20495077 138.86915683 35.10459287 140.93662393 33 143 C30.19030533 141.71977125 28.1460762 140.39285871 25.97558594 138.20263672 C25.40759277 137.63440186 24.83959961 137.06616699 24.25439453 136.48071289 C23.67028809 135.88637451 23.08618164 135.29203613 22.484375 134.6796875 C21.93797363 134.13127197 21.39157227 133.58285645 20.82861328 133.01782227 C18.79690195 130.97567889 16.77396581 128.92482022 14.75 126.875 C10.2125 122.29625 5.675 117.7175 1 113 C0.67 135.44 0.34 157.88 0 181 C-6.81512273 181 -12.2980198 180.8793552 -18.75 179.375 C-19.5229541 179.19678711 -20.2959082 179.01857422 -21.09228516 178.83496094 C-38.00982465 174.71281464 -51.4905762 165.94081363 -64 154 C-64.61359375 153.46117187 -65.2271875 152.92234375 -65.859375 152.3671875 C-75.82510058 143.27003434 -81.81465389 130.60766942 -86 118 C-86.41378906 116.76894531 -86.82757813 115.53789062 -87.25390625 114.26953125 C-93.94615446 91.39463407 -90.22093165 66.80651333 -79 46 C-66.83625131 25.10025175 -46.96681957 8.98747583 -23.47265625 2.75 C-21.90072006 2.36554415 -20.32647413 1.99040249 -18.75 1.625 C-18.02965576 1.45693848 -17.30931152 1.28887695 -16.56713867 1.11572266 C-10.76706173 -0.10541566 -6.18781302 0 0 0 Z " fill="#FF6666" transform="translate(391,30)"/>
<path d="M0 0 C0 28.71 0 57.42 0 87 C5.22626769 82.42701577 10.25266916 77.88739079 15.125 72.97265625 C15.75736572 72.33887558 16.38973145 71.70509491 17.04125977 71.05210876 C19.02989986 69.05794022 21.01500527 67.06029647 23 65.0625 C24.36044318 63.69703255 25.72111831 62.33179614 27.08203125 60.96679688 C30.3907031 57.64719114 33.69621322 54.32446727 37 51 C40.68458983 54.11772677 44.34675126 57.21672032 47.74609375 60.6484375 C48.35517578 61.26074219 48.96425781 61.87304688 49.59179688 62.50390625 C50.20087891 63.12136719 50.80996094 63.73882812 51.4375 64.375 C52.07365234 65.01566406 52.70980469 65.65632813 53.36523438 66.31640625 C54.91250332 67.87530879 56.45736492 69.43651416 58 71 C56.45357939 74.91382058 54.03092911 76.91873064 50.83178711 79.5859375 C49.74220827 80.50858205 48.65387278 81.43269636 47.56660461 82.35806274 C46.70169623 83.09178038 46.70169623 83.09178038 45.81931496 83.84032059 C14.24374599 109.02544247 14.24374599 109.02544247 -1.80078125 144.1484375 C-2.69388 156.50139576 -1.36861401 168.87577987 1 181 C-0.75356363 181.01208493 -2.50715147 181.02068848 -4.26074219 181.02783203 C-5.23726746 181.03299835 -6.21379272 181.03816467 -7.21990967 181.04348755 C-31.03285286 180.67099371 -52.29582302 166.47896538 -68.328125 150.0390625 C-84.97340311 131.70043359 -91.05699228 106.8488103 -90.17480469 82.63232422 C-88.5451963 58.09260685 -75.76174954 36.79219758 -57.83056641 20.56445312 C-41.61753131 6.70834097 -21.11225463 0 0 0 Z " fill="#7FFED3" transform="translate(120,30)"/>
<path d="M0 0 C23.84608488 0 43.37896324 7.47885493 60.8203125 23.73828125 C79.60127138 43.22605041 86.21050795 66.95739622 86.09765625 93.56640625 C86.09664917 94.69751831 86.09564209 95.82863037 86.09460449 96.99401855 C86.08940747 101.18352281 86.07544643 105.37301252 86.0625 109.5625 C86.041875 118.946875 86.02125 128.33125 86 138 C57.62 138 29.24 138 0 138 C0 92.46 0 46.92 0 0 Z " fill="#FFBB32" transform="translate(392,374)"/>
<path d="M0 0 C23.84608488 0 43.37896324 7.47885493 60.8203125 23.73828125 C79.60127138 43.22605041 86.21050795 66.95739622 86.09765625 93.56640625 C86.09664917 94.69751831 86.09564209 95.82863037 86.09460449 96.99401855 C86.08940747 101.18352281 86.07544643 105.37301252 86.0625 109.5625 C86.041875 118.946875 86.02125 128.33125 86 138 C57.62 138 29.24 138 0 138 C0 92.46 0 46.92 0 0 Z " fill="#5432FF" transform="translate(121,374)"/>
<path d="M0 0 C0.33 38.61 0.66 77.22 1 117 C0.34 117 -0.32 117 -1 117 C-1 88.29 -1 59.58 -1 30 C-23.37724873 33.35658731 -43.11711504 37.43084947 -60 53 C-61.35351562 54.21623047 -61.35351562 54.21623047 -62.734375 55.45703125 C-79.18536743 70.97640671 -89.13993906 92.42279108 -90.34765625 115.06640625 C-91.02996895 138.61068314 -84.25264803 161.33470684 -68.625 179.25 C-67.10443001 180.85360452 -65.56263888 182.43736112 -64 184 C-63.22914062 184.77085937 -62.45828125 185.54171875 -61.6640625 186.3359375 C-43.99996275 203.08539131 -23.65175144 208.84984078 0 211 C0 220.9 0 230.8 0 241 C-32.62488094 242.19724334 -61.72205635 229.38185525 -85.56225586 207.43164062 C-106.58797608 187.31978228 -120.5580243 157.74989255 -121.30078125 128.609375 C-121.32025997 125.98965284 -121.32373538 123.36977049 -121.3125 120.75 C-121.31034485 120.0661322 -121.3081897 119.3822644 -121.30596924 118.67767334 C-121.25443595 108.48570058 -120.87313279 98.84918628 -118 89 C-117.80664062 88.33468262 -117.61328125 87.66936523 -117.4140625 86.98388672 C-112.57176584 70.81674347 -104.83420083 55.96522545 -94 43 C-92.75283203 41.50726563 -92.75283203 41.50726563 -91.48046875 39.984375 C-74.63510474 20.46425091 -51.90678205 8.14544563 -27 2 C-26.08863281 1.773125 -25.17726563 1.54625 -24.23828125 1.3125 C-15.89106885 -0.4842094 -8.95717114 0 0 0 Z " fill="#2EE6A8" transform="translate(121,0)"/>
<path d="M0 0 C28.91865632 0 54.58935044 8.27286881 77 27 C77.99515625 27.83144531 78.9903125 28.66289062 80.015625 29.51953125 C91.93271269 39.80367079 100.77741137 52.08370794 108 66 C108.47050781 66.89976563 108.94101563 67.79953125 109.42578125 68.7265625 C112.073556 74.15327112 113.95978721 79.72886655 115.6875 85.5 C115.89012451 86.17587158 116.09274902 86.85174316 116.30151367 87.5480957 C119.41579499 98.43443827 120.37632513 108.87338611 120.3125 120.1875 C120.30926727 121.21704803 120.30926727 121.21704803 120.30596924 122.26739502 C120.25449171 132.47809605 119.87841075 142.13272072 117 152 C116.80664062 152.66531738 116.61328125 153.33063477 116.4140625 154.01611328 C111.57176584 170.18325653 103.83420083 185.03477455 93 198 C92.16855469 198.99515625 91.33710938 199.9903125 90.48046875 201.015625 C80.19632921 212.93271269 67.91629206 221.77741137 54 229 C53.10023438 229.47050781 52.20046875 229.94101563 51.2734375 230.42578125 C34.93801617 238.39608501 18.05487135 241 0 241 C0 231.1 0 221.2 0 211 C3.114375 210.62875 6.22875 210.2575 9.4375 209.875 C30.9828484 206.95209042 48.69261395 198.50821181 64 183 C64.73992187 182.25878906 65.47984375 181.51757812 66.2421875 180.75390625 C82.91838575 163.07194507 90.01266527 139.23819296 89.34375 115.31640625 C88.11646773 91.09073093 76.98570984 69.51843316 59.44921875 53.01171875 C42.90070177 38.15326308 21.7521644 31.97746949 0 30 C0 20.1 0 10.2 0 0 Z " fill="#23B3B3" transform="translate(121,0)"/>
<path d="M0 0 C28.91865632 0 54.58935044 8.27286881 77 27 C77.99515625 27.83144531 78.9903125 28.66289062 80.015625 29.51953125 C91.93271269 39.80367079 100.77741137 52.08370794 108 66 C108.47050781 66.89976563 108.94101562 67.79953125 109.42578125 68.7265625 C112.073556 74.15327112 113.95978721 79.72886655 115.6875 85.5 C115.89012451 86.17587158 116.09274902 86.85174316 116.30151367 87.5480957 C119.41579499 98.43443827 120.37632513 108.87338611 120.3125 120.1875 C120.30926727 121.21704803 120.30926727 121.21704803 120.30596924 122.26739502 C120.25449171 132.47809605 119.87841075 142.13272072 117 152 C116.80664062 152.66531738 116.61328125 153.33063477 116.4140625 154.01611328 C111.57176584 170.18325653 103.83420083 185.03477455 93 198 C92.16855469 198.99515625 91.33710938 199.9903125 90.48046875 201.015625 C80.19632921 212.93271269 67.91629206 221.77741137 54 229 C53.10023438 229.47050781 52.20046875 229.94101563 51.2734375 230.42578125 C34.93801617 238.39608501 18.05487135 241 0 241 C0 231.1 0 221.2 0 211 C4.455 210.4121875 4.455 210.4121875 9 209.8125 C30.77799641 206.62958937 48.52255648 198.89450038 64 183 C65.10601562 181.89011719 65.10601562 181.89011719 66.234375 180.7578125 C82.17849052 163.88671352 89.58750634 141.68004252 89.3515625 118.78857422 C88.61024347 94.82440705 79.77645813 74.29880206 63 57 C62.46117187 56.38769531 61.92234375 55.77539062 61.3671875 55.14453125 C50.91551434 43.66869916 35.71791271 37.03219609 21 33.25 C19.77192627 32.93337402 19.77192627 32.93337402 18.51904297 32.61035156 C12.22473585 31.08650619 6.5996376 30.59996705 0 30 C0 20.1 0 10.2 0 0 Z " fill="#CC285E" transform="translate(392,0)"/>
<path d="M0 0 C0.9182959 0.00829834 1.8365918 0.01659668 2.78271484 0.02514648 C16.58997071 0.36782789 27.75459629 5.76362657 37.875 15.125 C48.51446692 26.44172252 52.15147687 39.17654884 52.04492188 54.30883789 C51.62600368 67.8632583 46.56551266 79.37253065 37.25 89.25 C25.40732043 100.25053346 11.92736164 103.98057427 -3.9375 103.71875 C-18.362399 103.09912375 -30.68456551 95.73759759 -40.375 85.4375 C-50.53351639 72.68119507 -52.96806244 58.30537793 -51.375 42.4375 C-49.13447802 29.81633477 -42.36728783 18.48920723 -32.375 10.4375 C-22.1411159 3.40258935 -12.4228596 -0.14600251 0 0 Z " fill="#FFDDCE" transform="translate(391.375,270.5625)"/>
<path d="M0 0 C0.9182959 0.00829834 1.8365918 0.01659668 2.78271484 0.02514648 C16.58997071 0.36782789 27.75459629 5.76362657 37.875 15.125 C48.51446692 26.44172252 52.15147687 39.17654884 52.04492188 54.30883789 C51.62600368 67.8632583 46.56551266 79.37253065 37.25 89.25 C25.40732043 100.25053346 11.92736164 103.98057427 -3.9375 103.71875 C-18.362399 103.09912375 -30.68456551 95.73759759 -40.375 85.4375 C-50.53351639 72.68119507 -52.96806244 58.30537793 -51.375 42.4375 C-49.13447802 29.81633477 -42.36728783 18.48920723 -32.375 10.4375 C-22.1411159 3.40258935 -12.4228596 -0.14600251 0 0 Z " fill="#FEBEAA" transform="translate(120.375,270.5625)"/>
<path d="M0 0 C2.80969467 1.28022875 4.8539238 2.60714129 7.02441406 4.79736328 C7.86483246 5.63800827 7.86483246 5.63800827 8.722229 6.49563599 C9.31404968 7.09777924 9.90587036 7.69992249 10.515625 8.3203125 C11.13145447 8.93897186 11.74728394 9.55763123 12.3817749 10.19503784 C14.34260336 12.16703814 16.29635301 14.14588737 18.25 16.125 C19.58026799 17.46530164 20.910992 18.80515083 22.2421875 20.14453125 C25.5001015 23.42446589 28.75168533 26.71055942 32 30 C36.50454825 26.22875755 40.80193876 22.3393403 44.93359375 18.1640625 C45.4563942 17.63984711 45.97919464 17.11563171 46.51783752 16.57553101 C48.16012345 14.9277213 49.7988665 13.27644099 51.4375 11.625 C52.56161467 10.49586045 53.68596174 9.36695222 54.81054688 8.23828125 C57.54305235 5.49484812 60.27239009 2.74830015 63 0 C66.46629835 1.48653506 68.69022036 3.45722351 71.328125 6.1328125 C72.12734375 6.93847656 72.9265625 7.74414062 73.75 8.57421875 C74.575 9.41597656 75.4 10.25773437 76.25 11.125 C77.09046875 11.97449219 77.9309375 12.82398437 78.796875 13.69921875 C80.86915683 15.79504923 82.93662393 17.89540713 85 20 C83.71977125 22.80969467 82.39285871 24.8539238 80.20263672 27.02441406 C79.64220673 27.58469299 79.08177673 28.14497192 78.50436401 28.722229 C77.90222076 29.31404968 77.30007751 29.90587036 76.6796875 30.515625 C76.06102814 31.13145447 75.44236877 31.74728394 74.80496216 32.3817749 C72.83296186 34.34260336 70.85411263 36.29635301 68.875 38.25 C67.53469836 39.58026799 66.19484917 40.910992 64.85546875 42.2421875 C61.57553411 45.5001015 58.28944058 48.75168533 55 52 C58.77124245 56.50454825 62.6606597 60.80193876 66.8359375 64.93359375 C67.36015289 65.4563942 67.88436829 65.97919464 68.42446899 66.51783752 C70.0722787 68.16012345 71.72355901 69.7988665 73.375 71.4375 C74.50413955 72.56161467 75.63304778 73.68596174 76.76171875 74.81054688 C79.50515188 77.54305235 82.25169985 80.27239009 85 83 C83.51346494 86.46629835 81.54277649 88.69022036 78.8671875 91.328125 C78.06152344 92.12734375 77.25585938 92.9265625 76.42578125 93.75 C75.58402344 94.575 74.74226563 95.4 73.875 96.25 C73.02550781 97.09046875 72.17601562 97.9309375 71.30078125 98.796875 C69.20495077 100.86915683 67.10459287 102.93662393 65 105 C62.19030533 103.71977125 60.1460762 102.39285871 57.97558594 100.20263672 C57.41530701 99.64220673 56.85502808 99.08177673 56.277771 98.50436401 C55.68595032 97.90222076 55.09412964 97.30007751 54.484375 96.6796875 C53.86854553 96.06102814 53.25271606 95.44236877 52.6182251 94.80496216 C50.65739664 92.83296186 48.70364699 90.85411263 46.75 88.875 C45.41973201 87.53469836 44.089008 86.19484917 42.7578125 84.85546875 C39.4998985 81.57553411 36.24831467 78.28944058 33 75 C28.49545175 78.77124245 24.19806124 82.6606597 20.06640625 86.8359375 C19.5436058 87.36015289 19.02080536 87.88436829 18.48216248 88.42446899 C16.83987655 90.0722787 15.2011335 91.72355901 13.5625 93.375 C12.43838533 94.50413955 11.31403826 95.63304778 10.18945312 96.76171875 C7.45694765 99.50515188 4.72760991 102.25169985 2 105 C-1.46629835 103.51346494 -3.69022036 101.54277649 -6.328125 98.8671875 C-7.12734375 98.06152344 -7.9265625 97.25585938 -8.75 96.42578125 C-9.575 95.58402344 -10.4 94.74226563 -11.25 93.875 C-12.09046875 93.02550781 -12.9309375 92.17601562 -13.796875 91.30078125 C-15.86915683 89.20495077 -17.93662393 87.10459287 -20 85 C-18.71977125 82.19030533 -17.39285871 80.1460762 -15.20263672 77.97558594 C-14.64220673 77.41530701 -14.08177673 76.85502808 -13.50436401 76.277771 C-12.90222076 75.68595032 -12.30007751 75.09412964 -11.6796875 74.484375 C-11.06102814 73.86854553 -10.44236877 73.25271606 -9.80496216 72.6182251 C-7.83296186 70.65739664 -5.85411263 68.70364699 -3.875 66.75 C-2.53469836 65.41973201 -1.19484917 64.089008 0.14453125 62.7578125 C3.42446589 59.4998985 6.71055942 56.24831467 10 53 C6.22875755 48.49545175 2.3393403 44.19806124 -1.8359375 40.06640625 C-2.62226059 39.28220558 -2.62226059 39.28220558 -3.42446899 38.48216248 C-5.0722787 36.83987655 -6.72355901 35.2011335 -8.375 33.5625 C-9.50413955 32.43838533 -10.63304778 31.31403826 -11.76171875 30.18945312 C-14.50515188 27.45694765 -17.25169985 24.72760991 -20 22 C-18.51346494 18.53370165 -16.54277649 16.30977964 -13.8671875 13.671875 C-12.65869141 12.47304687 -12.65869141 12.47304687 -11.42578125 11.25 C-10.58402344 10.425 -9.74226563 9.6 -8.875 8.75 C-8.02550781 7.90953125 -7.17601562 7.0690625 -6.30078125 6.203125 C-4.20495077 4.13084317 -2.10459287 2.06337607 0 0 Z " fill="#FEF3F3" transform="translate(359,68)"/>
<path d="M0 0 C15.01761669 0 26.17637362 4.4443956 37.25 14.6875 C47.88946692 26.00422252 51.52647687 38.73904884 51.41992188 53.87133789 C51.00100368 67.4257583 45.94051266 78.93503065 36.625 88.8125 C26.08138297 98.60634871 14.29862269 103 0 103 C0 69.01 0 35.02 0 0 Z " fill="#FFBDA9" transform="translate(392,271)"/>
<path d="M0 0 C0 33.66 0 67.32 0 102 C-12.33452985 103.54181623 -22.73525588 99.55803453 -32.52734375 92.06640625 C-42.78364583 83.41409728 -49.86102141 72.34492462 -51.22314453 58.77734375 C-52.31164732 42.20753326 -48.83771907 28.82286547 -38.19140625 15.78515625 C-27.72500681 4.44837016 -15.14698987 0 0 0 Z " fill="#FEDDCF" transform="translate(120,271)"/>
<path d="M0 0 C3.68458983 3.11772677 7.34675126 6.21672032 10.74609375 9.6484375 C11.6597168 10.56689453 11.6597168 10.56689453 12.59179688 11.50390625 C13.20087891 12.12136719 13.80996094 12.73882812 14.4375 13.375 C15.07365234 14.01566406 15.70980469 14.65632813 16.36523438 15.31640625 C17.91250332 16.87530879 19.45736492 18.43651416 21 20 C19.3255737 24.36769886 16.06484147 27.20122277 12.80615234 30.42089844 C12.1718782 31.05546463 11.53760406 31.69003082 10.8841095 32.34382629 C8.78942522 34.43711882 6.68774898 36.5232408 4.5859375 38.609375 C3.1310443 40.06053753 1.67659244 41.51214267 0.2225647 42.96417236 C-3.60350926 46.78261418 -7.43555162 50.59501149 -11.26885986 54.40618896 C-15.18025204 58.29711379 -19.08598085 62.19371428 -22.9921875 66.08984375 C-30.65592027 73.73213399 -38.32596905 81.36805174 -46 89 C-49.53239023 87.49315032 -51.7962166 85.44633388 -54.49316406 82.73388672 C-55.37377502 81.85312469 -56.25438599 80.97236267 -57.16168213 80.06491089 C-58.11310431 79.10327649 -59.06441603 78.1415328 -60.015625 77.1796875 C-60.99596129 76.19561893 -61.97674168 75.21199258 -62.95794678 74.22879028 C-65.53354467 71.64557286 -68.10307857 69.05640488 -70.67138672 66.46594238 C-73.29551067 63.8213238 -75.92533771 61.1823899 -78.5546875 58.54296875 C-83.7087167 53.36751928 -88.85635157 48.18576878 -94 43 C-92.38223883 39.57517293 -90.57656756 37.34309478 -87.8671875 34.671875 C-87.06152344 33.87265625 -86.25585938 33.0734375 -85.42578125 32.25 C-84.58402344 31.425 -83.74226563 30.6 -82.875 29.75 C-82.02550781 28.90953125 -81.17601563 28.0690625 -80.30078125 27.203125 C-78.20495077 25.13084317 -76.10459287 23.06337607 -74 21 C-68.00499003 25.96194855 -62.53572963 31.3476624 -57.0625 36.875 C-56.18787109 37.75414062 -55.31324219 38.63328125 -54.41210938 39.5390625 C-52.27242952 41.6904346 -50.13513403 43.84411792 -48 46 C-44.46760977 44.49315032 -42.2037834 42.44633388 -39.50683594 39.73388672 C-38.62622498 38.85312469 -37.74561401 37.97236267 -36.83831787 37.06491089 C-35.88689569 36.10327649 -34.93558397 35.1415328 -33.984375 34.1796875 C-33.00403871 33.19561893 -32.02325832 32.21199258 -31.04205322 31.22879028 C-28.46645533 28.64557286 -25.89692143 26.05640488 -23.32861328 23.46594238 C-20.70448933 20.8213238 -18.07466229 18.1823899 -15.4453125 15.54296875 C-10.2912833 10.36751928 -5.14364843 5.18576878 0 0 Z " fill="#FEF4F4" transform="translate(157,81)"/>
<path d="M0 0 C3.46629835 1.48653506 5.69022036 3.45722351 8.328125 6.1328125 C9.12734375 6.93847656 9.9265625 7.74414062 10.75 8.57421875 C11.575 9.41597656 12.4 10.25773437 13.25 11.125 C14.09046875 11.97449219 14.9309375 12.82398437 15.796875 13.69921875 C17.86915683 15.79504923 19.93662393 17.89540713 22 20 C20.71977125 22.80969467 19.39285871 24.8539238 17.20263672 27.02441406 C16.64220673 27.58469299 16.08177673 28.14497192 15.50436401 28.722229 C14.90222076 29.31404968 14.30007751 29.90587036 13.6796875 30.515625 C13.06102814 31.13145447 12.44236877 31.74728394 11.80496216 32.3817749 C9.83296186 34.34260336 7.85411263 36.29635301 5.875 38.25 C4.53469836 39.58026799 3.19484917 40.910992 1.85546875 42.2421875 C-1.42446589 45.5001015 -4.71055942 48.75168533 -8 52 C-4.22875755 56.50454825 -0.3393403 60.80193876 3.8359375 64.93359375 C4.62226059 65.71779442 4.62226059 65.71779442 5.42446899 66.51783752 C7.0722787 68.16012345 8.72355901 69.7988665 10.375 71.4375 C11.50413955 72.56161467 12.63304778 73.68596174 13.76171875 74.81054688 C16.50515188 77.54305235 19.25169985 80.27239009 22 83 C20.51346494 86.46629835 18.54277649 88.69022036 15.8671875 91.328125 C15.06152344 92.12734375 14.25585938 92.9265625 13.42578125 93.75 C12.58402344 94.575 11.74226563 95.4 10.875 96.25 C10.02550781 97.09046875 9.17601562 97.9309375 8.30078125 98.796875 C6.20495077 100.86915683 4.10459287 102.93662393 2 105 C-10.83210434 99.35489547 -25.64296049 85.41809719 -31.05419922 72.47930908 C-35.25821977 59.57423082 -36.05300025 43.76200408 -31 31 C-23.80687949 18.25295754 -11.53732421 8.65816088 0 0 Z " fill="#E6E9F0" transform="translate(422,68)"/>
<path d="M0 0 C3.68458983 3.11772677 7.34675126 6.21672032 10.74609375 9.6484375 C11.35517578 10.26074219 11.96425781 10.87304688 12.59179688 11.50390625 C13.20087891 12.12136719 13.80996094 12.73882812 14.4375 13.375 C15.07365234 14.01566406 15.70980469 14.65632813 16.36523438 15.31640625 C17.91250332 16.87530879 19.45736492 18.43651416 21 20 C19.41603239 23.8881769 16.76614842 26.51000485 13.83178711 29.41113281 C13.30640854 29.93840973 12.78102997 30.46568665 12.23973083 31.00894165 C10.50711218 32.74525627 8.76741446 34.47428115 7.02734375 36.203125 C5.82153995 37.40773659 4.61610568 38.6127182 3.411026 39.8180542 C0.88802066 42.33949689 -1.63830548 44.85754759 -4.16723633 47.37304688 C-7.41644758 50.60522305 -10.65899129 53.8439889 -13.89931583 57.08507156 C-16.38590686 59.57139142 -18.87508969 62.05510228 -21.36517143 64.53792572 C-22.56233407 65.73189665 -23.7588836 66.92648265 -24.95482063 68.12168121 C-26.62110309 69.78580799 -28.29062845 71.44660729 -29.96118164 73.10644531 C-30.45938416 73.60510101 -30.95758667 74.10375671 -31.47088623 74.61752319 C-34.8855225 78 -34.8855225 78 -36 78 C-38.89959273 64.43416 -42.6449616 46.86390429 -35.39135742 34.18908691 C-25.89470518 20.9089149 -12.6771566 10.13862785 0 0 Z " fill="#E5EBF1" transform="translate(157,81)"/>
</svg>
