<?xml version="1.0" encoding="UTF-8"?>
<svg version="1.1" xmlns="http://www.w3.org/2000/svg" width="512" height="512">
<path d="M0 0 C2.93369451 2.78686271 3.92270032 4.46112006 4.50139666 8.49539095 C4.52243311 9.8688548 4.52158139 11.24276116 4.50336456 12.6162653 C4.50917833 13.37891592 4.51499209 14.14156654 4.52098203 14.92732778 C4.53562109 17.49191522 4.52167904 20.05555143 4.50793457 22.62013245 C4.51254194 24.47363731 4.51889375 26.32713852 4.52684355 28.18063205 C4.54358234 33.28101851 4.53526985 38.38110661 4.52289867 43.48149431 C4.51386917 48.97916931 4.52780742 54.47679207 4.53881836 59.97445679 C4.55663027 70.74689342 4.55275179 81.51921874 4.5411678 92.29165978 C4.53214473 101.04390023 4.53090459 109.79610943 4.53526306 118.5483532 C4.53587599 119.79265805 4.53648893 121.03696291 4.53712043 122.31897397 C4.53839929 124.84651638 4.53969615 127.37405879 4.5410108 129.90160119 C4.55209876 152.94075184 4.54058861 175.97984984 4.51964041 199.01898771 C4.50065526 220.05915913 4.50235807 241.09923372 4.52148438 262.1394043 C4.54289361 285.7700135 4.55132792 309.40058005 4.53903532 333.03120083 C4.53776108 335.54928807 4.5365036 338.06737531 4.53526306 340.58546257 C4.53433741 342.44403415 4.53433741 342.44403415 4.53339306 344.34015264 C4.5299345 353.08576053 4.53577934 361.83133414 4.54518127 370.57693672 C4.55638099 381.22926723 4.55340386 391.8814798 4.5320583 402.53379674 C4.52152091 407.97223369 4.51747178 413.41047373 4.53065491 418.84890938 C4.54252892 423.8223775 4.53609909 428.79546524 4.5147447 433.7688986 C4.5102574 435.57297681 4.51259222 437.37708683 4.52224785 439.18114478 C4.53432679 441.62441881 4.52202492 444.06637203 4.50336456 446.50957584 C4.51272923 447.21798965 4.52209389 447.92640347 4.53174233 448.65628436 C4.47965673 452.04391629 4.20885216 453.73291675 2.09443432 456.43686581 C-0.25130531 458.1875561 -1.29263388 458.50036004 -4.18128967 458.50120544 C-5.00703995 458.51103958 -5.83279022 458.52087372 -6.68356323 458.53100586 C-7.58084137 458.52133789 -8.47811951 458.51166992 -9.40258789 458.50170898 C-10.35420303 458.50711197 -11.30581818 458.51251495 -12.28627014 458.51808167 C-15.43204844 458.53059004 -18.5769154 458.51406478 -21.72265625 458.49609375 C-23.90693713 458.49624868 -26.0912183 458.49773658 -28.27549744 458.50050354 C-32.85281529 458.50188844 -37.42982014 458.48931296 -42.00708008 458.46655273 C-47.88088524 458.43815129 -53.75417086 458.44090888 -59.62801456 458.45364285 C-64.13781694 458.46058962 -68.64749871 458.45282245 -73.15728569 458.44038582 C-75.32347591 458.43586276 -77.48967903 458.43554194 -79.65587044 458.43945122 C-82.679787 458.44235401 -85.70298123 458.42590144 -88.72680664 458.40405273 C-89.62610901 458.40855438 -90.52541138 458.41305603 -91.45196533 458.41769409 C-92.27489578 458.40778946 -93.09782623 458.39788483 -93.94569397 458.38768005 C-94.66041902 458.38525016 -95.37514406 458.38282026 -96.11152744 458.38031673 C-98.56346068 457.88652548 -99.43695779 456.91128244 -101 455 C-102.52106634 451.95786733 -102.37429338 448.71952428 -102.5625 445.375 C-102.60568359 444.66859375 -102.64886719 443.9621875 -102.69335938 443.234375 C-102.79944751 441.48981463 -102.90022889 439.74493303 -103 438 C-103.96486328 439.10794922 -103.96486328 439.10794922 -104.94921875 440.23828125 C-128.06102299 466.36768909 -160.07877046 484.05365615 -195 488 C-200.66961962 488.31826338 -206.32248766 488.39005306 -212 488.375 C-213.15869095 488.37418427 -213.15869095 488.37418427 -214.34078979 488.37335205 C-226.63588325 488.33360687 -238.13948648 487.4519405 -250 484 C-250.7331543 483.80164551 -251.46630859 483.60329102 -252.22167969 483.39892578 C-279.02017406 476.05359054 -304.49009783 459.64287007 -322 438 C-322.07347656 439.55460938 -322.07347656 439.55460938 -322.1484375 441.140625 C-322.22349597 442.51044208 -322.29904247 443.88023248 -322.375 445.25 C-322.4059375 445.93191406 -322.436875 446.61382812 -322.46875 447.31640625 C-322.68096581 450.95944435 -322.89978534 453.94788949 -325 457 C-328.43726057 458.71863029 -332.39266891 458.14715909 -336.17553711 458.14526367 C-337.60252174 458.15030159 -337.60252174 458.15030159 -339.05833435 458.15544128 C-342.21468396 458.16496902 -345.37098064 458.16689528 -348.52734375 458.16796875 C-350.71448285 458.17117993 -352.90162173 458.1745439 -355.08876038 458.17805481 C-359.67791238 458.18405056 -364.26704553 458.18589424 -368.85620117 458.18530273 C-374.74564718 458.18520106 -380.63497277 458.19885707 -386.52439022 458.21607494 C-391.04273538 458.22717607 -395.56105124 458.22922253 -400.07940865 458.22869301 C-402.25118996 458.22987583 -404.42297197 458.23431444 -406.59473991 458.24202538 C-409.62826933 458.2517877 -412.66153499 458.24896215 -415.69506836 458.24291992 C-416.59751282 458.24853943 -417.49995728 458.25415894 -418.42974854 458.25994873 C-419.25556931 458.25575424 -420.08139008 458.25155975 -420.93223572 458.24723816 C-421.6495584 458.24778293 -422.36688108 458.24832769 -423.10594082 458.24888897 C-425 458 -425 458 -428 456 C-429.34833824 451.95498527 -429.1515524 448.04607005 -429.15390015 443.82730103 C-429.1582824 442.87679788 -429.16266465 441.92629473 -429.1671797 440.94698846 C-429.18058124 437.74802289 -429.18674956 434.54908487 -429.19287109 431.35009766 C-429.20077082 429.06222916 -429.20903969 426.7743619 -429.21765137 424.48649597 C-429.24388051 416.96236361 -429.2591772 409.43822564 -429.2734375 401.9140625 C-429.2787963 399.32659272 -429.28417381 396.73912299 -429.28956985 394.15165329 C-429.31119747 383.39256776 -429.33008748 372.63348547 -429.34119225 361.87438393 C-429.34412195 359.08292257 -429.34708361 356.29146126 -429.35009766 353.5 C-429.35084371 352.80619481 -429.35158976 352.11238963 -429.35235842 351.39756005 C-429.36501838 340.15252858 -429.39825125 328.907655 -429.43989949 317.66269739 C-429.48230231 306.1194931 -429.5054774 294.57639425 -429.51111281 283.03311002 C-429.51477304 276.55116081 -429.52686639 270.06947942 -429.55921555 263.58760452 C-429.58919973 257.49234344 -429.59564233 251.39751361 -429.58383179 245.3021946 C-429.58361026 243.06282128 -429.59198005 240.82342851 -429.60948563 238.58412361 C-429.63205698 235.53111329 -429.62393774 232.47968283 -429.60800171 229.42666626 C-429.6218838 228.53668587 -429.63576588 227.64670549 -429.65006864 226.729756 C-429.59336746 222.33321047 -429.4535802 220.5699804 -426.63035011 217.02223778 C-423.95583678 214.9660469 -421.31500479 213.2223486 -418.37109375 211.57421875 C-417.26805908 210.9507959 -416.16502441 210.32737305 -415.02856445 209.68505859 C-413.83159394 209.01911411 -412.63457102 208.35326381 -411.4375 207.6875 C-410.18595896 206.9834427 -408.93490952 206.27851091 -407.68432617 205.57275391 C-405.08598999 204.10720683 -402.48558001 202.64543925 -399.88378906 201.18603516 C-396.1798227 199.10519276 -392.48970942 197.00089535 -388.8046875 194.88671875 C-388.22376846 194.55347595 -387.64284943 194.22023315 -387.04432678 193.87689209 C-385.87949975 193.20854056 -384.71470971 192.54012458 -383.54995728 191.87164307 C-372.79865088 185.70446122 -362.00673189 179.61380963 -351.16723633 173.60302734 C-346.24917023 170.8661246 -341.4320837 168.08337693 -336.76953125 164.92675781 C-333.36028698 163.14123198 -330.77313958 163.43402906 -327 164 C-324.79974365 165.519104 -324.79974365 165.519104 -323 168 C-322.59719917 170.87787291 -322.43554957 173.37860336 -322.45410156 176.25683594 C-322.44376389 177.08647354 -322.43342621 177.91611115 -322.42277527 178.77088928 C-322.39331372 181.50891519 -322.39184741 184.24620295 -322.390625 186.984375 C-322.3756456 188.88439344 -322.35891895 190.78439885 -322.34051514 192.68438721 C-322.29680245 197.68207391 -322.27683383 202.67958495 -322.26177979 207.6774292 C-322.24222284 212.77854821 -322.20025125 217.87947714 -322.16015625 222.98046875 C-322.08481168 232.98692059 -322.03454591 242.99332997 -322 253 C-321.52462296 252.51644043 -321.04924591 252.03288086 -320.5594635 251.53466797 C-318.36813428 249.31052223 -316.17045786 247.0927495 -313.97265625 244.875 C-313.22520142 244.11445313 -312.47774658 243.35390625 -311.7076416 242.5703125 C-302.65430656 233.4555906 -292.74026257 226.38372147 -281.625 220 C-280.9952124 219.63777344 -280.3654248 219.27554688 -279.71655273 218.90234375 C-276.31440561 217.02824569 -272.95700999 215.58331449 -269.25927734 214.3828125 C-268.45871918 214.12129395 -267.65816101 213.85977539 -266.83334351 213.59033203 C-266.22834015 213.39552246 -265.62333679 213.20071289 -265 213 C-265.01776489 212.06118988 -265.03552979 211.12237976 -265.05383301 210.15512085 C-265.21616199 201.29815162 -265.3360022 192.44148493 -265.41449738 183.58336449 C-265.45621099 179.02939125 -265.51276477 174.47662079 -265.60351562 169.92333984 C-265.69058514 165.52713884 -265.73830293 161.13209278 -265.75901794 156.73509598 C-265.77377491 155.05963584 -265.80259454 153.38423742 -265.84584045 151.70927048 C-266.16988884 138.63585408 -266.16988884 138.63585408 -263.37121582 134.72247314 C-261.31268633 133.13238049 -259.37160972 132.05455426 -257 131 C-256.00806641 130.39414063 -255.01613281 129.78828125 -253.99414062 129.1640625 C-253.05763672 128.65617188 -252.12113281 128.14828125 -251.15625 127.625 C-249.55305908 126.74702759 -249.55305908 126.74702759 -247.91748047 125.85131836 C-246.78971191 125.2403833 -245.66194336 124.62944824 -244.5 124 C-242.07324862 122.67208835 -239.64957006 121.33863491 -237.2265625 120.00390625 C-236.31222946 119.5008773 -236.31222946 119.5008773 -235.37942505 118.98768616 C-229.48665288 115.73614094 -223.67483893 112.35178863 -217.875 108.9375 C-208.50310833 103.42554366 -199.05479235 98.06570483 -189.54638672 92.79272461 C-184.00446523 89.71301148 -178.56026425 86.54631671 -173.2121582 83.13891602 C-169.54867396 81.25279373 -167.04465202 81.36137073 -163 82 C-161.29989147 83.20889759 -161.29989147 83.20889759 -160 85 C-159.63085651 87.36816692 -159.63085651 87.36816692 -159.63923645 90.22013855 C-159.63305046 91.84184212 -159.63305046 91.84184212 -159.6267395 93.49630737 C-159.63752533 94.68241608 -159.64831116 95.86852478 -159.65942383 97.09057617 C-159.65898575 98.33947128 -159.65854767 99.58836639 -159.65809631 100.87510681 C-159.6598297 104.3006519 -159.67488682 107.72565628 -159.69581819 111.15110564 C-159.71455725 114.7305478 -159.71633323 118.30999696 -159.71989441 121.88948059 C-159.72922305 128.66806643 -159.75384782 135.44650731 -159.78394288 142.22502929 C-159.81746148 149.94198115 -159.83396649 157.65893989 -159.84902918 165.3759464 C-159.88039674 181.25071492 -159.93317304 197.12533877 -160 213 C-159.39622025 213.19399384 -158.79244049 213.38798767 -158.17036438 213.58786011 C-157.3707579 213.8487442 -156.57115143 214.1096283 -155.74731445 214.37841797 C-154.9579097 214.6342868 -154.16850494 214.89015564 -153.35517883 215.15377808 C-149.75229786 216.44830265 -146.4973297 218.21749945 -143.1875 220.125 C-142.50026855 220.51751953 -141.81303711 220.91003906 -141.10498047 221.31445312 C-128.57918729 228.61510135 -117.89574392 238.04229375 -107.6953125 248.28515625 C-106.81117676 249.17211182 -105.92704102 250.05906738 -105.01611328 250.97290039 C-104.3507959 251.64184326 -103.68547852 252.31078613 -103 253 C-102.99668985 251.99355564 -102.99337971 250.98711128 -102.98996925 249.95016861 C-102.90903697 225.48058496 -102.81674049 201.0110644 -102.71247292 176.54156876 C-102.66231437 164.70838976 -102.61587184 152.87521782 -102.578125 141.04199219 C-102.54522211 130.73022792 -102.50540034 120.41851777 -102.45720994 110.10681319 C-102.43192803 104.6449848 -102.41015173 99.18319239 -102.39665604 93.72132111 C-102.38385107 88.58318825 -102.36181355 83.44517871 -102.33261681 78.30711365 C-102.32352879 76.41889018 -102.31784795 74.53064686 -102.31578636 72.64240265 C-102.31247247 70.06877285 -102.2970188 67.49549451 -102.2784729 64.92193604 C-102.28040763 64.17096153 -102.28234237 63.41998703 -102.28433573 62.64625573 C-102.24450443 58.96105058 -102.14695967 56.07635164 -100 53 C-97.85888672 51.48291016 -97.85888672 51.48291016 -95.1796875 50.0390625 C-94.18195313 49.4925 -93.18421875 48.9459375 -92.15625 48.3828125 C-91.0734375 47.80273438 -89.990625 47.22265625 -88.875 46.625 C-86.57965193 45.36915439 -84.28540702 44.11129071 -81.9921875 42.8515625 C-81.40669128 42.53133118 -80.82119507 42.21109985 -80.21795654 41.88116455 C-74.41228293 38.69890655 -68.70329066 35.36116463 -63 32 C-53.74858357 26.56619302 -44.42751511 21.27120693 -35.04345703 16.06982422 C-30.13305846 13.3423429 -25.25752799 10.58010015 -20.44921875 7.67578125 C-19.58852783 7.15975342 -18.72783691 6.64372559 -17.84106445 6.11206055 C-16.25220342 5.15396209 -14.67061888 4.18363819 -13.09838867 3.19848633 C-8.64218206 0.52069044 -5.3431345 -0.99617762 0 0 Z " fill="#030201" transform="translate(484,15)"/>
<path d="M0 0 C2.08196732 0.0160845 4.1619871 0.00003692 6.24389648 -0.01904297 C19.68024396 -0.04184069 32.48058399 2.20339095 45.21069336 6.57861328 C46.09635986 6.88049561 46.98202637 7.18237793 47.89453125 7.4934082 C80.93034882 19.15082334 105.68593883 44.4471299 120.83569336 75.57861328 C134.8487225 105.53353576 135.27202856 139.97232712 124.50708008 170.9699707 C112.13207727 204.41870584 88.03161873 230.25848572 55.86694336 245.53564453 C44.97855541 250.46976572 33.54392268 254.05782193 21.64819336 255.39111328 C20.85541992 255.50068359 20.06264648 255.61025391 19.24584961 255.72314453 C5.52576658 257.34874679 -9.91832627 257.84069836 -23.35180664 254.39111328 C-24.42930176 254.11654297 -24.42930176 254.11654297 -25.52856445 253.83642578 C-59.58654897 244.94815596 -89.49442952 224.16433164 -107.53930664 193.57861328 C-125.2235443 161.99740528 -130.09632116 127.41231779 -120.53540039 92.35986328 C-111.05735368 59.5986149 -88.6106484 32.54501836 -59.35180664 15.39111328 C-40.8577901 5.32243255 -21.06113174 -0.19242922 0 0 Z " fill="#F3B744" transform="translate(268.351806640625,232.60888671875)"/>
<path d="M0 0 C0 139.92 0 279.84 0 424 C-25.08 424 -50.16 424 -76 424 C-76 388.45416667 -76 388.45416667 -69 376 C-55.50665039 344.09996153 -57.542015 307.78971973 -68.49609375 275.57421875 C-69.82217769 272.13704834 -69.82217769 272.13704834 -71.43039799 269.77081108 C-77.42299296 259.84566993 -76.86980996 250.09120294 -76.82397461 238.81298828 C-76.83703438 236.68303325 -76.85258996 234.55309229 -76.87043762 232.423172 C-76.91042447 226.66937053 -76.91236605 220.91616231 -76.90474772 215.16224909 C-76.90152908 210.35305432 -76.91621129 205.54397807 -76.93056399 200.7348088 C-76.96377944 189.39375282 -76.96519706 178.05299507 -76.94702148 166.71191406 C-76.9288635 155.01433936 -76.96594688 143.31784366 -77.02973169 131.620453 C-77.08254127 121.56577793 -77.10059128 111.5114469 -77.09081846 101.45663822 C-77.08537788 95.4558305 -77.09330888 89.45579441 -77.13496208 83.45511246 C-77.17262835 77.81891569 -77.16693632 72.18440889 -77.12772942 66.54823875 C-77.12062022 64.48021949 -77.12887989 62.41208198 -77.15359879 60.34419823 C-77.32722432 44.69200898 -77.32722432 44.69200898 -74.01534557 40.46986771 C-71.69680283 38.89022901 -69.64439571 37.90269135 -67 37 C-66.12206787 36.48501953 -65.24413574 35.97003906 -64.33959961 35.43945312 C-63.61780518 35.05724609 -62.89601074 34.67503906 -62.15234375 34.28125 C-61.31227783 33.83128662 -60.47221191 33.38132324 -59.60668945 32.91772461 C-58.28544067 32.21595093 -58.28544067 32.21595093 -56.9375 31.5 C-48.80754276 27.12403751 -40.77750688 22.60697327 -32.8125 17.9375 C-31.81903564 17.35532715 -30.82557129 16.7731543 -29.80200195 16.17333984 C-26.86686908 14.45081126 -23.93318639 12.72584071 -21 11 C-17.37828598 8.86932649 -13.75316875 6.7446603 -10.125 4.625 C-9.32811768 4.15441162 -8.53123535 3.68382324 -7.71020508 3.19897461 C-2.22703009 0 -2.22703009 0 0 0 Z " fill="#C5E993" transform="translate(473,35)"/>
<path d="M0 0 C0.16293619 12.2575833 0.28694564 24.5149046 0.3626852 36.77335453 C0.39905585 42.46688944 0.44830802 48.15967781 0.52807617 53.8527832 C0.60471597 59.35771854 0.64611153 64.8619406 0.6641407 70.3673687 C0.67697151 72.45677338 0.70202474 74.54614361 0.7401104 76.63524055 C0.97545759 90.09259265 -0.36441839 99.21216769 -7 111 C-8.12485913 113.96375598 -9.01149626 116.9350272 -9.8125 120 C-10.00263672 120.68449219 -10.19277344 121.36898437 -10.38867188 122.07421875 C-10.75956677 123.41249929 -11.12474758 124.75238042 -11.48339844 126.09399414 C-11.98474008 127.94369841 -12.52500673 129.78271515 -13.06640625 131.62109375 C-17.43087725 147.41719174 -17.45678811 165.84844254 -15 182 C-14.83886719 183.0828125 -14.67773438 184.165625 -14.51171875 185.28125 C-11.89320281 200.31763603 -6.29843918 214.14343381 0 228 C0 238.56 0 249.12 0 260 C-25.08 260 -50.16 260 -76 260 C-76 188.06 -76 116.12 -76 42 C-63.625 35.07 -63.625 35.07 -51 28 C-41.64526228 22.67844261 -32.30567577 17.33280514 -22.984375 11.953125 C-22.38813828 11.60902084 -21.79190155 11.26491669 -21.17759705 10.91038513 C-18.23493628 9.2117785 -15.29296705 7.51199554 -12.35180664 5.81079102 C-11.29340576 5.19905029 -10.23500488 4.58730957 -9.14453125 3.95703125 C-8.19940674 3.41022705 -7.25428223 2.86342285 -6.28051758 2.30004883 C-2.2458216 0 -2.2458216 0 0 0 Z " fill="#F66B81" transform="translate(146,199)"/>
<path d="M0 0 C2.08196732 0.0160845 4.1619871 0.00003692 6.24389648 -0.01904297 C19.68024396 -0.04184069 32.48058399 2.20339095 45.21069336 6.57861328 C46.09635986 6.88049561 46.98202637 7.18237793 47.89453125 7.4934082 C80.93034882 19.15082334 105.68593883 44.4471299 120.83569336 75.57861328 C134.8487225 105.53353576 135.27202856 139.97232712 124.50708008 170.9699707 C112.13207727 204.41870584 88.03161873 230.25848572 55.86694336 245.53564453 C44.97855541 250.46976572 33.54392268 254.05782193 21.64819336 255.39111328 C20.85541992 255.50068359 20.06264648 255.61025391 19.24584961 255.72314453 C5.52576658 257.34874679 -9.91832627 257.84069836 -23.35180664 254.39111328 C-24.42930176 254.11654297 -24.42930176 254.11654297 -25.52856445 253.83642578 C-59.58654897 244.94815596 -89.49442952 224.16433164 -107.53930664 193.57861328 C-125.2235443 161.99740528 -130.09632116 127.41231779 -120.53540039 92.35986328 C-111.05735368 59.5986149 -88.6106484 32.54501836 -59.35180664 15.39111328 C-40.8577901 5.32243255 -21.06113174 -0.19242922 0 0 Z M-24.35180664 22.39111328 C-25.43848633 22.65794922 -26.52516602 22.92478516 -27.64477539 23.19970703 C-53.60652346 30.31468062 -76.65110939 48.32739126 -90.35180664 71.39111328 C-104.49896105 96.30044086 -110.45642509 125.9001518 -103.28930664 154.14111328 C-95.03933095 183.74853056 -76.51790591 208.54426146 -49.86987305 223.95849609 C-25.33546928 237.54288912 3.80498373 241.48917318 30.81176758 233.77294922 C59.20530599 225.38131193 83.57908403 208.32819763 98.2409668 182.2824707 C107.51773712 165.11653135 112.08199494 148.41664566 112.02319336 128.89111328 C112.02187912 127.82763672 112.02187912 127.82763672 112.02053833 126.74267578 C111.89813027 96.70738015 100.71483476 71.66574691 79.64819336 50.39111328 C79.03331055 49.71564453 78.41842773 49.04017578 77.78491211 48.34423828 C62.85742072 32.19439648 36.79073556 20.53333169 14.94775391 19.22998047 C1.5044075 19.03617814 -11.28554399 18.97287243 -24.35180664 22.39111328 Z " fill="#F9CA54" transform="translate(268.351806640625,232.60888671875)"/>
<path d="M0 0 C21.17561518 18.5684073 36.65133596 43.54252501 38.90698242 72.15551758 C39.03752635 76.15861598 39.07602551 80.15194397 39.0390625 84.15625 C39.03450043 85.20907669 39.03450043 85.20907669 39.02984619 86.28317261 C38.96252299 96.79531622 38.29799368 106.34349266 34.6015625 116.28125 C34.17746094 117.50714844 33.75335938 118.73304688 33.31640625 119.99609375 C22.88125763 148.88654807 2.41991897 170.69286795 -25.21484375 183.94140625 C-52.84334637 195.56910735 -80.17386623 196.03974538 -108.3984375 186.28125 C-109.2234375 186.00796875 -110.0484375 185.7346875 -110.8984375 185.453125 C-136.961315 176.02247853 -157.43318488 154.25570905 -169.19042969 129.68945312 C-180.4550577 104.89990098 -182.7412373 75.36264491 -173.7734375 49.40625 C-173.51401367 48.64868408 -173.25458984 47.89111816 -172.98730469 47.1105957 C-165.12461818 25.03547967 -149.52843039 4.54332531 -129.3984375 -7.71875 C-128.31820312 -8.38519531 -127.23796875 -9.05164063 -126.125 -9.73828125 C-86.44100162 -33.63068575 -35.56426413 -29.35463071 0 0 Z M-132.3984375 12.28125 C-133.3678125 13.04953125 -134.3371875 13.8178125 -135.3359375 14.609375 C-138.62645824 17.35121533 -141.22687182 20.46080891 -143.8359375 23.84375 C-144.31111816 24.45726318 -144.78629883 25.07077637 -145.27587891 25.70288086 C-159.10098737 43.86973954 -164.58615124 62.97526096 -164.7734375 85.53125 C-164.78737549 86.60785889 -164.80131348 87.68446777 -164.81567383 88.79370117 C-164.67306182 112.99884901 -152.86729384 135.95736979 -136.0625 152.8359375 C-120.23584851 168.05998777 -98.5069225 178.43483021 -76.3984375 179.28125 C-75.40199219 179.34441406 -74.40554688 179.40757812 -73.37890625 179.47265625 C-47.70555907 180.3991682 -23.34085023 170.23626205 -4.3984375 153.28125 C-3.77710938 152.74242187 -3.15578125 152.20359375 -2.515625 151.6484375 C12.00387388 138.20945947 23.67418085 115.91783724 24.77856445 96.10595703 C25.58196669 74.28897299 25.58196669 74.28897299 20.6015625 53.28125 C20.36550293 52.64799805 20.12944336 52.01474609 19.88623047 51.36230469 C10.42454791 26.04574595 -7.94664431 8.34807709 -31.9140625 -3.44921875 C-65.19838651 -18.56149591 -105.07460383 -11.52612508 -132.3984375 12.28125 Z " fill="#040301" transform="translate(341.3984375,276.71875)"/>
<path d="M0 0 C3.48217354 0.52581596 6.89622826 1.26089932 10.328125 2.046875 C11.28015808 2.25934875 12.23219116 2.47182251 13.21307373 2.69073486 C15.21086609 3.13983127 17.20754526 3.59390613 19.203125 4.05273438 C22.2515999 4.75036613 25.30492431 5.42283019 28.359375 6.09375 C30.30763438 6.53494766 32.25556373 6.97760581 34.203125 7.421875 C35.11153137 7.61996765 36.01993774 7.8180603 36.95587158 8.02215576 C45.96318911 10.13682463 45.96318911 10.13682463 49 14 C50.22570261 20.35985172 48.39022118 26.93109252 46.91796875 33.109375 C46.59570061 34.50413055 46.59570061 34.50413055 46.266922 35.92706299 C45.81356391 37.87779897 45.35529572 39.82739979 44.89233398 41.77587891 C44.18692248 44.75243689 43.5016367 47.73313625 42.81835938 50.71484375 C42.37358744 52.61746645 41.92766363 54.51982033 41.48046875 56.421875 C41.17558784 57.75167389 41.17558784 57.75167389 40.86454773 59.1083374 C39.80221478 63.52522435 38.77110589 67.2978283 36 71 C32.95016004 72.52491998 30.3576631 72.23562548 27 72 C24.8395907 70.43302115 24.09896069 69.54517188 23.61914062 66.90185547 C23.71995961 60.35525433 24.82578591 54.44176452 26.5 48.125 C26.97275728 46.29530156 27.44166541 44.46460316 27.90625 42.6328125 C28.11572266 41.83762207 28.32519531 41.04243164 28.54101562 40.22314453 C29.13479536 37.72544129 29.13479536 37.72544129 29 34 C6.02432011 46.15755323 6.02432011 46.15755323 -16.83056641 58.54003906 C-24.19514872 62.57403667 -31.5943235 66.54214569 -39 70.5 C-47.3938177 74.98665331 -55.77498646 79.49469582 -64.125 84.0625 C-77.49040471 91.37393143 -90.91322597 98.57821114 -104.33203125 105.79101562 C-115.52913635 111.81061091 -126.72206242 117.83637997 -137.875 123.9375 C-146.82554059 128.83381741 -155.81347814 133.65871917 -164.81097412 138.46798706 C-172.55982496 142.61061675 -180.29273001 146.78044121 -188 151 C-196.9082839 155.87708718 -205.85482781 160.68089583 -214.81152344 165.46826172 C-223.4331296 170.07748708 -232.02929984 174.73058408 -240.60424805 179.42602539 C-249.49635981 184.28748218 -258.43240156 189.06648388 -267.37304688 193.83789062 C-268.49388672 194.43666016 -269.61472656 195.03542969 -270.76953125 195.65234375 C-271.8361499 196.22138428 -272.90276855 196.7904248 -274.00170898 197.37670898 C-277.41168809 199.22289016 -280.77700918 201.13928265 -284.12255859 203.09960938 C-287.236737 204.59311912 -289.64936171 204.59128911 -293 204 C-295.4375 202.375 -295.4375 202.375 -297 200 C-297.5625 197.0625 -297.5625 197.0625 -297 194 C-293.79064589 190.3375606 -290.59715626 187.96907382 -286.30078125 185.72265625 C-285.18719238 185.13395752 -284.07360352 184.54525879 -282.92626953 183.9387207 C-281.72170696 183.31326127 -280.5171164 182.68785576 -279.3125 182.0625 C-278.05790025 181.4022934 -276.80383919 180.74106219 -275.55029297 180.07885742 C-272.96948367 178.71629117 -270.38662719 177.35773158 -267.80224609 176.00195312 C-262.05370401 172.98129494 -256.3397509 169.89647332 -250.625 166.8125 C-249.01274536 165.94431641 -249.01274536 165.94431641 -247.36791992 165.05859375 C-239.71867152 160.9371287 -232.09016744 156.77860987 -224.46728516 152.60864258 C-216.40036026 148.20301708 -208.29705933 143.86609457 -200.19104004 139.53302002 C-192.40065785 135.36783125 -184.62515017 131.177154 -176.875 126.9375 C-165.71918689 120.83480694 -154.5232853 114.80767217 -143.32324219 108.78662109 C-137.8396156 105.83854738 -132.35708224 102.88844436 -126.875 99.9375 C-125.79766602 99.35758301 -124.72033203 98.77766602 -123.61035156 98.18017578 C-115.41378026 93.7659729 -107.22676015 89.33432634 -99.04296875 84.89648438 C-91.66155666 80.89539044 -84.26974934 76.91388069 -76.875 72.9375 C-68.94369957 68.67224629 -61.02529398 64.38490454 -53.125 60.0625 C-44.77501466 55.49463906 -36.39369902 50.98687714 -28 46.5 C-16.80791392 40.51715301 -5.65006287 34.47413938 5.48095703 28.37841797 C9.98461592 25.91402002 14.49248312 23.45733235 19 21 C17.75911621 20.72119995 17.75911621 20.72119995 16.49316406 20.43676758 C13.41058966 19.73451021 10.33267763 19.01507204 7.25683594 18.28393555 C5.92770732 17.97170351 4.59696288 17.6662653 3.26464844 17.36791992 C1.34414337 16.93659573 -0.57024749 16.47832985 -2.484375 16.01953125 C-3.63647461 15.75245361 -4.78857422 15.48537598 -5.97558594 15.21020508 C-9.58609057 13.76547861 -10.96957377 12.28306319 -13 9 C-12.93598623 5.79931162 -12.68970585 3.87666168 -10.69403076 1.34002686 C-7.54187672 -1.15341728 -3.83017185 -0.34839843 0 0 Z " fill="#000000" transform="translate(321,9)"/>
<path d="M0 0 C0 35.31 0 70.62 0 107 C-4.52478515 106.43440186 -8.4935682 105.93499179 -12.83203125 104.95703125 C-20.24462084 103.58432947 -27.67273579 103.66445881 -35.1862793 103.68432617 C-37.66565556 103.68747228 -40.14381839 103.66400275 -42.62304688 103.63867188 C-51.97041018 103.60343479 -60.64870385 104.36234091 -69.78833008 106.35473633 C-73 107 -73 107 -77 107 C-77.3021629 98.92461341 -77.53263574 90.85161105 -77.67355824 82.7719574 C-77.74122496 79.01927163 -77.83283468 75.2704691 -77.98071289 71.52001953 C-78.12273415 67.89512622 -78.19983094 64.27394587 -78.23340416 60.64648438 C-78.25729888 59.26812214 -78.30397721 57.88994837 -78.37449074 56.51318359 C-78.59353985 52.05606872 -78.52370693 48.21587605 -77 44 C-73.04342754 40.33515386 -68.89772873 38.27396423 -64 36 C-61.88125813 34.82431358 -59.76929456 33.63622616 -57.66796875 32.4296875 C-55.50905712 31.24252545 -53.34886428 30.05769083 -51.1875 28.875 C-37.20508962 21.17801647 -23.42263779 13.15458217 -9.67919922 5.0390625 C-8.04168701 4.07613281 -8.04168701 4.07613281 -6.37109375 3.09375 C-5.36876709 2.50271484 -4.36644043 1.91167969 -3.33374023 1.30273438 C-1 0 -1 0 0 0 Z " fill="#FBCB55" transform="translate(310,116)"/>
<path d="M0 0 C3.26890552 0.75436281 4.36502397 1.94257747 6.4375 4.5625 C6.828125 7.578125 6.828125 7.578125 6.6875 10.8125 C6.65140625 11.89015625 6.6153125 12.9678125 6.578125 14.078125 C6.53171875 14.89796875 6.4853125 15.7178125 6.4375 16.5625 C7.53771484 16.75392578 7.53771484 16.75392578 8.66015625 16.94921875 C17.61755261 18.92715297 26.40964073 23.79217204 31.4375 31.5625 C31.4375 35.3125 31.4375 35.3125 30.4375 38.5625 C26.63343784 41.09854144 24.95241096 41.16448813 20.4375 40.5625 C18.56619436 39.23447664 16.97991052 37.73487692 15.30859375 36.1640625 C9.95863337 31.58476447 3.82299359 29.85529533 -3.140625 30.1796875 C-8.70135244 31.05864119 -12.84679082 33.42890187 -16.5 37.6875 C-19.86974161 42.38471558 -20.2550345 45.85870892 -19.5625 51.5625 C-16.71593282 57.15020595 -12.40505049 61.22547981 -6.5625 63.5625 C-4.63627299 63.78287343 -2.70844267 63.99694281 -0.77514648 64.14282227 C10.20684556 64.98498098 19.1163585 67.6663891 26.9375 75.875 C32.60350828 82.95751035 35.24101701 89.27182722 34.87890625 98.44140625 C33.67847285 106.9294265 30.09785846 114.09012057 23.76171875 119.87109375 C19.01927134 123.32232018 13.39857897 126.5625 7.4375 126.5625 C7.48390625 127.31015625 7.5303125 128.0578125 7.578125 128.828125 C7.87190289 136.84406446 7.87190289 136.84406446 5.8125 140.25 C2.70544769 141.96705522 0.93781342 142.14588557 -2.5625 141.5625 C-4.9375 140.25 -4.9375 140.25 -6.5625 137.5625 C-6.89174499 133.87176983 -6.79182778 130.25722534 -6.5625 126.5625 C-8.0165625 126.4696875 -8.0165625 126.4696875 -9.5 126.375 C-16.88723496 125.28556939 -23.27491222 120.74745407 -28.30859375 115.3984375 C-29.5625 113.5625 -29.5625 113.5625 -30.1875 109.8125 C-29.5625 106.5625 -29.5625 106.5625 -28.5 104.625 C-25.20547529 102.81832516 -23.28417536 102.96222978 -19.5625 103.5625 C-17.09318216 105.16151863 -14.90184359 106.91432773 -12.67578125 108.8359375 C-7.78758562 112.82962043 -3.81047228 112.97776581 2.38671875 112.89453125 C6.07845578 112.49274169 8.65922695 111.42946383 11.81640625 109.53515625 C13.4375 108.5625 13.4375 108.5625 16.4375 107.5625 C17.60703416 105.13866923 17.60703416 105.13866923 18.4375 102.5625 C18.7675 101.9025 19.0975 101.2425 19.4375 100.5625 C20.00485892 95.91201706 19.8973631 92.46519423 17.75 88.25 C13.0459642 82.78314759 8.6176227 79.9296375 1.32421875 79.2890625 C0.26847656 79.25554687 -0.78726563 79.22203125 -1.875 79.1875 C-7.89199943 78.79687475 -12.34277547 77.52849418 -17.5625 74.5625 C-19.109375 73.69625 -19.109375 73.69625 -20.6875 72.8125 C-28.76262655 66.49283574 -33.43196929 59.24311586 -34.94140625 48.98828125 C-35.34211363 40.75439097 -32.56808478 33.69237611 -27.4375 27.3125 C-22.18706673 21.74591161 -15.39516474 16.97474551 -7.5625 16.5625 C-7.62050781 15.82644531 -7.67851562 15.09039062 -7.73828125 14.33203125 C-8.10705446 6.35599364 -8.10705446 6.35599364 -5.375 2.375 C-2.5625 0.5625 -2.5625 0.5625 0 0 Z " fill="#040301" transform="translate(271.5625,289.4375)"/>
</svg>
