<?xml version="1.0" encoding="UTF-8"?>
<svg version="1.1" xmlns="http://www.w3.org/2000/svg" width="512" height="512">
<path d="M0 0 C9.81979105 0.06449781 19.42084976 2.04482042 29 4 C28.55455353 5.08004901 28.55455353 5.08004901 28.10010815 6.18191719 C24.79122643 14.65808628 23.5592243 22.50415058 23.62768555 31.57080078 C23.62403488 32.66985748 23.62038422 33.76891418 23.61662292 34.90127563 C23.60858035 38.49944984 23.62207365 42.09716479 23.63671875 45.6953125 C23.63723804 48.21393839 23.63671769 50.73256469 23.63520813 53.25119019 C23.63529757 58.51467928 23.64532634 63.77805172 23.66381836 69.04150391 C23.68500213 75.10540513 23.68848884 81.16911686 23.6822564 87.2330476 C23.6765405 93.09728382 23.68234019 98.96145295 23.69342995 104.82567978 C23.69726718 107.30788787 23.69843632 109.79010162 23.6968441 112.27231216 C23.69647161 115.74431301 23.70914454 119.21603022 23.7253418 122.68798828 C23.72286438 123.7043335 23.72038696 124.72067871 23.71783447 125.76782227 C23.80131345 137.02852587 25.78678691 145.45902567 33.703125 153.79296875 C39.68233597 159.24697876 46.14314988 161.61907058 54.1875 162.25 C63.75979209 161.62230872 71.15776639 158.23417086 77.6875 151.1875 C82.87358342 145.02831042 85.09066604 138.47055085 85.15821838 130.41252136 C85.1680072 129.52216187 85.17779602 128.63180237 85.18788147 127.71446228 C85.19363693 126.75061111 85.1993924 125.78675995 85.20532227 124.79370117 C85.21522186 123.76884613 85.22512146 122.74399109 85.23532104 121.68807983 C85.26686495 118.3063995 85.29166543 114.92470513 85.31640625 111.54296875 C85.33698191 109.19598529 85.35797854 106.8490055 85.37937927 104.50202942 C85.4345367 98.32893842 85.48397392 92.15581433 85.53222656 85.98266602 C85.58248778 79.68177347 85.63814973 73.38092891 85.69335938 67.08007812 C85.80086355 54.72009308 85.90232572 42.36006636 86 30 C87.4330075 30.94560803 88.86472303 31.89317412 90.29589844 32.84155273 C91.09332458 33.36901596 91.89075073 33.89647919 92.71234131 34.43992615 C131.10258244 60.62023513 153.51466606 103.5566615 162.01953125 148.1875 C169.02530839 187.80357896 160.78740271 227.86875868 142 263 C141.66901841 263.88270034 141.33803682 264.76540068 140.99702549 265.67484951 C139 268 139 268 137.09858978 268.45841706 C134.45907757 268.64758034 131.8618261 268.66091079 129.21556091 268.62818909 C128.19916521 268.63528347 127.1827695 268.64237786 126.13557392 268.64968723 C122.71296905 268.66735807 119.29148623 268.64911506 115.86889648 268.63110352 C113.42165101 268.63623906 110.97440922 268.64351756 108.5271759 268.65278625 C102.55833625 268.66942988 96.58993999 268.6626283 90.62113809 268.64469803 C85.76715249 268.6306797 80.91325569 268.62677758 76.05925179 268.6301403 C75.02343187 268.63085647 75.02343187 268.63085647 73.9666863 268.6315871 C72.56381819 268.63261344 71.1609501 268.6336688 69.75808204 268.63475286 C57.34248088 268.64332733 44.92703739 268.62662587 32.51147461 268.59692383 C20.47462323 268.56812827 8.43799939 268.56098116 -3.59887695 268.57641602 C-16.70691549 268.59320144 -29.81484587 268.59718518 -42.92288727 268.57970566 C-44.32277197 268.57786132 -45.72265669 268.5760266 -47.12254143 268.57420158 C-47.81127691 268.57328949 -48.50001239 268.5723774 -49.20961865 268.57143768 C-54.0515692 268.56584344 -58.89346683 268.56912947 -63.73541451 268.57574654 C-70.26486186 268.58431534 -76.79403099 268.57123872 -83.32344246 268.54389763 C-85.71710744 268.53702489 -88.11080302 268.53690385 -90.50446701 268.54411316 C-93.77889822 268.55283663 -97.05232768 268.53680107 -100.32667542 268.5146637 C-101.26823772 268.52290446 -102.20980002 268.53114523 -103.17989451 268.53963572 C-111.42821876 268.43712254 -118.6921283 266.39658284 -124.875 260.75 C-130.62268848 254.44652089 -133.45851067 247.15423618 -133.25878906 238.65063477 C-132.31335942 228.96711627 -126.56960026 220.25489002 -121.75 212.0625 C-121.03812474 210.83713285 -120.32720794 209.61120845 -119.6171875 208.38476562 C-118.14625149 205.84566164 -116.67128634 203.30896644 -115.19335938 200.77392578 C-111.75687515 194.87142139 -108.38211974 188.93377094 -105 183 C-103.66729939 180.66630494 -102.33364849 178.33315346 -101 176 C-100.33331581 174.83334335 -99.66664914 173.66667668 -99 172.5 C-31 53.5 -31 53.5 -30.00022888 51.75041199 C-29.33278613 50.58237954 -28.66535655 49.41433957 -27.99794006 48.24629211 C-26.34325467 45.35046034 -24.68829877 42.45478399 -23.03295898 39.55932617 C-19.88978719 34.06081605 -16.7488645 28.5610619 -13.61514282 23.05715942 C-12.12452927 20.43941793 -10.6327473 17.82234321 -9.14086914 15.20532227 C-8.42576334 13.95012298 -7.71123866 12.69459242 -6.99731445 11.4387207 C-6.01137144 9.70441972 -5.02331812 7.97131894 -4.03515625 6.23828125 C-3.19029663 4.7538855 -3.19029663 4.7538855 -2.32836914 3.23950195 C-1 1 -1 1 0 0 Z M30 187 C29.45859375 187.50144531 28.9171875 188.00289062 28.359375 188.51953125 C21.84277515 195.282972 18.73089487 203.82741769 18.4375 213.125 C18.85970116 224.0539786 23.27907013 232.65592735 31.1875 240.125 C38.67734223 246.57835665 46.71168791 249.36176463 56.5390625 249.21484375 C66.58496076 248.33782089 75.44184123 243.59365753 82 236 C89.28335164 226.21015827 90.96266939 218.22715143 90 206 C88.06148107 195.77398737 81.60250345 187.90604662 73.125 182.0625 C58.95068851 174.08414503 41.89667259 175.73090418 30 187 Z " fill="#000000" transform="translate(209,100)"/>
<path d="M0 0 C-1.62827744 6.21041714 -4.98526295 11.35481863 -8.25 16.8125 C-13.27736565 25.31634624 -18.20273473 33.86424302 -23 42.5 C-28.13552839 51.72974156 -33.40213603 60.87238792 -38.75 69.98046875 C-42.92243959 77.1052819 -46.98495244 84.28546141 -51 91.5 C-56.13631389 100.72931402 -61.40212535 109.87236973 -66.75 118.98046875 C-70.92243959 126.1052819 -74.98495244 133.28546141 -79 140.5 C-83.57572123 148.72199908 -88.23582369 156.88574214 -93 165 C-98.40656248 174.21081645 -103.6828784 183.48656594 -108.86645508 192.82470703 C-111.66989507 197.86923102 -114.50418553 202.88743199 -117.44140625 207.85546875 C-117.98845215 208.78721924 -118.53549805 209.71896973 -119.09912109 210.67895508 C-120.11612474 212.40517262 -121.14292216 214.12568033 -122.18212891 215.83862305 C-128.35883885 226.36459472 -130.66399335 237.55683771 -128.53125 249.66015625 C-124.95559092 263.09016148 -117.60269764 272.48096324 -105.91796875 279.640625 C-98.29255816 283.19302511 -91.08239217 284.44370647 -82.72409058 284.39872742 C-81.24732068 284.40869766 -81.24732068 284.40869766 -79.74071705 284.41886932 C-76.46880146 284.43739999 -73.19725476 284.4349007 -69.92529297 284.43237305 C-67.56916288 284.44139625 -65.21303748 284.45172484 -62.85691833 284.46325684 C-56.47960225 284.49078713 -50.10237534 284.50010603 -43.72500753 284.50611091 C-37.72974544 284.51455228 -31.73454025 284.5366849 -25.73931636 284.55872939 C-13.87082468 284.60192669 -2.00233821 284.63193365 9.86621094 284.65356445 C21.39000004 284.67459536 32.91374648 284.70188881 44.4375 284.73754883 C45.14876471 284.73974765 45.86002942 284.74194648 46.5928476 284.74421193 C50.16133461 284.75528211 53.72982122 284.76647482 57.29830766 284.77772844 C86.86549793 284.87081352 116.43271932 284.94223663 146 285 C144.64192903 288.56084905 143.37543565 291.03035307 140.76171875 293.8203125 C140.11348145 294.51487549 139.46524414 295.20943848 138.79736328 295.92504883 C138.1011084 296.65103271 137.40485352 297.3770166 136.6875 298.125 C135.96546387 298.88127686 135.24342773 299.63755371 134.49951172 300.41674805 C108.34800119 327.46496418 74.83691507 344.82597051 38 352 C36.12634766 352.36931641 36.12634766 352.36931641 34.21484375 352.74609375 C-11.85976996 360.01575533 -60.57649882 348.01971323 -98.22265625 320.68676758 C-102.63251976 317.38909759 -106.74999088 313.82899874 -110.7734375 310.07421875 C-112.79952496 308.18675832 -114.87896905 306.40379289 -117 304.625 C-131.35647779 291.99129954 -142.06128403 275.77015857 -151 259 C-151.53109375 258.01902344 -152.0621875 257.03804688 -152.609375 256.02734375 C-173.28429191 216.43594358 -176.78228415 167.70152989 -163.69140625 125.16552734 C-159.87597728 113.21536668 -154.90815968 102.05878651 -149 91 C-148.18595703 89.46085937 -148.18595703 89.46085937 -147.35546875 87.890625 C-139.7721529 74.23696629 -129.79607284 62.21130641 -119 51 C-118.4225 50.3709375 -117.845 49.741875 -117.25 49.09375 C-89.14542836 19.30290407 -41.07019446 -2.21336377 0 0 Z " fill="#000000" transform="translate(189,100)"/>
<path d="M0 0 C0.94101562 0.50917969 1.88203125 1.01835938 2.8515625 1.54296875 C13.33193399 7.71537083 19.01985666 16.14637748 25.0625 26.5 C25.70880371 27.59223877 26.35510742 28.68447754 27.02099609 29.80981445 C29.02373888 33.20092736 31.01364699 36.59926495 33 40 C33.60859863 41.03946777 34.21719727 42.07893555 34.84423828 43.14990234 C37.76991296 48.14876374 40.68691039 53.15258923 43.59765625 58.16015625 C48.48442506 66.56037938 53.43927569 74.92026062 58.39111328 83.28222656 C61.09700369 87.85308727 63.79829329 92.42666562 66.5 97 C69.70144229 102.41896603 72.9034499 107.8375908 76.109375 113.25390625 C80.77833357 121.14472355 85.44174049 129.0385274 90.0703125 136.953125 C96.82535362 148.50247033 103.59586047 160.03879716 110.5 171.5 C115.84981802 180.38299799 121.13675257 189.30091711 126.375 198.25 C126.72850525 198.8538855 127.0820105 199.457771 127.44622803 200.07995605 C130.32754397 205.00329013 133.20545775 209.92861081 136.08325195 214.85400391 C138.5955933 219.15359146 141.10928869 223.45238329 143.625 227.75 C143.97766937 228.35254608 144.33033875 228.95509216 144.69369507 229.57589722 C149.63874233 238.02030271 154.64012105 246.42871801 159.6875 254.8125 C162.12739044 258.87356931 164.56439098 262.9363617 167 267 C167.97090576 268.61720947 167.97090576 268.61720947 168.96142578 270.26708984 C170.90046643 273.50583764 172.82678683 276.75183418 174.75 280 C175.33483154 280.97300049 175.91966309 281.94600098 176.5222168 282.94848633 C183.97416786 295.60367922 187.13210443 308.48999922 183.8125 323.0625 C179.91653497 336.97666084 172.19680003 347.18171786 159.703125 354.59765625 C149.48431501 359.89903311 139.36183082 360.16282025 128.05859375 360.203125 C126.81755386 360.20882507 125.57651398 360.21452515 124.29786682 360.22039795 C121.68141526 360.22981878 119.06495199 360.23637029 116.44848633 360.24023438 C113.77256783 360.24463878 111.09696822 360.25861491 108.42114258 360.28125 C104.55019371 360.31169059 100.6796489 360.3222777 96.80859375 360.328125 C95.61471542 360.3404718 94.4208371 360.3528186 93.19078064 360.36553955 C82.83723814 360.33775044 82.83723814 360.33775044 78 357 C75.21831 354.15937589 74.54915396 352.06960564 74.5 348.125 C74.5975446 344.45623936 75.03780217 342.29330682 77.375 339.4375 C80.97010395 336.09918919 82.52977792 335.87398093 87.31665039 335.84228516 C88.98462425 335.82689194 88.98462425 335.82689194 90.68629456 335.81118774 C91.89454391 335.80388641 93.10279327 335.79658508 94.34765625 335.7890625 C96.89779272 335.76098001 99.44792284 335.73231546 101.99804688 335.703125 C106.02462286 335.66080933 110.05116121 335.62404069 114.07788086 335.59863281 C117.95972382 335.57092072 121.8410242 335.52503101 125.72265625 335.4765625 C127.51377586 335.4716832 127.51377586 335.4716832 129.34107971 335.46670532 C139.04408753 335.32496123 147.05514794 333.99448445 154.265625 327.14453125 C158.56779972 321.82495034 160.27036273 316.02273641 159.90234375 309.25 C159.20182528 303.52367496 156.91070328 299.22145123 154 294.3125 C153.50161621 293.44093262 153.00323242 292.56936523 152.48974609 291.67138672 C151.0128883 289.10209754 149.51171884 286.54890016 148 284 C147.6071582 283.33307129 147.21431641 282.66614258 146.80957031 281.97900391 C145.03726138 278.9769459 143.24200506 275.98977595 141.4296875 273.01171875 C138.49234549 268.17975421 135.62298924 263.30790889 132.75 258.4375 C131.92266357 257.03588623 131.92266357 257.03588623 131.07861328 255.60595703 C129.94873253 253.69166385 128.81901377 251.77727505 127.68945312 249.86279297 C125.50019938 246.15308351 123.30881946 242.44463293 121.1171875 238.73632812 C119.48931878 235.98192707 117.86184824 233.22729099 116.234375 230.47265625 C114.12117058 226.8963178 112.00652232 223.32083957 109.890625 219.74609375 C105.22166643 211.85527645 100.55825951 203.9614726 95.9296875 196.046875 C89.17464772 184.49753196 82.4042851 172.96111326 75.5 161.5 C68.95299083 150.63196478 62.52435555 139.69784246 56.11920166 128.74594116 C55.76791199 128.14528839 55.41662231 127.54463562 55.0546875 126.92578125 C54.70678162 126.33084869 54.35887573 125.73591614 54.00042725 125.12295532 C50.85033286 119.7387125 47.67835222 114.36759483 44.5 109 C40.96693678 103.03336995 37.44572189 97.06007077 33.9453125 91.07421875 C25.81534142 77.1728483 17.63924915 63.30445209 9.3125 49.51953125 C7.27464262 46.14143527 5.26887774 42.75011651 3.3125 39.32421875 C-1.37862551 31.14735301 -5.53560266 24.11816864 -15 21 C-22.7536372 20.1462064 -29.59816372 20.28689751 -36 25 C-41.22282772 30.05278626 -44.60381191 36.18028255 -48.0625 42.5 C-49.20050209 44.54297919 -50.33852351 46.58594762 -51.4765625 48.62890625 C-52.65127493 50.75247515 -53.82575221 52.87617414 -55 55 C-57.30346304 59.1509396 -59.61805907 63.29547265 -61.9375 67.4375 C-62.71589233 68.84708984 -62.71589233 68.84708984 -63.51000977 70.28515625 C-71.29722761 84.19815174 -71.29722761 84.19815174 -77 88 C-80.92325178 88.79073292 -84.4988339 88.75614293 -88.109375 86.9375 C-91.71380432 84.19694217 -92.81238723 82.79756087 -93.88671875 78.23046875 C-94.27839236 73.81680307 -92.93752626 70.61454979 -90.8125 66.8125 C-90.45373779 66.13525879 -90.09497559 65.45801758 -89.7253418 64.76025391 C-88.50976285 62.49141141 -87.25943483 60.24477392 -86 58 C-85.55398437 57.19836426 -85.10796875 56.39672852 -84.6484375 55.57080078 C-81.69621724 50.28381136 -78.67875147 45.03713821 -75.62939453 39.80566406 C-73.94595492 36.90693946 -72.28301397 33.99704466 -70.62109375 31.0859375 C-69.49815102 29.14018897 -68.37447281 27.19486468 -67.25 25.25 C-66.74380127 24.35780762 -66.23760254 23.46561523 -65.71606445 22.54638672 C-59.92148451 12.6141569 -53.38370656 5.14493894 -43 0 C-42.2265625 -0.41378906 -41.453125 -0.82757813 -40.65625 -1.25390625 C-28.8467787 -6.6167516 -11.35858489 -6.23068006 0 0 Z " fill="#000000" transform="translate(309,4)"/>
<path d="M0 0 C6.89770156 5.67699561 13.19337073 11.95474522 19.5390625 18.23046875 C20.13319317 18.81802759 20.72732384 19.40558643 21.33945847 20.01095009 C24.48040653 23.11947934 27.6173866 26.23196072 30.75195312 29.34692383 C33.32951317 31.90666157 35.91531952 34.45760518 38.50878906 37.0012207 C41.66210334 40.09402755 44.80014409 43.20159989 47.92817307 46.31997108 C49.11344692 47.49674829 50.30380288 48.66843191 51.49953079 49.83458519 C61.22871384 59.33582257 68.01434592 68.51787365 68.3125 82.5625 C68.21364766 93.13970011 64.94878428 101.11128354 58 109 C57.48695313 109.60585938 56.97390625 110.21171875 56.4453125 110.8359375 C50.0924026 117.79678136 41.68682219 122.63940109 32.2421875 123.23828125 C18.75267941 123.58135271 9.6754636 120.9663789 -0.43205452 111.68499374 C-4.51517684 107.79435434 -8.48835221 103.79200855 -12.46875 99.796875 C-13.7573987 98.50957525 -15.04634403 97.22257238 -16.33557129 95.93585205 C-19.02157023 93.25278716 -21.70395411 90.56617418 -24.38378906 87.87695312 C-27.8248687 84.42441073 -31.27494316 80.98101773 -34.72771454 77.54017258 C-37.38377872 74.89131474 -40.03508679 72.23773785 -42.68495178 69.58267975 C-43.95619279 68.31010241 -45.22892711 67.03901505 -46.50315857 65.76943207 C-48.27455627 64.00308686 -50.03946135 62.23050536 -51.80273438 60.45605469 C-52.33250885 59.93032867 -52.86228333 59.40460266 -53.40811157 58.86294556 C-57 55.22854149 -57 55.22854149 -57 53 C-55.33917923 51.78632328 -53.61704696 50.65639633 -51.875 49.5625 C-42.40045615 43.39563714 -33.16078275 36.64272915 -25.37109375 28.40625 C-24 27 -24 27 -21.5 25.0625 C-13.11689829 18.14644109 -6.72506316 8.48086783 0 0 Z " fill="#000000" transform="translate(354,389)"/>
<path d="M0 0 C1.60637183 0.55617129 3.20993953 1.12044014 4.8125 1.6875 C6.15248047 2.15736328 6.15248047 2.15736328 7.51953125 2.63671875 C10.64211778 3.85981942 13.66852871 5.19140442 16.7175293 6.58520508 C17.707061 7.03696609 18.69659271 7.48872711 19.71611023 7.95417786 C20.46979385 8.29929916 21.22347748 8.64442047 22 9 C22.09358587 23.85590247 22.16404885 38.71178203 22.20724869 53.56791687 C22.22784344 60.46643957 22.25590444 67.36477873 22.30175781 74.26318359 C22.34599851 80.92216511 22.36914681 87.5809167 22.37950897 94.24005127 C22.38689229 96.77894082 22.40131015 99.3178201 22.42292023 101.85662842 C22.45201172 105.41636585 22.45595342 108.97531882 22.45410156 112.53515625 C22.47567322 114.10501534 22.47567322 114.10501534 22.49768066 115.70658875 C22.46259368 121.95120485 21.67639699 126.82341872 18 132 C14.56839934 134.7994637 11.40300028 135.73581998 7 136 C1.49053308 135.03342686 -1.55371031 133.43094389 -5 129 C-7.21872153 123.05601614 -7.28447991 117.51645883 -7.25878906 111.21875 C-7.2622937 110.1560791 -7.26579834 109.0934082 -7.26940918 107.99853516 C-7.27818464 104.49895625 -7.27239202 100.99958083 -7.265625 97.5 C-7.26697285 95.06054648 -7.26891438 92.62109323 -7.27142334 90.18164062 C-7.27436894 85.07419268 -7.27009503 79.96681479 -7.26074219 74.859375 C-7.24934808 68.31915714 -7.25591056 61.77910344 -7.26788712 55.2388916 C-7.27512089 50.20311246 -7.27281079 45.16737212 -7.26763153 40.1315918 C-7.26629924 37.72029603 -7.267928 35.30899671 -7.27259064 32.89770508 C-7.2776807 29.52545874 -7.26991051 26.15347671 -7.25878906 22.78125 C-7.26283752 21.78883301 -7.26688599 20.79641602 -7.27105713 19.77392578 C-7.22944101 12.94769276 -7.10841482 7.35941658 -2.375 2.0625 C-1.59125 1.381875 -0.8075 0.70125 0 0 Z " fill="#000000" transform="translate(256,110)"/>
<path d="M0 0 C5.15085024 2.71038189 7.92633526 6.91572453 9.7265625 12.31640625 C10.45936723 19.0798335 9.93443031 24.79587997 5.7265625 30.31640625 C1.31403322 34.43203681 -2.58584423 36.11356902 -8.5859375 36.56640625 C-14.09726396 36.192757 -17.8053607 34.55092538 -22.0234375 31.00390625 C-26.46128596 25.70314281 -27.80638424 21.53674314 -27.55078125 14.70703125 C-26.8297653 8.49207683 -23.50343457 5.29195224 -18.89453125 1.515625 C-13.84907838 -2.21679435 -5.82261068 -1.750785 0 0 Z " fill="#000000" transform="translate(272.2734375,295.68359375)"/>
</svg>
