<?xml version="1.0" encoding="UTF-8"?>
<svg version="1.1" xmlns="http://www.w3.org/2000/svg" width="512" height="512">
<path d="M0 0 C1.1123837 -0.00445784 2.22476739 -0.00891569 3.37085968 -0.01350862 C4.59291751 -0.01332426 5.81497533 -0.01313989 7.07406521 -0.01294994 C8.37237489 -0.01662663 9.67068457 -0.02030332 11.00833696 -0.02409142 C14.61516641 -0.03410359 18.22197921 -0.03782696 21.82882059 -0.04048073 C25.71789307 -0.04438615 29.60695241 -0.05396437 33.4960165 -0.0626936 C42.89010587 -0.08245204 52.2841963 -0.09252376 61.67830124 -0.10142139 C66.10348131 -0.10580559 70.52866018 -0.11117209 74.9538393 -0.11641026 C89.66672072 -0.13342246 104.3796014 -0.14791603 119.09249115 -0.155159 C122.91019663 -0.15706886 126.72790211 -0.15898919 130.54560757 -0.16094494 C131.9688956 -0.16167055 131.9688956 -0.16167055 133.42093693 -0.16241082 C148.78745537 -0.17070886 164.1538959 -0.196042 179.52038033 -0.22852562 C195.30118481 -0.26161274 211.08194974 -0.27960928 226.86278909 -0.28280324 C235.72135018 -0.28496688 244.57979768 -0.2936941 253.43832493 -0.31926441 C260.98368607 -0.34099405 268.52890605 -0.34901074 276.07429493 -0.33929763 C279.92177712 -0.33475937 283.76896818 -0.3366112 287.61641026 -0.35605907 C291.79455626 -0.37699546 295.97205942 -0.3666848 300.15023708 -0.35352612 C301.35667985 -0.36449536 302.56312263 -0.37546461 303.80612427 -0.38676625 C317.38454236 -0.28371386 327.80483337 4.68588098 337.74409389 13.75922108 C347.11663568 23.5246239 349.89502608 35.68436546 349.75190639 48.75922108 C349.74766155 50.24047474 349.74766155 50.24047474 349.74333096 51.75165272 C349.7322121 54.87930323 349.70712305 58.00665836 349.68159389 61.13422108 C349.67155337 63.26572733 349.6624294 65.39723812 349.65425014 67.52875233 C349.6340088 72.73077825 349.59484425 77.93217234 349.55659389 83.13422108 C339.32659389 83.13422108 329.09659389 83.13422108 318.55659389 83.13422108 C318.55659389 77.85422108 318.55659389 72.57422108 318.55659389 67.13422108 C323.50659389 67.13422108 328.45659389 67.13422108 333.55659389 67.13422108 C333.46917998 62.82079643 333.36221688 58.50932456 333.24409389 54.19672108 C333.2215353 52.9843578 333.19897671 51.77199451 333.17573452 50.52289295 C332.83218913 38.99850675 331.10216203 31.74043401 323.02143764 23.30609608 C317.5387113 18.47504085 310.87319757 16.03848981 303.55659389 16.13422108 C295.14380726 16.78562301 287.28037478 19.83340802 281.66596889 26.31781483 C277.3528842 32.52572556 275.3517237 38.24450488 275.14253139 45.84515858 C275.10692104 46.96712635 275.07131069 48.08909412 275.03462124 49.24506092 C274.9836227 51.3558202 274.9836227 51.3558202 274.93159389 53.50922108 C274.80784389 58.00547108 274.68409389 62.50172108 274.55659389 67.13422108 C284.45659389 67.13422108 294.35659389 67.13422108 304.55659389 67.13422108 C304.55659389 72.41422108 304.55659389 77.69422108 304.55659389 83.13422108 C294.65659389 83.13422108 284.75659389 83.13422108 274.55659389 83.13422108 C274.55659389 107.88422108 274.55659389 132.63422108 274.55659389 158.13422108 C279.83659389 158.79422108 285.11659389 159.45422108 290.55659389 160.13422108 C293.68285979 160.89399088 296.50246611 161.62943369 299.49409389 162.69672108 C300.23079311 162.95211658 300.96749233 163.20751209 301.72651577 163.47064686 C314.21776605 167.9967318 325.61368436 174.29410294 335.55659389 183.13422108 C336.28749233 183.72332264 337.01839077 184.3124242 337.77143764 184.91937733 C354.96042423 199.14787061 365.54581992 219.69073419 370.55659389 241.13422108 C370.80022671 242.10875233 371.04385952 243.08328358 371.29487514 244.08734608 C377.00896076 271.29727756 369.93090831 299.83142699 355.55659389 323.13422108 C353.08475091 326.66123814 350.4013268 329.90403773 347.55659389 333.13422108 C346.88112514 333.95277576 346.20565639 334.77133045 345.50971889 335.61468983 C328.65721106 355.45021456 304.12653306 366.87986518 278.55659389 370.13422108 C277.23659389 370.13422108 275.91659389 370.13422108 274.55659389 370.13422108 C274.55659389 382.01422108 274.55659389 393.89422108 274.55659389 406.13422108 C269.27659389 406.13422108 263.99659389 406.13422108 258.55659389 406.13422108 C258.55659389 394.25422108 258.55659389 382.37422108 258.55659389 370.13422108 C253.27659389 369.47422108 247.99659389 368.81422108 242.55659389 368.13422108 C234.91627706 366.42310845 227.90018311 364.02076998 221.15521049 360.08661366 C211.19033581 354.42796275 202.36707903 354.00389261 191.11518764 354.13422108 C189.22120928 354.12659552 187.32724234 354.11546046 185.43330288 354.10112476 C180.34306986 354.07236206 175.25409211 354.09206415 170.16390514 354.12114048 C164.82541239 354.14317039 159.48711363 354.11969912 154.14863491 354.10126209 C144.0625364 354.07323577 133.97691549 354.08553436 123.89083099 354.11268616 C112.39847157 354.14163294 100.90631456 354.12506957 89.41395283 354.10487461 C65.7946272 354.06437918 42.17591725 354.08641943 18.55659389 354.13422108 C18.55659389 338.95422108 18.55659389 323.77422108 18.55659389 308.13422108 C68.05659389 307.80422108 117.55659389 307.47422108 168.55659389 307.13422108 C166.57659389 301.19422108 164.59659389 295.25422108 162.55659389 289.13422108 C162.22659389 285.83422108 161.89659389 282.53422108 161.55659389 279.13422108 C114.36659389 279.13422108 67.17659389 279.13422108 18.55659389 279.13422108 C18.55659389 263.95422108 18.55659389 248.77422108 18.55659389 233.13422108 C66.73659389 232.80422108 114.91659389 232.47422108 164.55659389 232.13422108 C166.53659389 227.18422108 168.51659389 222.23422108 170.55659389 217.13422108 C172.86659389 213.17422108 175.17659389 209.21422108 177.55659389 205.13422108 C125.08659389 204.80422108 72.61659389 204.47422108 18.55659389 204.13422108 C18.55659389 188.95422108 18.55659389 173.77422108 18.55659389 158.13422108 C28.78659389 158.13422108 39.01659389 158.13422108 49.55659389 158.13422108 C49.55659389 163.41422108 49.55659389 168.69422108 49.55659389 174.13422108 C44.60659389 174.13422108 39.65659389 174.13422108 34.55659389 174.13422108 C34.55659389 178.75422108 34.55659389 183.37422108 34.55659389 188.13422108 C55.07099144 188.09622552 75.5852065 188.03721671 96.09945869 187.95031834 C105.62447996 187.91050002 115.14941828 187.87812174 124.67451382 187.86322498 C132.9760857 187.85022292 141.27747528 187.82329532 149.5789445 187.77960801 C153.97501281 187.75696057 158.37085598 187.74131235 162.7669878 187.74233723 C166.9047434 187.74308191 171.04200072 187.72520878 175.17962742 187.69305325 C176.69814564 187.68453419 178.21671963 187.68281793 179.73525143 187.68841839 C181.8097608 187.69505025 183.88268096 187.67716122 185.9570303 187.65320301 C187.11756766 187.64951584 188.27810503 187.64582867 189.4738102 187.64202976 C193.4118778 186.99333523 194.96245315 186.18689916 197.55659389 183.13422108 C197.88659389 180.16422108 198.21659389 177.19422108 198.55659389 174.13422108 C154.00659389 174.13422108 109.45659389 174.13422108 63.55659389 174.13422108 C63.55659389 168.85422108 63.55659389 163.57422108 63.55659389 158.13422108 C113.38659389 158.13422108 163.21659389 158.13422108 214.55659389 158.13422108 C214.88659389 162.09422108 215.21659389 166.05422108 215.55659389 170.13422108 C216.52596889 169.67531483 217.49534389 169.21640858 218.49409389 168.74359608 C229.76021595 163.53686293 240.86699226 159.6661516 253.30732632 158.58881092 C254.29206432 158.50255451 255.27680233 158.4162981 256.29138088 158.32742786 C257.03890118 158.26366962 257.78642147 158.19991138 258.55659389 158.13422108 C258.55290672 157.52168098 258.54921955 156.90914089 258.54542065 156.27803898 C258.45682631 141.32762178 258.39076654 126.37725931 258.34934521 111.42664433 C258.32877828 104.19642386 258.30077112 96.96637934 258.25483608 89.73627186 C258.21478726 83.42960348 258.18911849 77.12306261 258.18023992 70.81627059 C258.17505528 67.48117145 258.16085041 64.14672394 258.13367367 60.81168842 C258.10445137 57.07555888 258.10064591 53.34017387 258.10249233 49.60394764 C258.08811123 48.51565159 258.07373013 47.42735554 258.05891323 46.30608082 C258.12235142 34.36976705 261.83089551 25.78769793 268.55659389 16.13422108 C234.96738329 16.08841856 201.37818047 16.05318914 167.78894556 16.03209042 C163.82119548 16.02958908 159.85344545 16.02700043 155.88569546 16.0243578 C154.70086074 16.02357086 154.70086074 16.02357086 153.49208997 16.02276804 C140.71127998 16.01407131 127.93048803 15.99830537 115.14968874 15.97991548 C102.0301976 15.96119605 88.9107159 15.95010003 75.79121196 15.94604409 C67.69927466 15.94330327 59.60738834 15.93465429 51.51546673 15.91838814 C45.30498593 15.90654183 39.09454379 15.9053149 32.88405323 15.90800571 C30.3404099 15.90745605 27.79676463 15.90348528 25.25313282 15.89581013 C21.77520604 15.88583166 18.29749586 15.88826294 14.81956387 15.89371204 C13.31660454 15.88497352 13.31660454 15.88497352 11.7832824 15.87605846 C0.84349398 15.92225445 -8.14880624 17.34521156 -16.38871861 24.92328358 C-25.43759879 34.42650084 -24.88934379 45.43195655 -24.87819004 57.74615955 C-24.88738178 59.5500573 -24.89784852 61.35394893 -24.9094764 63.15783262 C-24.93747961 68.10262644 -24.94679494 73.04730383 -24.95285249 77.99216676 C-24.96253694 83.32969693 -24.98924051 88.66714765 -25.01341343 94.00462818 C-25.06784057 106.88346296 -25.09356512 119.7622955 -25.11626452 132.6412189 C-25.12761747 138.70788608 -25.14213849 144.77454554 -25.15636158 150.84120655 C-25.20255648 171.00754703 -25.24185069 191.17388087 -25.25973415 211.34026814 C-25.26444386 216.56862358 -25.26916358 221.79697901 -25.27397251 227.02533436 C-25.27516142 228.32478271 -25.27635033 229.62423105 -25.27757527 230.96305662 C-25.29814284 252.03425505 -25.366316 273.10501564 -25.45449339 294.17602879 C-25.54430205 315.81271595 -25.59282911 337.44918106 -25.60039055 359.08605623 C-25.60563996 371.2333443 -25.62892827 383.38001228 -25.69813251 395.52711964 C-25.75688426 405.86646747 -25.77820183 416.2050335 -25.75046085 426.54452622 C-25.73744656 431.82010318 -25.74228003 437.09407693 -25.79504108 442.36944103 C-25.84293129 447.20007935 -25.83995703 452.02793094 -25.79665579 456.85858792 C-25.78992803 458.60479805 -25.80176991 460.35120025 -25.83415745 462.09712297 C-26.16961032 471.70906744 -26.16961032 471.70906744 -22.04544759 480.07570839 C-19.28034472 482.34474724 -16.4616342 484.22404479 -13.44340611 486.13422108 C-12.07391257 487.43038581 -10.72669271 488.75265275 -9.44340611 490.13422108 C-5.51928307 488.51785611 -2.73097453 485.81979675 0.30659389 482.94672108 C1.37540361 481.95822278 2.44441442 480.96994187 3.51362514 479.98187733 C5.34323508 478.27836904 7.14909096 476.55917891 8.94331264 474.81781483 C9.62007046 474.17972889 10.29682827 473.54164295 10.99409389 472.88422108 C11.57030483 472.32218983 12.14651577 471.76015858 12.74018764 471.18109608 C14.55659389 470.13422108 14.55659389 470.13422108 16.81440639 470.04047108 C21.02963961 471.72176068 23.79317932 474.73117661 26.99409389 477.88422108 C28.28302876 479.1304931 29.57337443 480.37530783 30.86518764 481.61859608 C31.48248745 482.21478748 32.09978725 482.81097889 32.73579311 483.4252367 C35.25006938 485.78510984 37.87741248 487.96437399 40.55659389 490.13422108 C44.48071693 488.51785611 47.26902547 485.81979675 50.30659389 482.94672108 C51.37540361 481.95822278 52.44441442 480.96994187 53.51362514 479.98187733 C55.34323508 478.27836904 57.14909096 476.55917891 58.94331264 474.81781483 C59.62007046 474.17972889 60.29682827 473.54164295 60.99409389 472.88422108 C61.57030483 472.32218983 62.14651577 471.76015858 62.74018764 471.18109608 C64.55659389 470.13422108 64.55659389 470.13422108 66.81440639 470.04047108 C71.02963961 471.72176068 73.79317932 474.73117661 76.99409389 477.88422108 C78.28302876 479.1304931 79.57337443 480.37530783 80.86518764 481.61859608 C81.48248745 482.21478748 82.09978725 482.81097889 82.73579311 483.4252367 C85.25006938 485.78510984 87.87741248 487.96437399 90.55659389 490.13422108 C94.48071693 488.51785611 97.26902547 485.81979675 100.30659389 482.94672108 C101.37540361 481.95822278 102.44441442 480.96994187 103.51362514 479.98187733 C105.34323508 478.27836904 107.14909096 476.55917891 108.94331264 474.81781483 C109.62007046 474.17972889 110.29682827 473.54164295 110.99409389 472.88422108 C111.57030483 472.32218983 112.14651577 471.76015858 112.74018764 471.18109608 C114.55659389 470.13422108 114.55659389 470.13422108 117.08393764 470.27484608 C119.77278704 471.20935929 120.81711651 472.02570215 122.68159389 474.13422108 C126.50677296 478.21216528 130.74015382 481.63281923 135.10346889 485.11859608 C137.04655004 486.71514046 138.8282925 488.31374361 140.55659389 490.13422108 C144.48071693 488.51785611 147.26902547 485.81979675 150.30659389 482.94672108 C151.37540361 481.95822278 152.44441442 480.96994187 153.51362514 479.98187733 C155.34323508 478.27836904 157.14909096 476.55917891 158.94331264 474.81781483 C159.62007046 474.17972889 160.29682827 473.54164295 160.99409389 472.88422108 C161.57030483 472.32218983 162.14651577 471.76015858 162.74018764 471.18109608 C164.55659389 470.13422108 164.55659389 470.13422108 167.08393764 470.27484608 C169.77278704 471.20935929 170.81711651 472.02570215 172.68159389 474.13422108 C176.50677296 478.21216528 180.74015382 481.63281923 185.10346889 485.11859608 C187.04655004 486.71514046 188.8282925 488.31374361 190.55659389 490.13422108 C194.48061455 488.51789828 197.26929259 485.82000039 200.30659389 482.94672108 C201.37402566 481.95814111 202.4417346 480.96986036 203.50971889 479.98187733 C205.34505994 478.27250224 207.16583599 476.5515105 208.97846889 474.81781483 C209.66425014 474.17972889 210.35003139 473.54164295 211.05659389 472.88422108 C211.64440639 472.32218983 212.23221889 471.76015858 212.83784389 471.18109608 C214.55659389 470.13422108 214.55659389 470.13422108 216.45893764 470.21625233 C225.36748577 474.11477897 233.44646828 483.54669657 240.55659389 490.13422108 C245.3235675 488.22282586 248.67143103 484.43743486 252.31050014 480.94672108 C256.35497766 477.13422108 256.35497766 477.13422108 258.55659389 477.13422108 C258.55659389 468.22422108 258.55659389 459.31422108 258.55659389 450.13422108 C263.83659389 450.13422108 269.11659389 450.13422108 274.55659389 450.13422108 C276.65612997 482.36299709 276.65612997 482.36299709 271.94331264 488.81781483 C268.8702539 491.9166396 265.34281871 494.00064405 261.55659389 496.13422108 C260.14737982 497.32400735 258.76606526 498.54866889 257.43159389 499.82172108 C256.14159044 500.92783042 254.84975925 502.03181 253.55659389 503.13422108 C252.63620327 503.94504139 251.71581264 504.7558617 250.76753139 505.59125233 C249.79042202 506.43043201 248.81331264 507.2696117 247.80659389 508.13422108 C246.45307827 509.30984608 246.45307827 509.30984608 245.07221889 510.50922108 C242.55659389 512.13422108 242.55659389 512.13422108 240.58393764 511.89056873 C237.19608855 510.62665297 234.8648444 507.98161427 232.30659389 505.50922108 C231.15239016 504.41728809 229.99744329 503.32614006 228.84175014 502.23578358 C228.28245815 501.70501209 227.72316616 501.17424061 227.14692593 500.62738514 C224.0325164 497.70326346 220.79824028 494.91557326 217.55659389 492.13422108 C213.8492591 493.70337208 211.34767526 496.01317361 208.43159389 498.75922108 C204.7130662 502.17907185 200.98788273 505.57193846 197.11909389 508.82172108 C195.94540249 509.81752186 195.94540249 509.81752186 194.74800014 510.83343983 C192.55659389 512.13422108 192.55659389 512.13422108 190.60420132 511.87030506 C187.19287533 510.64398482 184.86908962 507.98571702 182.30659389 505.50922108 C181.15239016 504.41728809 179.99744329 503.32614006 178.84175014 502.23578358 C178.00281216 501.43962635 178.00281216 501.43962635 177.14692593 500.62738514 C174.0325164 497.70326346 170.79824028 494.91557326 167.55659389 492.13422108 C163.8492591 493.70337208 161.34767526 496.01317361 158.43159389 498.75922108 C154.7130662 502.17907185 150.98788273 505.57193846 147.11909389 508.82172108 C145.94540249 509.81752186 145.94540249 509.81752186 144.74800014 510.83343983 C142.55659389 512.13422108 142.55659389 512.13422108 140.60420132 511.87030506 C137.19287533 510.64398482 134.86908962 507.98571702 132.30659389 505.50922108 C131.15239016 504.41728809 129.99744329 503.32614006 128.84175014 502.23578358 C128.00281216 501.43962635 128.00281216 501.43962635 127.14692593 500.62738514 C124.0325164 497.70326346 120.79824028 494.91557326 117.55659389 492.13422108 C113.8492591 493.70337208 111.34767526 496.01317361 108.43159389 498.75922108 C104.7130662 502.17907185 100.98788273 505.57193846 97.11909389 508.82172108 C95.94540249 509.81752186 95.94540249 509.81752186 94.74800014 510.83343983 C92.55659389 512.13422108 92.55659389 512.13422108 90.60420132 511.87030506 C87.19287533 510.64398482 84.86908962 507.98571702 82.30659389 505.50922108 C81.15239016 504.41728809 79.99744329 503.32614006 78.84175014 502.23578358 C78.00281216 501.43962635 78.00281216 501.43962635 77.14692593 500.62738514 C74.0325164 497.70326346 70.79824028 494.91557326 67.55659389 492.13422108 C63.8492591 493.70337208 61.34767526 496.01317361 58.43159389 498.75922108 C54.7130662 502.17907185 50.98788273 505.57193846 47.11909389 508.82172108 C46.33663296 509.48558826 45.55417202 510.14945545 44.74800014 510.83343983 C42.55659389 512.13422108 42.55659389 512.13422108 40.60420132 511.87030506 C37.19287533 510.64398482 34.86908962 507.98571702 32.30659389 505.50922108 C31.15239016 504.41728809 29.99744329 503.32614006 28.84175014 502.23578358 C28.00281216 501.43962635 28.00281216 501.43962635 27.14692593 500.62738514 C24.0325164 497.70326346 20.79824028 494.91557326 17.55659389 492.13422108 C13.81737261 493.71552728 11.26009652 496.06652506 8.30659389 498.82172108 C6.85639858 500.15590076 6.85639858 500.15590076 5.37690639 501.51703358 C3.65895566 503.11125379 1.94447688 504.70924009 0.23628139 506.31390858 C-0.78078892 507.24590076 -0.78078892 507.24590076 -1.81840611 508.19672108 C-2.40364048 508.74457264 -2.98887486 509.2924242 -3.59184361 509.85687733 C-6.09539187 511.58400873 -7.36002639 512.20115407 -10.44340611 512.13422108 C-13.01994452 510.44873553 -15.09698523 508.31654806 -17.25590611 506.13422108 C-18.50519173 504.9212453 -19.7551863 503.70899924 -21.00590611 502.49750233 C-21.60145298 501.91178455 -22.19699986 501.32606678 -22.81059361 500.72259998 C-24.73414437 498.85139465 -26.72234767 497.07238529 -28.75590611 495.32172108 C-29.30816846 494.82503699 -29.86043082 494.32835291 -30.4294284 493.81661779 C-32.41848931 492.07774286 -32.41848931 492.07774286 -34.73326796 490.69894952 C-38.9177227 487.7854526 -41.12101443 485.54840039 -42.27447379 480.48872149 C-42.71234307 475.77320709 -42.61999434 471.05774206 -42.55261326 466.32777882 C-42.55940533 464.49046029 -42.57013914 462.65315282 -42.58446807 460.81587762 C-42.61233671 455.77336246 -42.58410802 450.73248578 -42.54663289 445.6900903 C-42.51598498 440.24953044 -42.53726629 434.80914183 -42.55206394 429.3685503 C-42.57282238 418.71161117 -42.54558324 408.05530689 -42.50222508 397.39845667 C-42.45351906 384.98478629 -42.45232473 372.57124824 -42.45312723 360.15749898 C-42.45293529 337.33311627 -42.40562648 314.50902775 -42.33595762 291.68476538 C-42.27262401 270.86555204 -42.24097295 250.04654801 -42.23954868 229.22723866 C-42.2394972 228.56562175 -42.23944572 227.90400485 -42.23939268 227.22233895 C-42.23928885 225.88730048 -42.23918753 224.55226201 -42.23908871 223.21722354 C-42.23720814 198.08018544 -42.209825 172.94325018 -42.16702226 147.80624962 C-42.15282093 139.15802278 -42.14603433 130.50980789 -42.14141369 121.86157131 C-42.13518833 111.31494089 -42.11355357 100.7684627 -42.07303039 90.22190652 C-42.05262268 84.84311107 -42.03835667 79.4644978 -42.04135227 74.08565998 C-42.04386302 69.15621783 -42.02774759 64.22719153 -41.9970872 59.29784729 C-41.9891842 57.51995685 -41.98787869 55.74202143 -41.99404786 53.96412412 C-42.0415387 38.32969338 -39.74103987 25.52364876 -29.06840611 13.44672108 C-20.53146989 5.9260868 -11.70429946 0.02177073 0 0 Z M197.80659389 204.88422108 C189.46603046 214.55866139 183.34232675 225.96049189 179.55659389 238.13422108 C179.23819546 239.15000233 178.91979702 240.16578358 178.59175014 241.21234608 C172.50241364 264.44723374 176.52291766 289.55874864 188.33393764 310.24750233 C202.58311686 332.71399961 223.85412338 347.55702528 249.74409389 353.50922108 C273.66223305 357.05671266 297.96054987 352.44564462 317.92378139 338.47797108 C320.18843123 336.75401618 322.37542623 334.96232203 324.55659389 333.13422108 C325.27331264 332.57476795 325.99003139 332.01531483 326.72846889 331.43890858 C343.87977466 317.38943471 353.67675637 295.80028842 356.55659389 274.13422108 C358.27609447 249.03130378 351.87644417 227.06382811 336.55659389 207.13422108 C336.01647671 206.40976795 335.47635952 205.68531483 334.91987514 204.93890858 C321.52070659 188.26588776 300.86390426 178.28282795 280.18550014 174.52093983 C248.24846069 171.11753089 219.98389015 181.74436856 197.80659389 204.88422108 Z M34.55659389 249.13422108 C34.55659389 253.75422108 34.55659389 258.37422108 34.55659389 263.13422108 C76.13659389 263.13422108 117.71659389 263.13422108 160.55659389 263.13422108 C160.88659389 258.51422108 161.21659389 253.89422108 161.55659389 249.13422108 C119.64659389 249.13422108 77.73659389 249.13422108 34.55659389 249.13422108 Z M34.55659389 324.13422108 C34.55659389 328.75422108 34.55659389 333.37422108 34.55659389 338.13422108 C85.70659389 338.13422108 136.85659389 338.13422108 189.55659389 338.13422108 C187.57659389 335.49422108 185.59659389 332.85422108 183.55659389 330.13422108 C182.55998493 328.42279423 182.55998493 328.42279423 181.54324245 326.6767931 C176.60914728 322.47633493 170.99322296 323.34952716 164.77021694 323.45306873 C163.350779 323.45476199 161.9313358 323.45380959 160.5119009 323.4504137 C156.66475034 323.44869356 152.81872431 323.48394464 148.9718349 323.52585745 C144.94934954 323.56338936 140.92683781 323.56689171 136.90420437 323.5740099 C129.28968951 323.59265165 121.6756921 323.64187914 114.061405 323.70210683 C105.39163605 323.7691932 96.72184227 323.80216624 88.05187833 323.83227944 C70.21981546 323.89497918 52.38826525 324.00171062 34.55659389 324.13422108 Z " fill="#000000" transform="translate(90.4434061050415,-0.13422107696533203)"/>
<path d="M0 0 C64.68 0 129.36 0 196 0 C196 15.18 196 30.36 196 46 C131.32 46 66.64 46 0 46 C0 30.82 0 15.64 0 0 Z M16 16 C16 20.62 16 25.24 16 30 C70.12 30 124.24 30 180 30 C180 25.38 180 20.76 180 16 C125.88 16 71.76 16 16 16 Z " fill="#000000" transform="translate(109,83)"/>
<path d="M0 0 C64.68 0 129.36 0 196 0 C196 14.85 196 29.7 196 45 C131.32 45 66.64 45 0 45 C0 30.15 0 15.3 0 0 Z M16 16 C16 20.29 16 24.58 16 29 C70.12 29 124.24 29 180 29 C180 24.71 180 20.42 180 16 C125.88 16 71.76 16 16 16 Z " fill="#000000" transform="translate(109,383)"/>
<path d="M0 0 C3.27362694 2.77780388 6.27408647 5.60526164 8.578125 9.25390625 C8.578125 10.57390625 8.578125 11.89390625 8.578125 13.25390625 C4.288125 15.56390625 -0.001875 17.87390625 -4.421875 20.25390625 C-5.741875 18.60390625 -7.061875 16.95390625 -8.421875 15.25390625 C-13.84109019 11.0389611 -19.02016192 8.8984814 -25.921875 9.37890625 C-31.93942141 10.2692575 -36.30694049 12.71638278 -40.296875 17.37890625 C-42.37692019 20.02066244 -42.37692019 20.02066244 -43.421875 22.25390625 C-36.821875 22.25390625 -30.221875 22.25390625 -23.421875 22.25390625 C-23.421875 27.53390625 -23.421875 32.81390625 -23.421875 38.25390625 C-30.681875 38.25390625 -37.941875 38.25390625 -45.421875 38.25390625 C-45.421875 42.87390625 -45.421875 47.49390625 -45.421875 52.25390625 C-38.161875 52.25390625 -30.901875 52.25390625 -23.421875 52.25390625 C-23.421875 57.53390625 -23.421875 62.81390625 -23.421875 68.25390625 C-33.321875 68.74890625 -33.321875 68.74890625 -43.421875 69.25390625 C-37.67913359 77.36241527 -37.67913359 77.36241527 -29.421875 81.25390625 C-22.3564382 82.24409885 -16.23018048 81.59042392 -10.421875 77.25390625 C-8.51421695 75.3462482 -7.01706419 73.44729138 -5.421875 71.25390625 C-0.11160246 72.7142312 4.04142532 75.23711611 8.578125 78.25390625 C7.7685004 84.48261818 4.36638186 87.46474472 -0.421875 91.25390625 C-11.36857166 97.7408376 -21.92189636 100.3165567 -34.5703125 97.5703125 C-43.40710163 94.58758676 -51.3067623 89.16431997 -56.421875 81.25390625 C-58.29875763 77.30700531 -59.85959447 73.34340528 -61.421875 69.25390625 C-72.806875 68.75890625 -72.806875 68.75890625 -84.421875 68.25390625 C-84.421875 62.97390625 -84.421875 57.69390625 -84.421875 52.25390625 C-76.831875 52.25390625 -69.241875 52.25390625 -61.421875 52.25390625 C-61.421875 47.63390625 -61.421875 43.01390625 -61.421875 38.25390625 C-69.011875 38.25390625 -76.601875 38.25390625 -84.421875 38.25390625 C-84.421875 32.97390625 -84.421875 27.69390625 -84.421875 22.25390625 C-76.501875 22.25390625 -68.581875 22.25390625 -60.421875 22.25390625 C-60.091875 20.27390625 -59.761875 18.29390625 -59.421875 16.25390625 C-56.55563227 7.43338547 -49.47786848 0.58282024 -41.421875 -3.68359375 C-27.6223561 -9.80964745 -12.505531 -9.01608444 0 0 Z " fill="#000000" transform="translate(394.421875,218.74609375)"/>
<path d="M0 0 C5.28 0 10.56 0 16 0 C16 5.28 16 10.56 16 16 C10.72 16 5.44 16 0 16 C0 10.72 0 5.44 0 0 Z " fill="#000000" transform="translate(349,420)"/>
<path d="M0 0 C5.28 0 10.56 0 16 0 C16 5.28 16 10.56 16 16 C10.72 16 5.44 16 0 16 C0 10.72 0 5.44 0 0 Z " fill="#000000" transform="translate(124,30)"/>
<path d="M0 0 C5.28 0 10.56 0 16 0 C16 5.28 16 10.56 16 16 C10.72 16 5.44 16 0 16 C0 10.72 0 5.44 0 0 Z " fill="#000000" transform="translate(94,30)"/>
</svg>
