<?xml version="1.0" encoding="UTF-8"?>
<svg version="1.1" xmlns="http://www.w3.org/2000/svg" width="512" height="512">
<path d="M0 0 C1.48662351 0.86909823 2.97356089 1.73766 4.4609375 2.60546875 C7.13055514 4.16786425 9.79332361 5.74127389 12.453125 7.3203125 C17.05588067 10.04469154 21.6907951 12.71220942 26.32714844 15.37890625 C29.67920943 17.30772949 33.02732736 19.24325986 36.375 21.1796875 C40.67507474 23.66582556 44.98801318 26.12692312 49.3125 28.5703125 C51.27109135 29.69225804 53.22943688 30.81463284 55.1875 31.9375 C56.52204224 32.67963745 56.52204224 32.67963745 57.88354492 33.43676758 C67.08381239 38.75698775 72.16971826 45.19447875 76 55 C81.88373244 53.8067444 87.49189523 52.28678795 93.140625 50.26171875 C94.30550194 49.85179687 94.30550194 49.85179687 95.49391174 49.43359375 C97.18865529 48.83676295 98.88260397 48.23767128 100.57583618 47.63656616 C105.28491102 45.96530595 110.00027913 44.31194642 114.71484375 42.65625 C115.74135544 42.29528732 116.76786713 41.93432465 117.82548523 41.56242371 C131.4456514 36.77912928 145.09866546 32.09087029 158.74980164 27.39688492 C161.48588748 26.45591455 164.22174334 25.51427648 166.95760441 24.57265282 C170.16561371 23.46862139 173.37381717 22.36515499 176.58203125 21.26171875 C177.7490004 20.86025635 178.91596954 20.45879395 180.11830139 20.04516602 C181.20179367 19.67278809 182.28528595 19.30041016 183.40161133 18.91674805 C184.3422493 18.5933696 185.28288727 18.26999115 186.25202942 17.93681335 C187.15885971 17.62766495 188.06569 17.31851654 189 17 C190.032957 16.63812088 191.065914 16.27624176 192.13017273 15.90339661 C199.52394937 13.57590018 208.42325646 13.77639136 215.5 17 C222.91007248 21.35233875 228.34739021 28.14074712 230.6875 36.4375 C231.67012201 44.49500046 230.85405564 51.63057671 226.359375 58.51171875 C219.92213208 66.33714574 211.67061666 71.04410439 203 76 C201.72648682 76.73259033 201.72648682 76.73259033 200.42724609 77.47998047 C194.66883722 80.78405393 188.88350211 84.0383656 183.08691406 87.27490234 C179.96878781 89.01744269 176.85501151 90.76753901 173.7421875 92.51953125 C161.18165038 99.58300687 148.58214544 106.56997913 135.90673828 113.42529297 C133.9242387 114.49929954 131.94351494 115.576589 129.96435547 116.65673828 C14.1137724 179.87892712 14.1137724 179.87892712 -20.25390625 170.66845703 C-35.46778562 165.90067312 -48.5810503 157.1557048 -61.53125 148.09765625 C-65.37373339 145.4146275 -69.26367525 142.83891819 -73.25 140.375 C-74.20390625 139.78460938 -75.1578125 139.19421875 -76.140625 138.5859375 C-82.93247742 134.81887182 -88.03238837 133.50511012 -95.6875 133.625 C-96.59363037 133.63080078 -97.49976074 133.63660156 -98.43334961 133.64257812 C-107.43452787 133.81063539 -116.20213768 135.09837693 -125.04321289 136.72460938 C-127 137 -127 137 -131 137 C-130.95359375 138.15757812 -130.9071875 139.31515625 -130.859375 140.5078125 C-130.82183752 142.04684906 -130.78543949 143.5859137 -130.75 145.125 C-130.71648437 145.88554687 -130.68296875 146.64609375 -130.6484375 147.4296875 C-130.55608345 152.78622233 -131.34410873 155.82356793 -135 160 C-139.69388646 163.8140007 -143.40808467 164.58077674 -149.296875 164.51757812 C-150.10741333 164.5245874 -150.91795166 164.53159668 -151.75305176 164.53881836 C-154.41905482 164.55635204 -157.08398708 164.54479247 -159.75 164.53125 C-161.61035362 164.53394625 -163.47070587 164.53782979 -165.33105469 164.54284668 C-169.22474623 164.54873545 -173.11807004 164.54019884 -177.01171875 164.52148438 C-181.99523186 164.49869516 -186.97788323 164.51182158 -191.96136475 164.53577423 C-195.80133522 164.55024903 -199.6411024 164.54561851 -203.4810791 164.53526306 C-205.31823835 164.53260042 -207.15541623 164.53584922 -208.99255371 164.54518127 C-211.56323934 164.55537473 -214.13254201 164.53980771 -216.703125 164.51757812 C-217.45758911 164.52567505 -218.21205322 164.53377197 -218.98937988 164.54211426 C-224.1532005 164.45965804 -227.08943922 163.35393153 -231 160 C-234.38494911 155.67388776 -235.50067067 152.87329387 -235.50793457 147.39648438 C-235.51921387 146.08429932 -235.53049316 144.77211426 -235.54211426 143.42016602 C-235.5343381 141.97802512 -235.52614549 140.53588642 -235.51757812 139.09375 C-235.5230019 137.56566705 -235.530126 136.03758934 -235.53881836 134.50952148 C-235.55702444 130.36897921 -235.54999557 126.22883645 -235.53730202 122.08828735 C-235.52716021 117.75090474 -235.53657097 113.41355586 -235.54284668 109.07617188 C-235.55011965 101.79290641 -235.54054461 94.5098033 -235.52148438 87.2265625 C-235.49971624 78.81152078 -235.50676787 70.39686674 -235.52879 61.98183441 C-235.54695401 54.75107256 -235.54949744 47.52042727 -235.53903532 40.28964996 C-235.53280587 35.97355293 -235.53194959 31.657638 -235.54518127 27.34155273 C-235.5567538 23.28335462 -235.54868885 19.22565533 -235.52560425 15.16751099 C-235.52032459 13.68003161 -235.52181827 12.19251011 -235.53065491 10.70504761 C-235.5416215 8.67121908 -235.52541659 6.63729859 -235.50793457 4.60351562 C-235.50567242 2.89790466 -235.50567242 2.89790466 -235.50336456 1.15783691 C-234.68951963 -3.94778585 -232.12391442 -7.03606357 -228.26855469 -10.34265137 C-224.32394906 -12.34279741 -221.02553808 -12.56396635 -216.703125 -12.51757812 C-215.4873175 -12.52809204 -215.4873175 -12.52809204 -214.24694824 -12.53881836 C-211.58094518 -12.55635204 -208.91601292 -12.54479247 -206.25 -12.53125 C-204.38964638 -12.53394625 -202.52929413 -12.53782979 -200.66894531 -12.54284668 C-196.77525377 -12.54873545 -192.88192996 -12.54019884 -188.98828125 -12.52148438 C-184.00476814 -12.49869516 -179.02211677 -12.51182158 -174.03863525 -12.53577423 C-170.19866478 -12.55024903 -166.3588976 -12.54561851 -162.5189209 -12.53526306 C-160.68176165 -12.53260042 -158.84458377 -12.53584922 -157.00744629 -12.54518127 C-154.43676066 -12.55537473 -151.86745799 -12.53980771 -149.296875 -12.51757812 C-148.54241089 -12.52567505 -147.78794678 -12.53377197 -147.01062012 -12.54211426 C-141.86830872 -12.4600015 -138.95362384 -11.2516831 -135 -8 C-131 -2.73684211 -131 -2.73684211 -131 0 C-130.37246826 -0.32685791 -129.74493652 -0.65371582 -129.09838867 -0.99047852 C-81.76085625 -25.51079429 -46.29521339 -27.32890548 0 0 Z " fill="#010000" transform="translate(235,340)"/>
<path d="M0 0 C3.78541453 2.87652829 7.43138723 5.85915198 11 9 C11.60972656 9.5259375 12.21945312 10.051875 12.84765625 10.59375 C33.35249641 29.59587137 44.33609633 58.26263765 45.92749023 85.66772461 C47.09375535 118.34278185 35.06992414 147.20065693 13 171 C-5.49110573 190.03319027 -32.42207286 202.5008022 -59.00390625 203.3359375 C-61.52329107 203.36606022 -64.04293757 203.37852207 -66.5625 203.375 C-67.55120087 203.37418427 -67.55120087 203.37418427 -68.55987549 203.37335205 C-79.54101814 203.33181094 -89.5566372 202.38494788 -100 199 C-100.6815918 198.78569336 -101.36318359 198.57138672 -102.06542969 198.35058594 C-116.29351879 193.76798059 -128.68612402 186.81286424 -140 177 C-140.80824219 176.33613281 -141.61648438 175.67226562 -142.44921875 174.98828125 C-162.6411053 157.83944197 -175.80888524 132.24162174 -179 106 C-181.2135639 71.6636738 -173.88265806 41.90092334 -151.14819336 15.5480957 C-112.9521979 -27.44968204 -46.2179967 -33.618295 0 0 Z " fill="#FDC827" transform="translate(411,77)"/>
<path d="M0 0 C5.35693624 3.14407852 10.73989533 6.24266092 16.12207031 9.34326172 C17.18683594 9.95943359 18.25160156 10.57560547 19.34863281 11.21044922 C24.42960319 14.14788522 29.51878845 17.06726324 34.64370728 19.92726135 C36.44118493 20.93151896 38.23542964 21.94132486 40.02880859 22.95288086 C42.27873749 24.21975269 44.53462689 25.4761185 46.79736328 26.7199707 C53.33419439 30.41804682 58.78541218 33.98244545 62.24707031 40.90576172 C62.83764775 46.58439097 62.54077937 51.07498844 59.24707031 55.90576172 C54.8646258 60.21808712 51.78613838 61.98636019 45.61035156 62.23388672 C38.10382873 61.19165876 31.2606851 56.18057769 24.83551025 52.4675293 C22.97377976 51.39231056 21.10863951 50.32322407 19.24267578 49.25537109 C13.5975928 46.01990502 7.97246187 42.75779435 2.39550781 39.40576172 C1.53602539 38.89335937 0.67654297 38.38095703 -0.20898438 37.85302734 C-1.77641828 36.91522474 -3.33746439 35.96662803 -4.890625 35.00537109 C-9.00929786 32.5475459 -11.81070376 31.27177355 -16.75292969 31.90576172 C-18.23792969 32.40076172 -18.23792969 32.40076172 -19.75292969 32.90576172 C-20.0304121 34.3173027 -20.27386485 35.73555971 -20.50292969 37.15576172 C-20.71175781 38.33912109 -20.71175781 38.33912109 -20.92480469 39.54638672 C-20.68053335 42.89956603 -19.24806156 43.70894675 -16.75292969 45.90576172 C-14.86421275 47.12161361 -12.93324959 48.2731033 -10.97558594 49.37451172 C-9.8319458 50.02266846 -8.68830566 50.6708252 -7.51000977 51.33862305 C-6.27862853 52.02792918 -5.04709869 52.71696991 -3.81542969 53.40576172 C-2.5529835 54.11702578 -1.29086047 54.82886369 -0.02905273 55.54125977 C1.88418273 56.62130983 3.79769195 57.70083742 5.71269226 58.77775574 C9.64537744 60.99121076 13.55552114 63.2390624 17.45019531 65.51904297 C18.38355713 66.06302734 19.31691895 66.60701172 20.27856445 67.16748047 C21.99218559 68.16802477 23.70257309 69.17413786 25.40893555 70.18701172 C34.96859643 75.73310485 44.0475425 78.78505322 55.11035156 76.24951172 C61.68164492 74.14088093 66.71166192 71.12929281 71.24707031 65.90576172 C72.02110723 64.2909548 72.77542296 62.66658832 73.51269531 61.03466797 C77.82247016 53.7794494 85.08704444 52.3086559 92.68457031 49.96826172 C94.29342748 49.44235367 95.90097807 48.91243479 97.50732422 48.37890625 C101.08145834 47.19515755 104.66080744 46.02917075 108.24365234 44.87207031 C118.38975206 41.57345376 128.45276436 38.02731464 138.53030396 34.52624512 C142.1111125 33.28456146 145.69416426 32.04958972 149.27807617 30.81689453 C159.34441883 27.35285132 169.40501725 23.88055222 179.41113281 20.24560547 C180.14878876 19.97862854 180.8864447 19.71165161 181.64645386 19.43658447 C184.90569743 18.25580661 188.15947216 17.06414063 191.40673828 15.85058594 C203.46878545 11.45257523 203.46878545 11.45257523 210.49707031 14.15576172 C213.33731553 15.9631905 214.77964511 16.8893877 216.24707031 19.90576172 C216.95483143 26.17450305 216.26539203 28.8237666 212.24707031 33.90576172 C210.02459348 35.58919424 207.94361749 37.00281015 205.55957031 38.40576172 C204.87531982 38.82100098 204.19106934 39.23624023 203.48608398 39.6640625 C194.95841722 44.78010465 186.23905522 49.57457491 177.54394531 54.39794922 C171.93360078 57.51272813 166.36758798 60.69888228 160.80957031 63.90576172 C150.84944774 69.63254499 140.74181153 75.07143566 130.61035156 80.48779297 C126.73684435 82.56055536 122.87765819 84.65402797 119.04003906 86.79248047 C88.47806791 103.8017081 56.88391578 119.56397795 24.18457031 132.03076172 C23.22695801 132.39766113 22.2693457 132.76456055 21.28271484 133.14257812 C6.90458815 138.46469937 -6.37392141 140.13372481 -20.75292969 133.90576172 C-31.14596258 129.01424569 -40.43317416 122.85337611 -49.80957031 116.26074219 C-74.10962137 99.31786739 -92.35752908 97.46136429 -121.25195312 101.63037109 C-123.75292969 101.90576172 -123.75292969 101.90576172 -128.75292969 101.90576172 C-128.75292969 68.57576172 -128.75292969 35.24576172 -128.75292969 0.90576172 C-74.74515227 -26.96922017 -50.55421989 -29.78678484 0 0 Z " fill="#FEC59F" transform="translate(232.7529296875,358.09423828125)"/>
<path d="M0 0 C3.78541453 2.87652829 7.43138723 5.85915198 11 9 C11.60972656 9.5259375 12.21945312 10.051875 12.84765625 10.59375 C33.35249641 29.59587137 44.33609633 58.26263765 45.92749023 85.66772461 C47.09375535 118.34278185 35.06992414 147.20065693 13 171 C-5.49110573 190.03319027 -32.42207286 202.5008022 -59.00390625 203.3359375 C-61.52329107 203.36606022 -64.04293757 203.37852207 -66.5625 203.375 C-67.55120087 203.37418427 -67.55120087 203.37418427 -68.55987549 203.37335205 C-79.54101814 203.33181094 -89.5566372 202.38494788 -100 199 C-100.6815918 198.78569336 -101.36318359 198.57138672 -102.06542969 198.35058594 C-116.29351879 193.76798059 -128.68612402 186.81286424 -140 177 C-140.80824219 176.33613281 -141.61648438 175.67226562 -142.44921875 174.98828125 C-162.6411053 157.83944197 -175.80888524 132.24162174 -179 106 C-181.2135639 71.6636738 -173.88265806 41.90092334 -151.14819336 15.5480957 C-112.9521979 -27.44968204 -46.2179967 -33.618295 0 0 Z M-116 8 C-117.12664062 8.67933594 -118.25328125 9.35867187 -119.4140625 10.05859375 C-141.08324873 24.15132227 -156.09745758 45.9718862 -161.91967773 71.14746094 C-164.80249011 85.83868439 -163.9818001 101.61746343 -160 116 C-159.58234375 117.52753906 -159.58234375 117.52753906 -159.15625 119.0859375 C-151.72719355 143.48654532 -135.14601066 163.57845157 -113 176 C-90.79587626 187.62129861 -64.28723689 190.75627485 -40.1484375 183.625 C-22.87210487 178.14500602 -9.67781994 169.85809467 3 157 C3.74894531 156.26136719 4.49789062 155.52273437 5.26953125 154.76171875 C19.48784885 139.8703447 27.85107332 118.41956053 29 98 C29.07734375 96.72382813 29.1546875 95.44765625 29.234375 94.1328125 C29.99257887 75.57164286 25.6142465 57.88820909 16 42 C15.32066406 40.87335938 14.64132812 39.74671875 13.94140625 38.5859375 C-0.37780627 16.56850614 -21.81048521 2.4104741 -47.2890625 -3.4921875 C-71.0840819 -7.94946779 -95.19830343 -4.58748783 -116 8 Z " fill="#010100" transform="translate(411,77)"/>
<path d="M0 0 C23.76 0 47.52 0 72 0 C72 47.52 72 95.04 72 144 C48.24 144 24.48 144 0 144 C0 96.48 0 48.96 0 0 Z " fill="#5399D3" transform="translate(16,344)"/>
<path d="M0 0 C0.98154053 0.01466309 1.96308105 0.02932617 2.97436523 0.04443359 C48.81081076 1.20578628 89.36780083 23.52514001 120.5 56.125 C148.22946154 86.65307846 162.43863411 126.64130141 162.25 167.5625 C162.24817719 168.38142731 162.24635437 169.20035461 162.24447632 170.0440979 C162.19935434 182.07549965 161.78301689 193.69656387 158.9375 205.4375 C158.77652832 206.15212402 158.61555664 206.86674805 158.44970703 207.60302734 C153.06973426 231.11262976 142.11968831 253.72109737 126.9375 272.4375 C126.50147461 272.97503906 126.06544922 273.51257813 125.61621094 274.06640625 C112.23079895 290.46757915 97.14516984 303.62607008 78.9375 314.4375 C78.35419922 314.78409668 77.77089844 315.13069336 77.16992188 315.48779297 C50.92761885 330.8198081 21.94904225 336.29017746 -8.0625 337.4375 C-7.12277344 338.34242188 -7.12277344 338.34242188 -6.1640625 339.265625 C-5.34679687 340.06484375 -4.52953125 340.8640625 -3.6875 341.6875 C-2.87539063 342.47640625 -2.06328125 343.2653125 -1.2265625 344.078125 C1.69523087 347.26361813 2.99381868 349.08585158 2.8125 353.4375 C1.80371518 356.8961908 0.7710744 358.25159975 -2.0625 360.4375 C-3.875 361.375 -3.875 361.375 -6.0625 361.4375 C-11.35311836 359.55270487 -14.96180152 357.14534684 -18.92578125 353.140625 C-19.44383835 352.62876648 -19.96189545 352.11690796 -20.49565125 351.58953857 C-21.58029366 350.511954 -22.65990335 349.42928189 -23.73461914 348.34179688 C-25.37267319 346.68984655 -27.03336004 345.06336084 -28.69726562 343.4375 C-29.75405663 342.38166011 -30.80944467 341.32441373 -31.86328125 340.265625 C-32.35597 339.78619446 -32.84865875 339.30676392 -33.35627747 338.81280518 C-36.77693842 335.29848779 -38.38701586 332.301527 -39.0625 327.4375 C-37.40691314 322.50908674 -34.2469086 319.20405405 -30.58984375 315.63671875 C-29.80426842 314.85395317 -29.80426842 314.85395317 -29.00282288 314.05537415 C-27.90276999 312.96200433 -26.79914469 311.87221808 -25.69213867 310.78588867 C-23.99452224 309.11962341 -22.30799307 307.4427395 -20.62304688 305.76367188 C-19.55010295 304.69989131 -18.47655627 303.63671827 -17.40234375 302.57421875 C-16.89710678 302.07323166 -16.39186981 301.57224457 -15.87132263 301.05607605 C-12.43638311 297.69125309 -11.08146281 296.51967442 -6.1875 296.125 C-3.11395256 296.16962501 -2.24256264 296.31284125 0.375 298.125 C2.16599814 300.77567724 2.86116259 302.23132862 2.9375 305.4375 C1.00018126 311.00729138 -2.83478793 314.52252279 -7.0625 318.4375 C29.38856838 320.53238899 65.92128028 305.96315123 93.125 282 C94.73862412 280.48920487 96.34262049 278.96806985 97.9375 277.4375 C98.81921875 276.61894531 99.7009375 275.80039062 100.609375 274.95703125 C111.99560133 264.06935438 120.65334005 251.35489497 127.9375 237.4375 C128.54335938 236.27992188 129.14921875 235.12234375 129.7734375 233.9296875 C134.84485144 223.8554664 138.10473588 213.3299927 140.9375 202.4375 C141.28039062 201.16390625 141.62328125 199.8903125 141.9765625 198.578125 C146.37226669 178.77691545 146.17094766 154.01299125 140.9375 134.4375 C140.75477539 133.69564453 140.57205078 132.95378906 140.38378906 132.18945312 C135.57094665 112.82744341 127.19547215 94.23054277 114.9375 78.4375 C114.35226562 77.633125 113.76703125 76.82875 113.1640625 76 C99.60514638 58.00039082 82.55951524 45.04916232 62.9375 34.4375 C62.15761719 33.98890625 61.37773437 33.5403125 60.57421875 33.078125 C43.08074993 23.50798575 22.67411316 19.51764227 3.01806641 18.1706543 C-2.26240881 17.7903843 -7.09926316 17.34745399 -12.0625 15.4375 C-14.20541019 12.22313471 -14.36275791 10.26323391 -14.5234375 6.47265625 C-12.83939469 -0.96282089 -6.16862386 -0.14663338 0 0 Z " fill="#000000" transform="translate(350.0625,-0.4375)"/>
<path d="M0 0 C3.5625 0.625 3.5625 0.625 6.5 2.375 C9.60854785 7.27331783 8.96798806 11.97519972 8.5625 17.625 C9.7690625 17.6559375 9.7690625 17.6559375 11 17.6875 C19.03528305 19.80204817 24.17221198 25.78265348 28.46875 32.609375 C30.71891766 36.75611255 31.3841816 40.98436643 30.5625 45.625 C27.99671091 48.6435754 26.3815279 49.4745663 22.5 50.1875 C19.5625 49.625 19.5625 49.625 17.4375 47.625 C15.96293682 45.26569892 14.83331754 43.07484583 13.6875 40.5625 C11.68688214 36.49201212 9.81551482 34.51522881 5.5625 32.625 C0.47739693 31.82993502 -3.2585772 32.02482112 -7.875 34.375 C-12.1163221 38.0386243 -12.1163221 38.0386243 -13.73046875 43.203125 C-13.67826172 44.52570313 -13.67826172 44.52570313 -13.625 45.875 C-13.59792969 46.76703125 -13.57085937 47.6590625 -13.54296875 48.578125 C-13.49076172 49.59132813 -13.49076172 49.59132813 -13.4375 50.625 C-7.81557348 52.83361399 -2.55718402 53.93864119 3.4375 54.5625 C14.46878096 55.810574 21.86128855 57.74169716 29.1015625 66.50390625 C32.93522704 72.06989514 32.05632122 79.16299665 31.5625 85.625 C29.55852931 93.78574813 23.93741597 99.93884239 17.5 105.0625 C14.44166617 106.68927331 11.99433062 107.29815899 8.5625 107.625 C8.60890625 108.43324219 8.6553125 109.24148437 8.703125 110.07421875 C8.99412233 118.68981828 8.99412233 118.68981828 7.0625 122.875 C4.03544253 124.99394023 2.116017 125.37173081 -1.53125 125.0859375 C-3.4375 124.625 -3.4375 124.625 -5.9375 122.875 C-8.23525826 117.89652376 -7.74727833 113.02030594 -7.4375 107.625 C-8.241875 107.604375 -9.04625 107.58375 -9.875 107.5625 C-17.19405105 105.63643393 -22.06703576 100.72963239 -25.9375 94.375 C-28.75678199 89.33161777 -29.95106538 85.47964538 -29.4375 79.625 C-27.875 77.1875 -27.875 77.1875 -25.4375 75.625 C-21.7298942 75.09534203 -19.50273877 74.93572785 -16.3125 77 C-14.51182624 79.52094327 -13.39422433 81.87384737 -12.125 84.6875 C-10.33488066 88.40459795 -9.67504233 89.47543631 -6.0625 91.75 C-0.94316918 92.98570054 2.74321906 93.26709915 7.75 91.5 C11.2312511 89.17916594 12.74212405 87.40578081 14.5625 83.625 C14.8705963 80.58379134 14.76271722 77.66799006 14.5625 74.625 C7.40248654 71.93958905 0.50580025 70.75556111 -7.06445312 69.89648438 C-14.23245047 68.96248935 -21.11626253 67.06458331 -25.8125 61.1875 C-26.27398437 60.63191406 -26.73546875 60.07632813 -27.2109375 59.50390625 C-31.43648068 53.03102004 -31.21446857 46.10843411 -30.4375 38.625 C-28.03852936 30.46849982 -22.40180506 23.71351317 -15.21484375 19.2421875 C-10.17263986 16.625 -10.17263986 16.625 -7.4375 16.625 C-7.48390625 15.88894531 -7.5303125 15.15289062 -7.578125 14.39453125 C-7.86986869 6.50703213 -7.86986869 6.50703213 -5.875 2.4375 C-3.4375 0.625 -3.4375 0.625 0 0 Z " fill="#040300" transform="translate(343.4375,105.375)"/>
<path d="M0 0 C0.33 0.99 0.66 1.98 1 3 C-1.61059222 7.99300929 -4.93608744 10.70391369 -9.6875 13.5 C-10.37175049 13.91523926 -11.05600098 14.33047852 -11.76098633 14.75830078 C-20.28865309 19.87434293 -29.0080151 24.66881319 -37.703125 29.4921875 C-43.31346953 32.60696641 -48.87948233 35.79312056 -54.4375 39 C-64.39762257 44.72678328 -74.50525879 50.16567395 -84.63671875 55.58203125 C-88.51022596 57.65479365 -92.36941212 59.74826626 -96.20703125 61.88671875 C-126.7690024 78.89594638 -158.36315453 94.65821624 -191.0625 107.125 C-192.0201123 107.49189941 -192.97772461 107.85879883 -193.96435547 108.23681641 C-208.34248216 113.55893765 -221.62099172 115.22796309 -236 109 C-246.39303289 104.10848397 -255.68024447 97.94761439 -265.05664062 91.35498047 C-289.35669169 74.41210567 -307.60459939 72.55560258 -336.49902344 76.72460938 C-339.0209243 77.00230404 -341.46507085 77.04772166 -344 77 C-344 74.36 -344 71.72 -344 69 C-315.965254 64.13732465 -296.22534856 62.19772803 -272.16015625 78.98046875 C-270.44815128 80.25985613 -268.7385701 81.5424924 -267.03125 82.828125 C-256.4680575 90.39659797 -245.09656386 97.20636883 -233 102 C-232.33613281 102.26425781 -231.67226562 102.52851563 -230.98828125 102.80078125 C-193.12493183 114.87434386 -139.36900748 76.65680644 -106.85021973 59.9576416 C-99.74268124 56.2789031 -92.74580241 52.40044578 -85.75048828 48.51416016 C-81.61786179 46.2391247 -77.45554659 44.02035882 -73.29541016 41.79614258 C-61.73072305 35.61020372 -50.28916924 29.24783177 -38.93310547 22.68798828 C-35.54588956 20.7386616 -32.15057888 18.80387795 -28.75390625 16.87109375 C-27.4881027 16.15025558 -26.22231497 15.42938966 -24.95654297 14.70849609 C-23.09384583 13.64766787 -21.2309541 12.58719291 -19.36724854 11.52813721 C-12.82643988 7.81007852 -6.34220044 4.04871098 0 0 Z " fill="#FAAB78" transform="translate(448,383)"/>
<path d="M0 0 C1.25578614 3.56776326 0.66752058 5.62687812 -0.4375 9.1875 C-4.08788092 24.05817619 -3.47771636 41.38405793 1 56 C1.19867676 56.69109863 1.39735352 57.38219727 1.60205078 58.09423828 C6.02859247 73.39647789 12.58346613 85.81795191 23 98 C23.4434375 98.5878125 23.886875 99.175625 24.34375 99.78125 C38.44863499 118.01439402 63.36004602 129.00816641 85.484375 132.67919922 C99.89817409 134.51729433 114.67247768 132.8529821 129 131 C118.73751733 141.26248267 96.53190591 142.11677881 83 142.3125 C58.9427131 142.19272325 35.83231435 132.56644259 18.70703125 115.73828125 C17.81371094 114.83464844 16.92039062 113.93101562 16 113 C14.79923828 111.81470703 14.79923828 111.81470703 13.57421875 110.60546875 C-5.01675193 91.24388789 -11.71056197 65.40206762 -11.34375 39.15234375 C-10.82222073 25.27749205 -6.4782629 12.19961536 0 0 Z " fill="#E8AF00" transform="translate(259,122)"/>
<path d="M0 0 C2.64 0 5.28 0 8 0 C8.00146656 0.67145176 8.00293312 1.34290352 8.00444412 2.0347023 C8.04148548 18.36780295 8.10046442 34.70066172 8.18390274 51.03358841 C8.22372305 58.93206374 8.25610026 66.830439 8.27099609 74.72900391 C8.2839972 81.61289348 8.31092209 88.49656315 8.35461307 95.38032889 C8.37726296 99.02575554 8.3929086 102.67091062 8.39188385 106.31641388 C8.391001 110.38475731 8.42120179 114.45229734 8.45410156 118.52050781 C8.4490712 119.73107346 8.44404083 120.9416391 8.43885803 122.18888855 C8.45277084 123.29664139 8.46668365 124.40439423 8.48101807 125.54571533 C8.48470524 126.50806721 8.48839241 127.47041908 8.49219131 128.46193314 C9.14956885 131.74755661 10.40382227 132.94558912 13 135 C15.77484218 135.61338103 15.77484218 135.61338103 18.87011719 135.54589844 C20.05103943 135.56561707 21.23196167 135.58533569 22.44866943 135.60565186 C23.71857727 135.60688049 24.98848511 135.60810913 26.296875 135.609375 C27.60078186 135.62591125 28.90468872 135.64244751 30.24810791 135.65948486 C33.70701979 135.70312939 37.16567822 135.72315054 40.62481689 135.73822021 C44.15758229 135.75780216 47.69007438 135.79977078 51.22265625 135.83984375 C58.1483344 135.91511377 65.07400242 135.96542445 72 136 C72 138.64 72 141.28 72 144 C48.24 144 24.48 144 0 144 C0 96.48 0 48.96 0 0 Z " fill="#3487CA" transform="translate(16,344)"/>
<path d="M0 0 C2.5625 2.0625 2.5625 2.0625 4 5 C4.125 8.5 4.125 8.5 3 12 C1.00893029 13.99106971 -0.71985505 15.416301 -3 17 C-12.21452728 23.73238525 -19.17527507 30.86246639 -24.67578125 40.93359375 C-26 43 -26 43 -29 45 C-31.875 45.4375 -31.875 45.4375 -35 45 C-37.875 42.875 -37.875 42.875 -40 40 C-40.73736205 34.6955077 -38.90912732 31.43740159 -36 27.1875 C-35.58919189 26.57366455 -35.17838379 25.9598291 -34.75512695 25.32739258 C-27.7619306 15.06738028 -13.94287797 -2.68778371 0 0 Z " fill="#050400" transform="translate(312,98)"/>
<path d="M0 0 C1.69921875 1.1171875 1.69921875 1.1171875 3 3 C3.3984375 6.1796875 3.3984375 6.1796875 3.375 9.875 C3.38273437 11.08929688 3.39046875 12.30359375 3.3984375 13.5546875 C2.97678926 17.20070465 2.19687918 19.09583288 0 22 C-2.88861709 23.44430855 -4.79647701 23.37688506 -8 23 C-10.875 21.3125 -10.875 21.3125 -13 18 C-13.83785058 12.3099017 -14.38406887 7.06053607 -11.08984375 2.15625 C-7.36990027 -1.6818973 -5.11392817 -1.07661646 0 0 Z " fill="#060400" transform="translate(277,153)"/>
<path d="M0 0 C2.66589042 0.54323805 3.75768995 0.96351964 5.875 2.75 C7.21538506 5.84964046 7.42167869 7.71409302 6.875 11.0625 C4.41905875 14.38524404 2.9493356 15.83868008 -1.125 16.6875 C-5.1993356 15.83868008 -6.66905875 14.38524404 -9.125 11.0625 C-9.75 8.0625 -9.75 8.0625 -9.125 5.0625 C-6.50620524 1.2161452 -4.62486834 -0.35838463 0 0 Z " fill="#030609" transform="translate(41.125,455.9375)"/>
<path d="M0 0 C0.6875 1.6875 0.6875 1.6875 1 4 C-1.26153846 8.63076923 -1.26153846 8.63076923 -4 10 C-2.8905928 6.51329166 -1.73662334 3.22515763 0 0 Z " fill="#CF9D02" transform="translate(259,122)"/>
</svg>
