<?xml version="1.0" encoding="UTF-8"?>
<svg version="1.1" xmlns="http://www.w3.org/2000/svg" width="512" height="512">
<path d="M0 0 C6.12835073 6.59305979 10.36448768 15.61313668 10.38422108 24.64688969 C10.38867892 25.59555379 10.39313676 26.54421789 10.39772969 27.52162939 C10.39754533 28.56081265 10.39736097 29.5999959 10.39717102 30.67066956 C10.40084771 31.77705227 10.4045244 32.88343499 10.4083125 34.02334446 C10.41935751 37.74416463 10.42319459 41.46495689 10.42700195 45.18579102 C10.43326602 47.8483039 10.43989999 50.51081379 10.44691467 53.17332458 C10.46666621 61.17325916 10.47674411 69.17319497 10.48564246 77.17314783 C10.49002794 80.94282975 10.49539411 84.71251027 10.50063133 88.48219109 C10.5176431 101.01788447 10.53213616 113.55357698 10.53938007 126.08928013 C10.54128989 129.34150252 10.54321023 132.5937249 10.54516602 135.84594727 C10.54564976 136.65424706 10.5461335 137.46254686 10.5466319 138.29534059 C10.55492804 151.38241497 10.58025815 164.46939782 10.61274669 177.55643225 C10.64584841 191.00037137 10.66383169 204.44426402 10.66702431 217.88824409 C10.66918665 225.43336694 10.67789451 232.97835635 10.70348549 240.52343941 C10.72523517 246.95074429 10.73322207 253.37788334 10.72351871 259.80522085 C10.7189861 263.08161563 10.72299905 266.35759853 10.74028015 269.63396072 C10.75800699 273.19474178 10.75088781 276.75466275 10.73774719 280.31544495 C10.74871644 281.33901315 10.75968568 282.36258135 10.77098733 283.41716677 C10.6781476 293.87860002 7.52756323 303.27247391 0.25 310.9375 C-7.95855228 318.56225438 -16.7214139 321.55519107 -27.84765625 321.41015625 C-38.09301154 320.96301551 -46.48767348 316.58962848 -53.4375 309.125 C-60.25293024 300.67386651 -62.35047148 292.08377079 -62.25793457 281.40014648 C-62.26417453 280.27976455 -62.2704145 279.15938261 -62.27684355 278.00504971 C-62.29272399 274.27267993 -62.28018801 270.5409677 -62.26757812 266.80859375 C-62.27300144 264.12385163 -62.27998124 261.43915393 -62.28881836 258.75442505 C-62.3065572 252.23251789 -62.3027844 245.7107954 -62.2911678 239.18888116 C-62.28211541 233.8859864 -62.28091726 228.5831432 -62.28526306 223.28024292 C-62.28587599 222.52403607 -62.28648893 221.76782922 -62.28712043 220.98870701 C-62.2883994 219.45224164 -62.28969625 217.9157763 -62.2910108 216.37931097 C-62.30240301 201.98915465 -62.28932427 187.59910045 -62.26780933 173.20896089 C-62.24993956 160.87525875 -62.25304406 148.54170723 -62.27148438 136.20800781 C-62.29291515 121.86755045 -62.3013045 107.52718246 -62.28903532 93.18671131 C-62.28776119 91.65605991 -62.28650371 90.1254085 -62.28526306 88.59475708 C-62.28433741 87.46524326 -62.28433741 87.46524326 -62.28339306 86.31291097 C-62.27994677 81.019529 -62.2857529 75.72620396 -62.29518127 70.43283081 C-62.30642722 63.97743469 -62.30330696 57.522233 -62.2820583 51.06685901 C-62.27158245 47.77639074 -62.26953799 44.48631108 -62.28065491 41.19583511 C-62.2916149 37.62185372 -62.27783953 34.04877753 -62.25793457 30.47485352 C-62.26685746 29.44468329 -62.27578034 28.41451307 -62.28497362 27.35312557 C-62.176073 17.24507966 -58.88519467 8.33630836 -51.84765625 0.9375 C-37.29426727 -12.97646064 -15.25195806 -13.65349957 0 0 Z M-41.2421875 13.046875 C-46.13414534 19.1808325 -46.18215269 25.37479111 -46.13768005 32.89976501 C-46.14306559 33.99449349 -46.14845113 35.08922197 -46.15399987 36.21712404 C-46.16829201 39.88045986 -46.16117238 43.54343498 -46.15405273 47.20678711 C-46.15975561 49.83520295 -46.16671954 52.46361631 -46.17485046 55.09202576 C-46.19202786 61.48730766 -46.19288072 67.88249126 -46.18763756 74.27779024 C-46.18359275 79.47684041 -46.1850431 84.67586157 -46.19038582 89.87491035 C-46.19113424 90.61544895 -46.19188266 91.35598755 -46.19265376 92.11896672 C-46.19418527 93.62346614 -46.19572362 95.12796555 -46.19726873 96.63246495 C-46.21098987 110.73448334 -46.20555874 124.83644622 -46.19408352 138.93846334 C-46.18415089 151.83338928 -46.19709297 164.72817173 -46.22101771 177.62307554 C-46.24541293 190.8716161 -46.25501559 204.12008984 -46.24836498 217.3686524 C-46.24487378 224.80351374 -46.2470983 232.23826472 -46.26461601 239.67310905 C-46.28088345 246.66386987 -46.27614977 253.6543522 -46.25731087 260.64510536 C-46.25361996 263.21055422 -46.25674797 265.77602332 -46.26719666 268.34145355 C-46.28037299 271.84403675 -46.26888735 275.34570746 -46.25120544 278.84825134 C-46.26081045 279.86294792 -46.27041546 280.87764449 -46.28031152 281.92308944 C-46.20970794 288.7225404 -45.08335059 294.3426962 -40.33813947 299.46010059 C-34.99655012 304.19513951 -30.28673523 305.42882427 -23.30859375 305.2421875 C-18.17914279 304.63135212 -14.4661125 302.79568718 -10.95703125 298.99609375 C-7.49620311 294.53236529 -5.62847516 291.14544241 -5.61577892 285.40524769 C-5.61132108 284.47065812 -5.60686324 283.53606855 -5.60227031 282.57315809 C-5.60245467 281.54457942 -5.60263903 280.51600076 -5.60282898 279.45625305 C-5.59915229 278.36494227 -5.5954756 277.27363149 -5.5916875 276.14925069 C-5.58062914 272.47360058 -5.57680317 268.79797872 -5.57299805 265.12231445 C-5.56673504 262.49449066 -5.56008839 259.86666775 -5.55308533 257.23884583 C-5.53332281 249.33936336 -5.52325485 241.43987961 -5.51435754 233.5403786 C-5.50997417 229.82011776 -5.50460747 226.09985834 -5.49936867 222.37959862 C-5.48235638 210.01207557 -5.46786238 197.64455341 -5.46061993 185.27702045 C-5.45871004 182.06757417 -5.45678971 178.8581279 -5.45483398 175.64868164 C-5.45410837 174.45214698 -5.45410837 174.45214698 -5.4533681 173.23143991 C-5.44506843 160.31040443 -5.41973259 147.38946155 -5.38725331 134.4684665 C-5.35417754 121.20198544 -5.33617069 107.93555144 -5.33297569 94.66902894 C-5.33081103 87.22067822 -5.32206905 79.77246252 -5.29651451 72.32415199 C-5.27480038 65.9805455 -5.26676052 59.63710682 -5.27648129 53.29346738 C-5.28102408 50.05795445 -5.27695647 46.82285976 -5.25971985 43.58737946 C-5.2420593 40.0758488 -5.24907946 36.56519607 -5.26225281 33.05366516 C-5.25128356 32.03624011 -5.24031432 31.01881506 -5.22901267 29.97055894 C-5.2997351 22.16034806 -7.00034146 16.81504964 -12.4375 11.125 C-22.73221775 4.32660149 -31.83666523 5.14078382 -41.2421875 13.046875 Z " fill="#000000" transform="translate(237.75,111.0625)"/>
<path d="M0 0 C7.01582925 5.67586907 12.27337773 13.00567445 14 22 C14.10227155 24.68547565 14.1521464 27.34538794 14.15390015 30.03100586 C14.16047353 31.25462326 14.16047353 31.25462326 14.1671797 32.50296021 C14.18054901 35.24025708 14.18674244 37.97752177 14.19287109 40.71484375 C14.20077369 42.6762354 14.20904274 44.6376256 14.21765137 46.59901428 C14.24385884 53.04516209 14.25918032 59.49131634 14.2734375 65.9375 C14.27879819 68.15861007 14.2841757 70.37972009 14.28956985 72.60083008 C14.311199 81.84328651 14.32993383 91.08574121 14.34119225 100.32821655 C14.35741853 113.56101666 14.3905641 126.79352254 14.44759309 140.02621174 C14.48634619 149.3368063 14.50583146 158.64732234 14.51111281 167.95799541 C14.51475961 173.51517072 14.52670934 179.07203212 14.55921555 184.62911987 C14.58938956 189.86262157 14.59557466 195.09562097 14.58383179 200.32919121 C14.58361182 202.2431164 14.59185305 204.15706552 14.60948563 206.0709095 C14.73091941 220.01811344 13.44461349 231.43719122 3.3203125 242.0234375 C-6.29411664 250.21350677 -15.8825172 251.7453266 -28.05566406 251.17919922 C-36.51704704 250.39935805 -43.97041001 245.24412835 -49.6875 239.22265625 C-58.70171829 228.20277439 -58.57688647 216.15244027 -58.50170898 202.64233398 C-58.50549741 200.69636648 -58.51100175 198.75040167 -58.51808167 196.80444336 C-58.53198428 191.5462107 -58.52090342 186.28830717 -58.50437045 181.03009295 C-58.49046685 175.51347297 -58.49698599 169.99687107 -58.50050354 164.48023987 C-58.50320124 155.21927621 -58.48976712 145.9584425 -58.46655273 136.69750977 C-58.43993799 126.00638538 -58.43820009 115.31547806 -58.4499411 104.62433189 C-58.46073746 94.31774916 -58.45451772 84.01124458 -58.44038582 73.70466805 C-58.43464294 69.32811691 -58.4346953 64.95162328 -58.43945122 60.57507133 C-58.4442398 55.41786612 -58.43404156 50.2608972 -58.41249657 45.10373688 C-58.4069544 43.21640634 -58.40643965 41.32905298 -58.41144943 39.44172096 C-58.44534702 24.83476906 -57.65533642 14.10206346 -47.18359375 3.08984375 C-34.07020737 -9.38774208 -14.64893237 -10.2256313 0 0 Z M-38.5546875 17.8671875 C-41.86042472 22.7453835 -42.29164301 27.17428671 -42.26742554 32.95039368 C-42.27195665 33.74531398 -42.27648776 34.54023429 -42.28115618 35.35924309 C-42.29380505 38.0199095 -42.2921795 40.68037133 -42.29052734 43.34106445 C-42.29651231 45.24998233 -42.30331778 47.15889779 -42.31088257 49.06781006 C-42.3285535 54.25178304 -42.33323843 59.43568999 -42.33451414 64.61969018 C-42.33593573 67.8592569 -42.3402055 71.09880682 -42.34550858 74.33836937 C-42.3640128 85.64250123 -42.37217874 96.94658592 -42.37060547 108.25073242 C-42.36940412 118.78387755 -42.39050428 129.31681776 -42.4220928 139.84991103 C-42.44825501 148.89635631 -42.45897278 157.94273465 -42.45769465 166.98921746 C-42.45718498 172.39081188 -42.46287095 177.7922242 -42.48405075 183.1937809 C-42.50343198 188.27540965 -42.50355827 193.35668259 -42.48901749 198.43832397 C-42.48692812 200.30070198 -42.49163788 202.16310225 -42.5037384 204.02544212 C-42.51921927 206.57359592 -42.50986461 209.12052715 -42.49447632 211.6686554 C-42.50476344 212.40067698 -42.51505057 213.13269857 -42.52564943 213.88690263 C-42.44197206 220.18351774 -40.43304872 225.53893152 -35.96484375 230.05859375 C-35.29582031 230.51363281 -34.62679688 230.96867188 -33.9375 231.4375 C-33.26589844 231.91058594 -32.59429687 232.38367188 -31.90234375 232.87109375 C-27.20380594 235.65934309 -22.29504113 235.55778623 -17 235 C-11.07212684 233.20522872 -7.48300537 230.01962539 -4 225 C-1.82105706 220.71871507 -1.71053356 216.71980029 -1.72584534 212.01164246 C-1.72060866 211.2126386 -1.71537198 210.41363474 -1.70997661 209.59041864 C-1.69498768 206.91594118 -1.69427171 204.24165523 -1.69360352 201.56713867 C-1.6859813 199.6483681 -1.67755369 197.72960058 -1.66838074 195.81083679 C-1.64643525 190.60001221 -1.63763677 185.38924631 -1.63255429 180.17838073 C-1.62891083 176.92206295 -1.62267082 173.66576054 -1.6155529 170.40944862 C-1.59105838 159.04696604 -1.57800647 147.68452912 -1.57446289 136.32202148 C-1.57082747 125.73430422 -1.54093152 115.14687682 -1.49905831 104.55924815 C-1.46435765 95.46609383 -1.44891449 86.37303558 -1.44821686 77.2798155 C-1.44742398 71.85022742 -1.43868015 66.42093463 -1.41021919 60.99141502 C-1.38404254 55.88346793 -1.38183127 50.77606102 -1.39787483 45.66807747 C-1.39968962 43.79601743 -1.39299591 41.92392635 -1.37705612 40.05193329 C-0.88700078 28.02822239 -0.88700078 28.02822239 -5.6404562 17.36908436 C-6.08910565 16.91728652 -6.53775511 16.46548868 -7 16 C-7.47609994 15.50750857 -7.95219988 15.01501715 -8.44272709 14.50760174 C-12.48375558 10.76982126 -16.4819804 9.27369778 -21.875 8.6875 C-29.45603499 9.4456035 -33.65692574 12.05821425 -38.5546875 17.8671875 Z " fill="#000000" transform="translate(322,181)"/>
<path d="M0 0 C7.81972462 5.67028935 12.68146603 13.24614605 15.37890625 22.4921875 C15.77023703 25.36857661 15.78952604 28.19375145 15.7665863 31.09359741 C15.77197184 31.92233828 15.77735738 32.75107915 15.78290612 33.60493338 C15.79713257 36.36226473 15.79009518 39.11911239 15.78295898 41.87646484 C15.78866536 43.86139815 15.79563066 45.84632818 15.80375671 47.83125305 C15.82167441 53.20942588 15.82052222 58.58743541 15.81481433 63.9656291 C15.81172023 68.46105864 15.81781746 72.95645692 15.82385308 77.451882 C15.83789238 88.06039579 15.83634217 98.66882904 15.82495117 109.27734375 C15.81347262 120.20871278 15.82754266 131.13983639 15.85434765 142.07117307 C15.87652519 151.46845803 15.88313732 160.86566607 15.87727123 170.26297534 C15.87390514 175.87025557 15.87629366 181.47737854 15.89352226 187.08463669 C15.90902179 192.35920498 15.90500231 197.63341059 15.88621712 202.90796471 C15.88253947 204.83883916 15.88561555 206.76974066 15.89610291 208.70059013 C15.96721984 222.88163163 14.96418748 232.62259874 4.74609375 243.29296875 C-3.82801566 251.25868426 -12.95623491 253.18263423 -24.53515625 252.87109375 C-33.51267621 252.28615025 -41.56190164 248.05631228 -47.62109375 241.4921875 C-48.08 241.00363281 -48.53890625 240.51507813 -49.01171875 240.01171875 C-57.75497892 229.34599475 -57.19686111 215.25782896 -57.12280273 202.29052734 C-57.1265931 200.38529564 -57.13209902 198.4800667 -57.13917542 196.57484436 C-57.1530518 191.43649082 -57.14201631 186.29847505 -57.1254642 181.16014051 C-57.11153808 175.76411695 -57.1180822 170.3681115 -57.12159729 164.97207642 C-57.12429299 155.91557417 -57.11087736 146.85920496 -57.08764648 137.80273438 C-57.06102478 127.35243445 -57.0592972 116.90235659 -57.07103485 106.45203435 C-57.08183588 96.36970342 -57.07560834 86.28745232 -57.06147957 76.20512772 C-57.05574156 71.92709069 -57.05578515 67.64911251 -57.06054497 63.37107468 C-57.06533812 58.32956721 -57.05511663 53.28830113 -57.03359032 48.24683952 C-57.02805463 46.40346656 -57.02752734 44.56007024 -57.03254318 42.71669579 C-57.06744442 28.04373111 -56.21113473 15.82115673 -45.8046875 4.51953125 C-33.1942393 -7.47950128 -14.85985685 -8.54829321 0 0 Z M-36.62109375 18.4921875 C-42.29687459 26.54990319 -41.17663402 36.63260457 -41.12280273 46.01196289 C-41.1265897 47.89191593 -41.13209286 49.77186618 -41.13917542 51.65180969 C-41.15309697 56.738548 -41.14198382 61.82494682 -41.1254642 66.91166615 C-41.11157831 72.24372046 -41.11807773 77.57575577 -41.12159729 82.90782166 C-41.12429638 91.85958302 -41.1108489 100.81121006 -41.08764648 109.76293945 C-41.06103058 120.10301709 -41.05929339 130.44287032 -41.07103485 140.78297049 C-41.08182422 150.74356643 -41.07561696 160.70408142 -41.06147957 170.66467094 C-41.05573066 174.89773923 -41.05579382 179.13074808 -41.06054497 183.36381721 C-41.06532697 188.35027173 -41.05516237 193.33648136 -41.03359032 198.32288933 C-41.02803925 200.14978077 -41.02754168 201.97669583 -41.03254318 203.80358887 C-41.03852687 206.30321212 -41.02593249 208.80209434 -41.0087738 211.301651 C-41.01478385 212.01927126 -41.02079389 212.73689153 -41.02698606 213.47625786 C-40.94574386 220.01408723 -39.46437502 225.36532449 -35.18359375 230.3046875 C-29.24686941 235.37262291 -25.33128799 236.91894649 -17.4765625 236.8359375 C-11.52989239 236.12005929 -7.94511983 232.75864723 -3.74609375 228.7421875 C1.99377166 219.96356981 0.66311198 208.71898403 0.63769531 198.63085938 C0.64040845 196.82149617 0.64397119 195.01213407 0.64831543 193.20277405 C0.65740326 188.30820296 0.65391008 183.41371655 0.64755726 178.51914406 C0.64247857 173.38641768 0.6471939 168.25369835 0.65032959 163.12097168 C0.65396379 154.50299789 0.64918446 145.88505842 0.63964844 137.26708984 C0.62876495 127.31674495 0.63229091 117.36648203 0.64330125 107.41613913 C0.65238968 98.85876818 0.65365179 90.30142185 0.64842391 81.74404764 C0.64531277 76.63932356 0.64487131 71.53463796 0.65149689 66.42991638 C0.65729236 61.62983315 0.65323324 56.82985517 0.64170837 52.02978325 C0.63907355 50.27264518 0.63980667 48.51549819 0.6442337 46.75836372 C1.16946485 29.84746099 1.16946485 29.84746099 -6.62109375 15.4921875 C-16.32262487 7.53257718 -28.30850328 9.80175201 -36.62109375 18.4921875 Z " fill="#000000" transform="translate(496.62109375,179.5078125)"/>
<path d="M0 0 C7.54620068 8.6182624 9.26098897 17.90664212 9.29418945 28.90234375 C9.30076065 29.85089233 9.30733185 30.79944092 9.31410217 31.7767334 C9.33377081 34.90714604 9.34548019 38.03751098 9.35546875 41.16796875 C9.35954428 42.23833374 9.3636198 43.30869873 9.36781883 44.41149902 C9.38864684 50.0712057 9.40296566 55.73088833 9.41235352 61.390625 C9.42344278 67.23843153 9.45788113 73.08586015 9.49752522 78.93353271 C9.52363949 83.4305086 9.53204048 87.92739343 9.53563499 92.42443848 C9.54051024 94.58063322 9.55215078 96.73682364 9.57067299 98.89294434 C9.59496538 101.9068024 9.59411799 104.9196682 9.5871582 107.93359375 C9.59996826 108.82413452 9.61277832 109.71467529 9.62597656 110.63220215 C9.59111996 114.76969906 9.4505234 116.88349887 7.21281433 120.47143555 C4.9523094 122.57111657 4.14817098 123.08110687 1.1171875 122.98046875 C0.4571875 122.98175781 -0.2028125 122.98304688 -0.8828125 122.984375 C-3.92841323 122.12185136 -4.97392729 120.96418303 -6.8828125 118.41796875 C-7.48102339 115.33988514 -7.41566494 112.29795453 -7.38110352 109.1706543 C-7.38662231 108.2352179 -7.39214111 107.29978149 -7.39782715 106.33599854 C-7.4071497 104.30568732 -7.40725022 102.27531763 -7.39923286 100.24500084 C-7.38661794 97.02898821 -7.39788006 93.81383582 -7.41526794 90.59785461 C-7.44200213 84.92712359 -7.44756261 79.25660266 -7.44616699 73.58581543 C-7.4439411 64.51975942 -7.45809841 55.45396427 -7.50175285 46.38801003 C-7.51157983 43.22440998 -7.50287805 40.06122031 -7.49305725 36.89762878 C-7.49920367 34.94957208 -7.50611614 33.00151759 -7.51391602 31.0534668 C-7.50619675 30.17789627 -7.49847748 29.30232574 -7.49052429 28.40022278 C-7.55293316 20.82698519 -9.46154364 14.994131 -14.8828125 9.41796875 C-19.98597559 6.17050133 -25.18001293 4.87531709 -31.1484375 5.75 C-37.51793256 7.42903356 -41.23103878 11.02725516 -44.8828125 16.41796875 C-45.97901219 19.70656783 -46.01963165 22.14586955 -46.03671265 25.60929871 C-46.04531311 26.9060553 -46.05391357 28.20281189 -46.06277466 29.53886414 C-46.06720982 30.97927816 -46.07150819 32.41969262 -46.07568359 33.86010742 C-46.08358591 35.37464587 -46.09185495 36.88918244 -46.10046387 38.40371704 C-46.12667146 43.3811056 -46.14199138 48.35850251 -46.15625 53.3359375 C-46.16161042 55.05039284 -46.16698793 56.76484813 -46.17238235 58.47930336 C-46.19401024 65.61230713 -46.21274596 72.74530865 -46.22400475 79.87833691 C-46.24023747 90.09491598 -46.27339967 100.31111436 -46.33040559 110.52754992 C-46.36913534 117.71408789 -46.38864108 124.90052417 -46.39392531 132.08716375 C-46.39757496 136.37776762 -46.40955448 140.66796533 -46.44202805 144.95845604 C-46.47216197 148.99774601 -46.47840188 153.03638522 -46.46664429 157.0757637 C-46.46642399 158.5543708 -46.47469314 160.03300855 -46.49229813 161.51151085 C-46.62328259 172.9392062 -46.62328259 172.9392062 -40.8828125 182.41796875 C-35.79435399 186.90039551 -31.34895112 188.17850064 -24.56640625 187.83984375 C-19.13870803 186.98658115 -15.36803618 184.90319243 -11.5078125 181.04296875 C-8.30788365 175.87385291 -7.63825963 171.20799641 -7.609375 165.19140625 C-7.58910293 163.81639786 -7.56825249 162.4413979 -7.546875 161.06640625 C-7.52422414 158.92245276 -7.50777412 156.77883361 -7.50195312 154.63476562 C-7.49242855 152.54888324 -7.45868316 150.46446073 -7.421875 148.37890625 C-7.40954834 146.51951416 -7.40954834 146.51951416 -7.39697266 144.62255859 C-6.79299713 140.8581793 -5.87170384 139.70286217 -2.8828125 137.41796875 C0.13224076 136.33564194 1.69619065 136.31027188 4.8046875 137.10546875 C7.58904361 138.68577897 8.01526768 139.44607775 9.1171875 142.41796875 C9.49679419 146.88619252 9.44637716 151.36003541 9.43286133 155.84228516 C9.42972759 158.01517147 9.4530792 160.18665947 9.47851562 162.359375 C9.53827121 175.02646678 7.56869285 184.60879185 -0.8828125 194.41796875 C-8.93203065 202.19999294 -18.01110772 205.00464842 -29.05078125 204.8203125 C-39.33341209 204.39024049 -46.28563223 200.92466343 -53.57421875 193.75390625 C-60.01673141 186.6816743 -62.99499331 179.45417916 -63.02998352 169.93002319 C-63.03366021 169.28029277 -63.0373369 168.63056236 -63.041125 167.96114314 C-63.05213064 165.78577356 -63.05600038 163.6104518 -63.05981445 161.43505859 C-63.06608156 159.8743576 -63.07272858 158.31365809 -63.07972717 156.75296021 C-63.10074397 151.62828607 -63.11112865 146.50361173 -63.12109375 141.37890625 C-63.12514246 139.61217865 -63.12925942 137.8454512 -63.13344383 136.07872391 C-63.15249179 127.77601547 -63.16672257 119.47331589 -63.1750558 111.1705898 C-63.18482131 101.59979966 -63.2111245 92.02924122 -63.25155669 82.45853269 C-63.28176428 75.05283491 -63.29652915 67.64720336 -63.29983681 60.24144518 C-63.30218237 55.82231078 -63.31107793 51.40342401 -63.33629799 46.98435593 C-63.35966461 42.82281814 -63.36377769 38.66168951 -63.35353661 34.500103 C-63.35304318 32.97880691 -63.35930615 31.4574901 -63.37309265 29.93625641 C-63.48443443 16.91427088 -61.39525483 8.17882797 -52.25390625 -1.3828125 C-36.75889419 -15.75462764 -15.04570264 -13.87432441 0 0 Z " fill="#000000" transform="translate(150.8828125,227.58203125)"/>
<path d="M0 0 C1.42033063 1.2007757 2.81480985 2.43254058 4.1875 3.6875 C5.52554688 4.88826172 5.52554688 4.88826172 6.890625 6.11328125 C21.08989646 19.51723833 30.81071223 38.28301617 31.62109375 58.01953125 C31.6447833 60.17955799 31.64561186 62.3399417 31.625 64.5 C31.61597656 65.64001465 31.60695313 66.7800293 31.59765625 67.95458984 C31.22044776 86.36707921 24.59118509 103.89934892 12.1875 117.6875 C11.61128906 118.3784375 11.03507813 119.069375 10.44140625 119.78125 C7.50819717 123.07376086 5.97301765 124.52497911 1.5625 125.4375 C-2.78433496 124.47153668 -4.33970048 123.39669928 -6.8125 119.6875 C-7.07370229 115.63886456 -7.09941808 113.21041452 -4.44921875 110.07421875 C-3.25727571 108.96995888 -2.05732373 107.87431094 -0.8515625 106.78515625 C12.0208439 93.54285312 14.69800869 76.8374992 14.46484375 59.296875 C13.87710378 41.83427262 5.31953918 28.54104186 -6.8125 16.6875 C-19.79211295 4.88562131 -35.92892955 0.82259811 -53.05078125 1.33984375 C-69.27841703 2.25026209 -83.22699146 9.50634153 -94.8125 20.6875 C-106.03679208 33.76657288 -112.82694124 50.09876571 -112.12109375 67.48828125 C-110.47873913 84.51471713 -103.49597913 101.50664313 -90.28515625 112.859375 C-75.31981006 124.28199217 -59.53241726 129.13462938 -40.8125 127.6875 C-37.3583074 127.04605975 -33.99136674 126.24955721 -30.58984375 125.375 C-26.99491816 124.48511687 -24.4772138 124.07671437 -20.8125 124.6875 C-17.8125 126.75 -17.8125 126.75 -15.8125 129.6875 C-15.8125 133.1003413 -15.91151753 135.470119 -17.98046875 138.265625 C-20.51983456 140.23647608 -23.04809703 140.91107745 -26.125 141.8125 C-27.23488281 142.14507812 -28.34476562 142.47765625 -29.48828125 142.8203125 C-49.4588711 148.03003159 -70.84787522 144.45781934 -88.8125 134.6875 C-92.69653637 132.25280232 -96.26956773 129.59154284 -99.8125 126.6875 C-100.51632812 126.14609375 -101.22015625 125.6046875 -101.9453125 125.046875 C-117.57037989 112.42427154 -126.52777886 92.32316945 -128.8125 72.6875 C-130.12250447 49.10741962 -123.43447918 28.33893637 -108.1484375 10.28515625 C-80.69686559 -20.24209345 -32.78804005 -24.22704202 0 0 Z " fill="#000000" transform="translate(480.8125,15.3125)"/>
<path d="M0 0 C8.23653962 5.77948559 14.8318395 13.67054531 16.89453125 23.7109375 C16.98927474 25.6462938 17.02938678 27.58459668 17.03497314 29.52226257 C17.04068329 30.70956467 17.04639343 31.89686676 17.05227661 33.12014771 C17.0539534 35.06907425 17.0539534 35.06907425 17.05566406 37.05737305 C17.06029451 38.44235872 17.06531948 39.82734312 17.07070923 41.21232605 C17.08381551 44.97290365 17.09027501 48.73346341 17.09471989 52.49406028 C17.09765417 54.84599086 17.10175971 57.1979166 17.10622406 59.54984474 C17.11989587 66.91549617 17.12956342 74.2811365 17.13342595 81.64679974 C17.13790259 90.13596588 17.15543345 98.62497067 17.18442655 107.11408776 C17.20608252 113.68410941 17.21613236 120.25408581 17.21746707 126.82414275 C17.21851253 130.74409399 17.22436454 134.66389349 17.24228668 138.58380699 C17.25883474 142.27499719 17.2608905 145.96592271 17.25214767 149.65713692 C17.25101714 151.6461391 17.26468336 153.63513277 17.27890015 155.62408447 C17.22340951 167.59476043 14.67942244 175.81455749 6.23046875 184.40234375 C-2.48368883 192.34058319 -11.40281579 194.29089659 -22.91796875 194.05078125 C-31.65538905 193.57220891 -39.18337178 189.59522795 -45.42578125 183.5859375 C-54.22032035 173.76877757 -55.55634085 162.85392531 -55.49365234 150.06640625 C-55.49772651 148.72156348 -55.50307309 147.37672406 -55.50958252 146.03189087 C-55.52316175 142.4078754 -55.51799677 138.78411854 -55.50844526 135.16009903 C-55.50079956 131.35045981 -55.50790781 127.54084134 -55.51260376 123.73120117 C-55.51804711 117.33606022 -55.51090717 110.94102353 -55.49658203 104.54589844 C-55.48025821 97.17381655 -55.48554773 89.80198366 -55.50206125 82.4299078 C-55.51571678 76.0771393 -55.51757598 69.72444535 -55.50974524 63.37166691 C-55.50509099 59.58761075 -55.50438143 55.80367126 -55.51435471 52.0196228 C-55.52308165 48.46045775 -55.51689928 44.90161075 -55.49967194 41.34247971 C-55.49387479 39.42889583 -55.50267351 37.51528475 -55.51205444 35.60171509 C-55.42554017 23.73391419 -52.93162583 14.79430857 -45.10546875 5.7109375 C-33.36446291 -5.6403254 -14.18184754 -8.6827638 0 0 Z M-34.98046875 18.5859375 C-38.24588305 23.38801735 -39.3529827 27.69092339 -39.37289429 33.45906067 C-39.38142426 34.58179886 -39.38995422 35.70453705 -39.39874268 36.86129761 C-39.3978363 38.07858551 -39.39692993 39.29587341 -39.39599609 40.55004883 C-39.40271332 41.84344681 -39.40943054 43.13684479 -39.41635132 44.46943665 C-39.43396875 48.00678198 -39.43870491 51.54403045 -39.43998289 55.08141541 C-39.44140756 57.29500149 -39.44568314 59.50856318 -39.45097733 61.72214317 C-39.4694641 69.45483327 -39.47764971 77.18745455 -39.47607422 84.92016602 C-39.47487344 92.11158896 -39.49596649 99.30271147 -39.52756155 106.49405843 C-39.55377262 112.6819689 -39.56443949 118.86978155 -39.5631634 125.05774707 C-39.56265515 128.74744059 -39.56826196 132.436867 -39.5895195 136.1265049 C-39.61260565 140.24575735 -39.6033516 144.36434297 -39.59130859 148.48364258 C-39.60254761 149.69485779 -39.61378662 150.906073 -39.62536621 152.1539917 C-39.56684539 160.04513433 -38.66823753 166.93618055 -33.0703125 172.8671875 C-32.40128906 173.310625 -31.73226563 173.7540625 -31.04296875 174.2109375 C-30.37136719 174.675 -29.69976562 175.1390625 -29.0078125 175.6171875 C-24.03987377 178.47349724 -18.66433235 178.38681026 -13.10546875 177.7109375 C-7.1745694 175.34446938 -3.29095315 171.33492405 -0.02104092 165.91273117 C1.12106996 163.16615084 1.15490421 161.01883683 1.16868591 158.04473877 C1.17866104 156.88964813 1.18863617 155.7345575 1.19891357 154.54446411 C1.19957825 153.28101166 1.20024292 152.0175592 1.20092773 150.71582031 C1.20855133 149.36861716 1.21697918 148.02141836 1.22615051 146.67422485 C1.24808611 143.01700799 1.25689343 139.35987474 1.26197696 135.70259953 C1.26562245 133.41566289 1.27186359 131.12874807 1.27897835 128.84181976 C1.30347215 120.85742737 1.31652403 112.87309991 1.32006836 104.88867188 C1.32370088 97.45636845 1.35357572 90.02447868 1.39547294 82.59230161 C1.43021758 76.20402406 1.44561754 69.81588328 1.44631439 63.42751193 C1.44710597 59.61535299 1.4557884 55.80361524 1.48431206 51.99155426 C1.51056402 48.40280583 1.51265919 44.81482558 1.49665642 41.22602463 C1.49398861 39.29047554 1.51597845 37.35494095 1.53884888 35.41952515 C1.47863319 28.22612574 0.73118368 23.22013666 -4.10546875 17.7109375 C-9.62474128 12.59551418 -13.85751014 11.23998105 -21.28515625 11.3984375 C-26.95141506 12.02627781 -31.17201175 14.37892105 -34.98046875 18.5859375 Z " fill="#000000" transform="translate(407.10546875,238.2890625)"/>
<path d="M0 0 C9.58226592 5.73198988 15.15639804 13.23329143 17.96609497 23.99468994 C19.33861502 31.86030899 19.03577185 39.89030506 19.01953125 47.8515625 C19.02410149 49.82252175 19.02940955 51.79347942 19.03541565 53.76443481 C19.04431354 57.88127138 19.04196195 61.99791362 19.03198242 66.11474609 C19.02050196 71.35857579 19.04070741 76.60173113 19.06989956 81.84547234 C19.08835422 85.91216202 19.08795064 89.97869287 19.08226204 94.04541397 C19.08210993 95.97727529 19.08806168 97.90914815 19.10055351 99.84096909 C19.18018094 114.17216472 18.78063063 127.01215247 8.8671875 138.38671875 C0.72626968 146.0954988 -8.15698555 148.98847265 -19.23291016 148.90600586 C-29.66640816 148.62128263 -36.74316505 145.17457587 -44.25 137.91796875 C-51.39500816 130.08941288 -53.71537426 122.48812942 -53.70458984 112.02832031 C-53.71130707 111.08765717 -53.71802429 110.14699402 -53.72494507 109.17782593 C-53.74389807 106.07682977 -53.74784812 102.97605043 -53.75 99.875 C-53.75643051 97.7103466 -53.76315906 95.54569407 -53.77017212 93.38104248 C-53.78213866 88.84515367 -53.78585365 84.30934098 -53.78466797 79.7734375 C-53.78446498 73.97880763 -53.81174925 68.18466932 -53.84621239 62.39015579 C-53.86851979 57.918699 -53.8725043 53.4473597 -53.87144852 48.97585297 C-53.87379937 46.84054625 -53.88259364 44.70523605 -53.89811325 42.56998444 C-53.91784779 39.5739821 -53.91190541 36.57902933 -53.89990234 33.58300781 C-53.91114136 32.71201447 -53.92238037 31.84102112 -53.93395996 30.94363403 C-53.82945629 20.60830893 -49.82985156 13.1146831 -42.78515625 5.74609375 C-31.11694259 -5.07631859 -14.23463933 -6.94182411 0 0 Z M-35.15234375 21.27734375 C-39.97368017 29.94977861 -38.70572472 41.00155492 -38.6796875 50.609375 C-38.6810371 52.36857151 -38.68298008 54.12776765 -38.68548584 55.88696289 C-38.68842324 59.56172256 -38.68418421 63.23638456 -38.67480469 66.91113281 C-38.66341101 71.6014636 -38.66997792 76.29156541 -38.68194962 80.98188782 C-38.68920572 84.61089781 -38.68686312 88.23985428 -38.68169403 91.86886597 C-38.68036789 93.5974836 -38.68196859 95.32610622 -38.68665314 97.05471802 C-39.18505029 113.81743218 -39.18505029 113.81743218 -31.2578125 127.8828125 C-26.17701763 132.46844516 -21.67482316 133.03908028 -15.03125 132.83203125 C-8.94415766 132.16881074 -5.35069231 129.01548181 -1.4140625 124.546875 C2.48208787 118.84179767 2.73729996 114.11823083 2.74707031 107.32519531 C2.75203522 106.49865448 2.75700012 105.67211365 2.76211548 104.82052612 C2.77670839 102.08867557 2.78353481 99.35688311 2.7890625 96.625 C2.79481692 94.72174071 2.80057462 92.81848144 2.80633545 90.91522217 C2.81683769 86.92394745 2.82268524 82.93269283 2.82617188 78.94140625 C2.83165072 73.83938708 2.85566903 68.73763557 2.88414383 63.63570023 C2.90281454 59.7030562 2.9079782 55.77047604 2.90950775 51.83779144 C2.9125255 49.95761402 2.92052424 48.0774375 2.93369293 46.19730377 C2.95084404 43.5600428 2.94885107 40.92342769 2.94238281 38.28613281 C2.9515976 37.51701569 2.96081238 36.74789856 2.9703064 35.95547485 C2.92091772 29.49198794 1.31382397 24.36268999 -2.1015625 18.796875 C-6.80415247 14.22138206 -11.40331496 12.3087214 -17.9765625 12.046875 C-25.79558588 12.38166744 -29.98621111 15.68659747 -35.15234375 21.27734375 Z " fill="#000000" transform="translate(53.4140625,283.453125)"/>
<path d="M0 0 C2.875 2.125 2.875 2.125 5 5 C5.3125 8.3125 5.3125 8.3125 5 11 C5.680625 11.0825 6.36125 11.165 7.0625 11.25 C11.94647845 12.49697322 15.73500211 14.497815 19 18.375 C20.27788662 21.72945239 20.03878517 23.58684873 19 27 C17.38907331 29.08241743 16.52547621 29.89962814 13.9140625 30.3984375 C8.87113948 30.34680348 6.33569643 29.66812088 2 27 C-2.25472762 26.40811249 -6.40710866 26.41311823 -10 29 C-11.50275341 32.00550681 -11.58765005 33.66998307 -11 37 C-6.7437093 40.63965988 -1.3929842 42.79903845 3.74975586 44.87719727 C11.35519867 47.95293372 17.68883374 50.6500603 22 58 C22.639375 59.0725 23.27875 60.145 23.9375 61.25 C26.13498479 69.00582867 26.06099639 76.6600475 22.328125 83.90234375 C18.2920038 90.27704105 13.84095983 94.78072479 7 98 C6.34 98 5.68 98 5 98 C4.98582031 98.61488281 4.97164063 99.22976562 4.95703125 99.86328125 C4.56949153 106.43050847 4.56949153 106.43050847 1.875 109.125 C-1.86917312 110.26453095 -4.23860004 110.04483332 -8 109 C-9.9375 107.3125 -9.9375 107.3125 -11 105 C-11.1875 101.75 -11.1875 101.75 -11 99 C-11.8353125 98.87044922 -11.8353125 98.87044922 -12.6875 98.73828125 C-19.54027787 97.47653668 -25.03360405 94.96639595 -30 90 C-30.33955349 86.99252622 -30.55613536 84.90107722 -30 82 C-27.52126272 79.0838385 -25.94292397 78.16763093 -22.1875 77.5 C-19.18159275 77.97151486 -17.91782605 78.52589794 -15.375 80 C-10.10971444 82.82502822 -4.83190842 82.91609221 1 82 C4.1841409 80.74801265 4.8198384 79.88724104 7 77 C8.07350436 73.90808381 8.67896081 71.22368385 8 68 C4.16082754 62.95622889 -0.58044281 61.22596128 -6.3125 59.0625 C-14.14196577 56.10250465 -21.88302072 52.78780599 -26.5 45.4375 C-29.23429358 39.02478456 -29.12024846 31.76341532 -27.15234375 25.15234375 C-24.46502184 19.11270163 -20.73839796 15.25335951 -15 12 C-14.01 11.67 -13.02 11.34 -12 11 C-11.51256967 8.98528797 -11.0282351 6.96955434 -10.58203125 4.9453125 C-10 3 -10 3 -8.25 1 C-5.18207667 -0.36352148 -3.32664118 -0.54312509 0 0 Z " fill="#000000" transform="translate(435,25)"/>
<path d="M0 0 C7.20597552 5.54227295 12.91997919 13.37125248 14.3125 22.5 C15.2820912 34.92000154 13.40670269 44.80935512 5.296875 54.49609375 C1.99530951 57.83015497 -1.5837595 60.25374204 -5.6875 62.5 C-6.27789062 62.8403125 -6.86828125 63.180625 -7.4765625 63.53125 C-15.04711132 67.13309702 -25.09124831 66.64508693 -33.07421875 64.65625 C-44.21303703 60.43462361 -50.65372669 53.85382488 -55.59375 43.13671875 C-58.99677092 34.9330076 -58.91841407 25.05299288 -56.125 16.625 C-51.88673257 6.65173434 -45.23147563 0.1745564 -35.5703125 -4.53125 C-23.5538345 -9.28502152 -10.50860451 -6.9771415 0 0 Z M-36.484375 15.44140625 C-41.28547478 21.64854239 -42.48788448 26.69335137 -41.6875 34.5 C-39.84181724 41.18913052 -35.53055037 45.03256354 -29.6875 48.5 C-24.02915621 50.3861146 -17.95095061 50.41147069 -12.4375 48 C-7.20025308 45.03612193 -3.5736146 40.15834379 -1.6875 34.5 C-0.65453729 27.28401763 -2.39987495 21.37753386 -6.6875 15.5 C-11.99177246 10.99033645 -17.36261754 9.10692174 -24.28125 9.23046875 C-29.30693663 9.79341092 -33.05336044 11.73441878 -36.484375 15.44140625 Z " fill="#000000" transform="translate(233.6875,446.5)"/>
<path d="M0 0 C7.70501972 5.30921705 13.3402739 12.66175881 15.78515625 21.71484375 C16.19587127 24.68792507 16.26408692 27.59141936 16.22265625 30.58984375 C16.21290771 31.38068359 16.20315918 32.17152344 16.19311523 32.98632812 C15.87650924 43.43539917 12.44193755 49.95200298 5.22265625 57.515625 C-3.16210529 65.08072235 -12.30127448 67.20123307 -23.38671875 67.02734375 C-33.24915869 66.22224661 -41.02637298 61.97554381 -47.8984375 55.0078125 C-54.07725728 47.68876164 -56.9979842 37.63601565 -56.53515625 28.1171875 C-55.05424751 17.01037193 -49.91451815 7.79346081 -41.21484375 0.71484375 C-28.31139922 -7.45479273 -13.15708535 -7.63435817 0 0 Z M-37.0234375 19.9375 C-40.41295649 24.99399554 -40.5188954 29.45795167 -39.74609375 35.32421875 C-38.32611691 41.71411455 -33.36885575 46.04365654 -28.21484375 49.71484375 C-22.48639546 51.62432651 -16.4392187 51.6267009 -10.90234375 49.08984375 C-5.89538816 46.23739632 -2.41486883 42.05638936 -0.21484375 36.71484375 C0.7261213 29.78141703 0.42467067 24.05321263 -3.7890625 18.33203125 C-7.56629373 14.04771967 -11.51135343 11.18399991 -17.25 10.45703125 C-25.80589721 10.0167621 -31.80944303 13.21755617 -37.0234375 19.9375 Z " fill="#000000" transform="translate(496.21484375,445.28515625)"/>
<path d="M0 0 C6.74301844 5.5157615 11.69026311 12.72247169 13.6875 21.25 C14.9093943 33.51881621 13.28394646 43.63040639 5.375 53.4375 C-0.9260966 60.20534449 -8.65189586 64.64570893 -17.8984375 65.6328125 C-29.38332925 65.9822514 -38.44133887 63.68203619 -47.30859375 56.2265625 C-54.86231565 48.77591283 -58.32489443 39.89293468 -58.75 29.375 C-58.46124477 19.60754045 -55.31621132 10.22365247 -48.3125 3.25 C-34.22285955 -8.84076412 -15.58306487 -10.80189724 0 0 Z M-37.6875 16.6875 C-41.224079 21.22354697 -42.86626134 25.10087564 -42.6875 31 C-41.66624143 37.12755143 -38.71048884 42.62257614 -33.6875 46.3125 C-28.1630274 49.48395649 -23.56825098 49.90898861 -17.3125 49.25 C-10.65997535 47.23582731 -6.72431583 43.29233921 -3.203125 37.390625 C-1.21297163 32.60727391 -1.59622037 26.902048 -2.9296875 21.96484375 C-5.30402421 16.51227404 -9.26164047 13.24732732 -14.3125 10.25 C-23.36511526 7.23246158 -31.37165491 9.68348777 -37.6875 16.6875 Z " fill="#000000" transform="translate(410.3125,446.75)"/>
<path d="M0 0 C7.95519505 5.71074102 13.76713021 13.75330112 15.52734375 23.4921875 C16.77074764 35.80188597 14.75078154 45.61444706 6.96484375 55.3671875 C0.62359881 62.02307436 -8.62074117 66.50906516 -17.81640625 66.83569336 C-29.04795148 67.00463801 -38.37780794 64.49147995 -46.72265625 56.51171875 C-54.41435462 47.63536148 -56.99064071 38.67361984 -56.78125 27.05859375 C-55.8977277 16.84776006 -51.15778276 8.32137489 -43.37109375 1.70703125 C-30.27564712 -7.70965917 -13.7946084 -8.41187811 0 0 Z M-36.47265625 18.4921875 C-40.21678899 24.10838661 -41.21757084 28.84193551 -40.47265625 35.4921875 C-38.57280358 42.17192429 -34.32919326 46.01674767 -28.47265625 49.4921875 C-22.81431246 51.3783021 -16.73610686 51.40365819 -11.22265625 48.9921875 C-5.98540933 46.02830943 -2.35877085 41.15053129 -0.47265625 35.4921875 C0.25988101 28.73122888 -0.23422217 22.99037838 -4.47265625 17.4921875 C-10.06777844 12.22956232 -14.63275286 10.14763057 -22.38671875 10.27734375 C-28.50076199 10.90706731 -32.58380669 13.95519635 -36.47265625 18.4921875 Z " fill="#000000" transform="translate(320.47265625,445.5078125)"/>
<path d="M0 0 C8.57420437 5.47509436 14.48340427 13.02736709 16.96875 22.96875 C18.70522932 33.3876259 17.32656694 42.98202375 11.8984375 52.13671875 C6.20910523 60.0356289 -1.91191127 65.86331797 -11.59375 67.59375 C-23.69321702 68.67192033 -33.16822296 67.0398224 -42.7109375 59.3515625 C-50.63884926 51.94998513 -54.53203072 44.60039326 -54.99389648 33.76391602 C-55.19208621 22.5810933 -52.26314794 13.85036402 -44.59375 5.59375 C-32.42175348 -5.96295878 -14.67940928 -7.95871588 0 0 Z M-35.03125 19.65625 C-39.01517781 25.31190773 -39.41702305 30.82256045 -38.59375 37.59375 C-36.16717154 43.67529935 -32.0398157 47.6245696 -26.40625 50.84375 C-19.85744528 52.59009792 -13.39494303 52.44069556 -7.41796875 49.0703125 C-3.15179033 45.61717451 -0.31228058 40.74934173 1.40625 35.59375 C1.94409771 29.24714703 1.11888027 24.84788173 -2.59375 19.59375 C-7.3284485 14.52246156 -11.89627218 11.60220178 -18.90625 11.21875 C-26.0089943 11.43112441 -30.70818023 14.06713836 -35.03125 19.65625 Z " fill="#000000" transform="translate(142.59375,444.40625)"/>
<path d="M0 0 C8.83683441 6.21287017 14.43787863 13.90162118 17.6015625 24.18359375 C18.72555943 35.70456227 16.89843808 45.35729245 9.8515625 54.74609375 C3.33671902 62.34674448 -4.74101932 67.15037703 -14.76171875 68.08203125 C-22.78539148 68.16675852 -29.05000825 67.59722645 -36.1484375 63.74609375 C-37.1796875 63.18921875 -38.2109375 62.63234375 -39.2734375 62.05859375 C-46.34594187 56.36984024 -52.29909096 49.83100862 -54.1484375 40.74609375 C-55.13997367 31.42830966 -55.53416711 21.79123643 -50.1484375 13.74609375 C-49.71273437 13.05386719 -49.27703125 12.36164063 -48.828125 11.6484375 C-38.11906519 -4.00551605 -16.76318394 -9.78360372 0 0 Z M-34.0234375 18.74609375 C-38.49917914 25.06478783 -38.95707334 30.04383738 -38.1484375 37.74609375 C-36.17205498 43.9672069 -31.36892878 47.86747384 -25.8984375 51.05859375 C-20.38585732 52.43673879 -14.56714394 52.85983509 -9.3984375 50.18359375 C-4.70122406 47.0410136 -1.27053941 42.94151052 1.2890625 37.93359375 C2.33050409 32.0320914 1.89553481 26.79537273 -0.8359375 21.43359375 C-5.08862864 16.49127702 -9.46756464 12.33120286 -16.1796875 11.4921875 C-23.43848233 11.10687476 -29.20714348 13.19749772 -34.0234375 18.74609375 Z " fill="#000000" transform="translate(54.1484375,444.25390625)"/>
</svg>
